<?xml version="1.0" standalone="no"?>
<!DOCTYPE svg PUBLIC "-//W3C//DTD SVG 20010904//EN"
 "http://www.w3.org/TR/2001/REC-SVG-20010904/DTD/svg10.dtd">
<svg version="1.0" xmlns="http://www.w3.org/2000/svg"
 width="663.000000pt" height="140.000000pt" viewBox="0 0 663.000000 140.000000"
 preserveAspectRatio="xMidYMid meet">
<metadata>
Created by potrace 1.16, written by Peter Selinger 2001-2019
</metadata>
<g transform="translate(0.000000,140.000000) scale(0.100000,-0.100000)"
fill="#000000" stroke="none">
<path d="M12 1388 c-9 -9 -12 -178 -12 -700 l0 -688 3315 0 3315 0 0 700 0
700 -3303 0 c-2556 0 -3306 -3 -3315 -12z m2628 -288 c0 -14 7 -20 21 -20 13
0 23 -8 26 -20 l6 -21 19 21 c22 24 51 26 69 4 11 -14 13 -14 21 0 5 9 18 16
28 16 14 0 20 7 20 21 0 14 5 19 18 17 14 -3 17 -14 17 -68 l0 -65 -39 -3
c-24 -2 -42 2 -47 10 -7 10 -9 10 -9 1 0 -19 -60 -16 -82 4 -17 15 -18 15 -18
0 0 -10 -7 -17 -15 -17 -10 0 -15 11 -15 35 0 19 -4 35 -10 35 -5 0 -10 -16
-10 -36 l0 -35 -42 3 c-40 3 -43 5 -49 38 -4 20 -7 26 -8 13 -2 -41 -12 -53
-45 -53 -18 0 -38 6 -45 13 -11 10 -14 10 -18 0 -7 -19 -64 -16 -79 5 -13 16
-13 16 -14 0 0 -10 -7 -18 -15 -18 -11 0 -15 11 -15 36 0 24 -4 34 -12 32 -13
-5 -14 -9 -17 -48 0 -11 -8 -20 -16 -20 -10 0 -15 11 -15 35 0 19 -4 35 -10
35 -5 0 -10 -15 -10 -33 l0 -33 -65 -2 c-55 -2 -66 1 -75 18 -9 17 -8 20 8 20
10 0 23 -5 30 -12 9 -9 15 -9 23 -1 9 9 2 16 -25 27 -37 16 -47 41 -24 64 17
17 58 15 78 -3 12 -11 39 -16 84 -16 59 -1 68 -3 76 -22 6 -16 9 -17 9 -6 1
30 60 40 81 14 10 -13 14 -13 28 1 10 11 25 14 48 9 25 -4 35 -2 43 12 8 15
13 16 30 5 19 -11 21 -10 21 8 0 13 7 20 20 20 13 0 20 -7 20 -20z m-2035 -22
l20 -33 3 33 c3 25 8 32 20 30 13 -3 16 -13 13 -47 -1 -27 1 -41 7 -37 6 3 8
15 5 26 -7 25 40 39 70 21 14 -9 22 -10 27 -2 6 11 88 14 123 4 9 -2 17 -14
17 -26 0 -21 1 -21 13 3 22 43 87 35 87 -11 0 -15 -7 -19 -31 -19 -18 0 -28
-4 -24 -10 4 -6 15 -8 25 -5 27 9 35 -14 9 -24 -32 -11 -55 -3 -67 22 l-11 22
0 -23 c-1 -17 -6 -22 -18 -20 -13 3 -18 13 -16 36 0 21 -3 32 -10 29 -6 -2
-11 -18 -11 -35 1 -25 -3 -32 -17 -32 -15 0 -19 8 -19 35 0 19 -4 35 -10 35
-5 0 -10 -16 -10 -35 l0 -35 -89 1 c-85 1 -89 2 -102 28 l-13 26 -4 -27 c-2
-20 -9 -28 -23 -28 -17 0 -19 7 -19 65 0 56 3 65 18 65 10 0 27 -15 37 -32z
m5711 17 c-4 -11 1 -15 19 -15 16 0 25 -6 25 -15 0 -8 5 -15 10 -15 6 0 10 7
10 15 0 8 9 15 20 15 11 0 20 -5 20 -12 0 -9 3 -9 12 0 27 27 78 7 78 -30 0
-13 -8 -18 -31 -18 -18 0 -28 -4 -24 -10 4 -6 15 -8 25 -5 24 8 35 -11 14 -23
-26 -14 -61 -2 -74 26 l-13 27 -9 -27 c-15 -43 -43 -36 -61 15 l-15 42 -1 -43
-1 -43 -42 3 c-40 3 -43 5 -49 38 l-6 35 -2 -37 -1 -38 -45 0 -44 0 1 45 c1
49 18 62 64 51 17 -5 26 -2 30 9 7 17 44 21 44 5 0 -5 4 -10 10 -10 5 0 7 7 4
15 -4 11 0 15 16 15 16 0 20 -4 16 -15z m-2372 -31 c15 -14 16 -14 16 0 0 11
10 16 33 16 48 0 59 -12 55 -56 -2 -31 -7 -40 -24 -42 -12 -2 -24 -12 -27 -23
-3 -10 -12 -19 -21 -19 -12 0 -16 10 -16 40 0 38 -2 40 -30 40 -16 0 -30 -5
-30 -11 0 -7 10 -9 25 -5 18 5 25 2 25 -8 0 -19 -34 -26 -62 -12 -29 14 -35
52 -12 77 21 23 47 24 68 3z m552 5 c6 -5 24 -3 43 4 30 11 34 10 52 -12 26
-32 24 -41 -11 -41 -16 0 -30 -5 -30 -10 0 -6 11 -8 26 -4 20 5 25 3 22 -7 -6
-18 -55 -24 -74 -8 -10 8 -14 8 -14 0 0 -6 -9 -11 -20 -11 -16 0 -20 7 -20 36
0 21 -4 33 -10 29 -5 -3 -10 -19 -10 -36 0 -19 -5 -29 -15 -29 -10 0 -15 11
-15 35 0 19 -4 35 -10 35 -5 0 -10 -16 -10 -35 0 -28 -4 -35 -20 -35 -17 0
-20 7 -20 50 l0 50 63 -1 c34 -1 67 -5 73 -10z m-4129 -761 c17 -17 27 -41 30
-72 5 -42 3 -48 -30 -81 -30 -30 -42 -35 -81 -35 -64 0 -106 38 -113 103 -5
43 -3 49 31 83 34 34 39 36 87 32 37 -4 58 -12 76 -30z"/>
</g>
</svg>
