<?xml version="1.0" standalone="no"?>
<!DOCTYPE svg PUBLIC "-//W3C//DTD SVG 20010904//EN"
 "http://www.w3.org/TR/2001/REC-SVG-20010904/DTD/svg10.dtd">
<svg version="1.0" xmlns="http://www.w3.org/2000/svg"
 width="719.000000pt" height="195.000000pt" viewBox="0 0 719.000000 195.000000"
 preserveAspectRatio="xMidYMid meet">
<metadata>
Created by potrace 1.16, written by Peter Selinger 2001-2019
</metadata>
<g transform="translate(0.000000,195.000000) scale(0.100000,-0.100000)"
fill="#000000" stroke="none">
<path d="M0 975 l0 -975 3575 0 3575 0 0 963 c0 736 -3 966 -12 975 -9 9 -817
12 -3575 12 l-3563 0 0 -975z m3047 685 c3 -11 14 -20 25 -20 12 0 22 -9 25
-20 l6 -21 19 21 c22 24 51 26 69 4 11 -14 13 -14 21 0 5 9 17 16 27 16 11 0
21 9 24 21 3 12 12 19 19 17 9 -3 14 -27 16 -71 l3 -67 -39 0 c-21 0 -43 5
-50 12 -9 9 -12 9 -12 0 0 -15 -66 -16 -75 -2 -3 6 -11 10 -16 10 -6 0 -7 -4
-4 -10 3 -5 -3 -10 -14 -10 -17 0 -21 6 -21 35 0 19 -4 35 -10 35 -5 0 -10
-16 -10 -36 l0 -35 -42 3 c-40 3 -43 5 -49 38 -5 27 -7 29 -8 10 0 -15 -6 -31
-13 -38 -15 -15 -64 -16 -73 -2 -4 7 -12 7 -25 0 -33 -18 -70 -12 -80 13 l-9
22 0 -22 c-1 -14 -7 -23 -16 -23 -15 0 -20 17 -17 53 1 11 -3 17 -10 15 -7 -3
-14 -19 -16 -36 -5 -46 -32 -43 -32 3 0 19 -4 35 -10 35 -5 0 -10 -15 -10 -33
l0 -34 -52 -1 c-64 -2 -88 5 -88 24 0 17 22 18 38 2 9 -9 15 -9 24 0 9 9 5 14
-20 23 -35 12 -50 42 -32 64 16 19 59 19 80 0 10 -9 41 -16 86 -17 64 -3 69
-5 72 -27 l4 -24 12 24 c13 27 50 37 70 19 10 -8 21 -7 40 1 19 9 32 9 50 1
21 -10 26 -8 31 8 7 23 25 26 43 8 9 -9 12 -7 12 10 0 28 30 30 37 2z m-2440
-22 l18 -33 3 33 c4 38 32 45 32 8 0 -23 2 -24 30 -13 24 9 35 9 52 -2 14 -8
23 -9 27 -2 4 5 35 10 70 10 54 -1 64 -3 68 -20 5 -19 6 -19 20 1 25 36 83 20
83 -22 0 -14 -8 -18 -32 -18 -17 0 -28 -3 -24 -7 4 -5 16 -8 27 -8 24 0 28
-19 5 -23 -33 -7 -65 8 -69 31 -4 19 -4 18 -6 -5 0 -18 -7 -28 -16 -28 -15 0
-20 17 -17 53 1 11 -3 17 -10 15 -7 -3 -14 -19 -16 -36 -5 -46 -32 -43 -32 3
0 19 -4 35 -10 35 -5 0 -10 -16 -10 -35 l0 -35 -58 0 c-33 0 -64 5 -71 13 -11
10 -13 10 -7 0 5 -9 -1 -13 -17 -13 -16 0 -28 9 -37 28 l-14 27 -4 -27 c-2
-20 -9 -28 -23 -28 -17 0 -19 7 -19 65 0 58 2 65 20 65 12 0 26 -13 37 -32z
m6169 17 c-4 -11 1 -15 19 -15 16 0 25 -6 25 -15 0 -8 5 -15 10 -15 6 0 10 7
10 15 0 8 9 15 20 15 24 0 24 4 4 -53 -21 -62 -46 -64 -67 -4 l-15 42 -1 -43
-1 -43 -42 3 c-40 3 -43 5 -49 38 l-6 35 -2 -38 -1 -38 -42 3 c-43 3 -43 3
-45 45 -2 46 16 60 62 49 17 -4 27 -1 34 11 8 15 13 16 30 6 27 -17 32 -16 25
2 -4 11 0 15 16 15 16 0 20 -4 16 -15z m-2422 -31 c15 -14 16 -14 16 0 0 11
10 16 33 16 48 0 59 -12 55 -56 -3 -34 -6 -39 -30 -42 -20 -2 -28 -9 -28 -23
0 -10 -7 -19 -15 -19 -11 0 -15 11 -15 40 0 38 -2 40 -30 40 -16 0 -30 -5 -30
-11 0 -7 10 -9 26 -5 19 5 25 3 22 -6 -3 -7 -20 -13 -39 -13 -27 0 -35 5 -43
27 -18 50 42 89 78 52z m553 4 c7 -6 19 -6 32 1 37 20 64 11 75 -26 7 -20 4
-23 -23 -23 -17 0 -31 -5 -31 -11 0 -7 10 -9 26 -5 19 5 25 3 22 -6 -6 -17
-56 -22 -74 -7 -10 8 -14 8 -14 0 0 -6 -9 -11 -20 -11 -16 0 -20 7 -20 36 0
21 -4 33 -10 29 -5 -3 -10 -19 -10 -36 0 -19 -5 -29 -15 -29 -10 0 -15 11 -15
35 0 19 -4 35 -10 35 -5 0 -10 -16 -10 -35 0 -28 -4 -35 -20 -35 -17 0 -20 7
-20 43 0 24 3 47 7 50 10 10 116 6 130 -5z m-4534 -488 c26 -29 29 -39 24 -78
-7 -62 -40 -93 -106 -100 -47 -4 -53 -2 -86 31 -29 29 -35 42 -35 77 0 35 6
48 35 77 33 33 38 35 87 31 43 -5 57 -11 81 -38z m-24 -266 c13 -9 29 -32 37
-50 12 -29 12 -39 0 -68 -19 -45 -52 -66 -104 -66 -35 0 -49 6 -73 29 -65 65
-20 171 73 171 24 0 54 -7 67 -16z"/>
<path d="M221 1124 c-45 -58 -11 -134 60 -134 76 0 114 75 68 134 -16 21 -29
26 -64 26 -35 0 -48 -5 -64 -26z"/>
</g>
</svg>
