<svg viewBox="0 0 772.7999877929688 400" xmlns="http://www.w3.org/2000/svg"><g><g><g><g><g><line x1="50" y1="378" x2="45" y2="378" style="visibility: inherit;" fill="rgb(0, 0, 0)" stroke="rgb(204, 204, 204)" stroke-width="1px"></line><line x1="50" y1="350.99999999999994" x2="45" y2="350.99999999999994" style="visibility: inherit;" fill="rgb(0, 0, 0)" stroke="rgb(204, 204, 204)" stroke-width="1px"></line><line x1="50" y1="323.99999999999994" x2="45" y2="323.99999999999994" style="visibility: inherit;" fill="rgb(0, 0, 0)" stroke="rgb(204, 204, 204)" stroke-width="1px"></line><line x1="50" y1="296.99999999999994" x2="45" y2="296.99999999999994" style="visibility: inherit;" fill="rgb(0, 0, 0)" stroke="rgb(204, 204, 204)" stroke-width="1px"></line><line x1="50" y1="269.99999999999994" x2="45" y2="269.99999999999994" style="visibility: inherit;" fill="rgb(0, 0, 0)" stroke="rgb(204, 204, 204)" stroke-width="1px"></line><line x1="50" y1="242.9999999999999" x2="45" y2="242.9999999999999" style="visibility: inherit;" fill="rgb(0, 0, 0)" stroke="rgb(204, 204, 204)" stroke-width="1px"></line><line x1="50" y1="215.99999999999986" x2="45" y2="215.99999999999986" style="visibility: inherit;" fill="rgb(0, 0, 0)" stroke="rgb(204, 204, 204)" stroke-width="1px"></line><line x1="50" y1="188.99999999999983" x2="45" y2="188.99999999999983" style="visibility: inherit;" fill="rgb(0, 0, 0)" stroke="rgb(204, 204, 204)" stroke-width="1px"></line><line x1="50" y1="161.99999999999986" x2="45" y2="161.99999999999986" style="visibility: inherit;" fill="rgb(0, 0, 0)" stroke="rgb(204, 204, 204)" stroke-width="1px"></line><line x1="50" y1="134.9999999999998" x2="45" y2="134.9999999999998" style="visibility: inherit;" fill="rgb(0, 0, 0)" stroke="rgb(204, 204, 204)" stroke-width="1px"></line><line x1="50" y1="107.99999999999979" x2="45" y2="107.99999999999979" style="visibility: inherit;" fill="rgb(0, 0, 0)" stroke="rgb(204, 204, 204)" stroke-width="1px"></line><line x1="50" y1="80.99999999999976" x2="45" y2="80.99999999999976" style="visibility: inherit;" fill="rgb(0, 0, 0)" stroke="rgb(204, 204, 204)" stroke-width="1px"></line><line x1="50" y1="54.00000000000006" x2="45" y2="54.00000000000006" style="visibility: inherit;" fill="rgb(0, 0, 0)" stroke="rgb(204, 204, 204)" stroke-width="1px"></line><line x1="50" y1="27.00000000000003" x2="45" y2="27.00000000000003" style="visibility: inherit;" fill="rgb(0, 0, 0)" stroke="rgb(204, 204, 204)" stroke-width="1px"></line><line x1="50" y1="0" x2="45" y2="0" style="visibility: inherit;" fill="rgb(0, 0, 0)" stroke="rgb(204, 204, 204)" stroke-width="1px"></line></g><g transform="translate(40, 0)"><text x="0" y="378" dx="0em" dy="0.3em" style="text-anchor: end; visibility: hidden; font-family: Roboto, sans-serif; font-size: 12px; font-weight: 200;" fill="rgb(50, 49, 63)" stroke="none" stroke-width="1px">0.82</text><text x="0" y="350.99999999999994" dx="0em" dy="0.3em" style="text-anchor: end; visibility: inherit; font-family: Roboto, sans-serif; font-size: 12px; font-weight: 200;" fill="rgb(50, 49, 63)" stroke="none" stroke-width="1px">0.83</text><text x="0" y="323.99999999999994" dx="0em" dy="0.3em" style="text-anchor: end; visibility: inherit; font-family: Roboto, sans-serif; font-size: 12px; font-weight: 200;" fill="rgb(50, 49, 63)" stroke="none" stroke-width="1px">0.84</text><text x="0" y="296.99999999999994" dx="0em" dy="0.3em" style="text-anchor: end; visibility: inherit; font-family: Roboto, sans-serif; font-size: 12px; font-weight: 200;" fill="rgb(50, 49, 63)" stroke="none" stroke-width="1px">0.85</text><text x="0" y="269.99999999999994" dx="0em" dy="0.3em" style="text-anchor: end; visibility: inherit; font-family: Roboto, sans-serif; font-size: 12px; font-weight: 200;" fill="rgb(50, 49, 63)" stroke="none" stroke-width="1px">0.86</text><text x="0" y="242.9999999999999" dx="0em" dy="0.3em" style="text-anchor: end; visibility: inherit; font-family: Roboto, sans-serif; font-size: 12px; font-weight: 200;" fill="rgb(50, 49, 63)" stroke="none" stroke-width="1px">0.87</text><text x="0" y="215.99999999999986" dx="0em" dy="0.3em" style="text-anchor: end; visibility: inherit; font-family: Roboto, sans-serif; font-size: 12px; font-weight: 200;" fill="rgb(50, 49, 63)" stroke="none" stroke-width="1px">0.88</text><text x="0" y="188.99999999999983" dx="0em" dy="0.3em" style="text-anchor: end; visibility: inherit; font-family: Roboto, sans-serif; font-size: 12px; font-weight: 200;" fill="rgb(50, 49, 63)" stroke="none" stroke-width="1px">0.89</text><text x="0" y="161.99999999999986" dx="0em" dy="0.3em" style="text-anchor: end; visibility: inherit; font-family: Roboto, sans-serif; font-size: 12px; font-weight: 200;" fill="rgb(50, 49, 63)" stroke="none" stroke-width="1px">0.9</text><text x="0" y="134.9999999999998" dx="0em" dy="0.3em" style="text-anchor: end; visibility: inherit; font-family: Roboto, sans-serif; font-size: 12px; font-weight: 200;" fill="rgb(50, 49, 63)" stroke="none" stroke-width="1px">0.91</text><text x="0" y="107.99999999999979" dx="0em" dy="0.3em" style="text-anchor: end; visibility: inherit; font-family: Roboto, sans-serif; font-size: 12px; font-weight: 200;" fill="rgb(50, 49, 63)" stroke="none" stroke-width="1px">0.92</text><text x="0" y="80.99999999999976" dx="0em" dy="0.3em" style="text-anchor: end; visibility: inherit; font-family: Roboto, sans-serif; font-size: 12px; font-weight: 200;" fill="rgb(50, 49, 63)" stroke="none" stroke-width="1px">0.93</text><text x="0" y="54.00000000000006" dx="0em" dy="0.3em" style="text-anchor: end; visibility: inherit; font-family: Roboto, sans-serif; font-size: 12px; font-weight: 200;" fill="rgb(50, 49, 63)" stroke="none" stroke-width="1px">0.94</text><text x="0" y="27.00000000000003" dx="0em" dy="0.3em" style="text-anchor: end; visibility: inherit; font-family: Roboto, sans-serif; font-size: 12px; font-weight: 200;" fill="rgb(50, 49, 63)" stroke="none" stroke-width="1px">0.95</text><text x="0" y="0" dx="0em" dy="0.3em" style="text-anchor: end; visibility: hidden; font-family: Roboto, sans-serif; font-size: 12px; font-weight: 200;" fill="rgb(50, 49, 63)" stroke="none" stroke-width="1px">0.96</text></g><line x1="50" y1="0" x2="50" y2="378" fill="rgb(0, 0, 0)" stroke="rgb(204, 204, 204)" stroke-width="1px"></line></g></g><g transform="translate(50, 0)" clip-path="url(#clip_0)"><clipPath id="clip_0"><rect width="722" height="378"></rect></clipPath><g><g><g><line x1="0" y1="0" x2="0" y2="378" fill="rgb(0, 0, 0)" stroke="rgb(60, 60, 60)" stroke-width="1px" opacity="0.25"></line><line x1="60.23333333333333" y1="0" x2="60.23333333333333" y2="378" fill="rgb(0, 0, 0)" stroke="rgb(60, 60, 60)" stroke-width="1px" opacity="0.25"></line><line x1="120.46666666666665" y1="0" x2="120.46666666666665" y2="378" fill="rgb(0, 0, 0)" stroke="rgb(60, 60, 60)" stroke-width="1px" opacity="0.25"></line><line x1="180.7" y1="0" x2="180.7" y2="378" fill="rgb(0, 0, 0)" stroke="rgb(60, 60, 60)" stroke-width="1px" opacity="0.25"></line><line x1="240.9333333333333" y1="0" x2="240.9333333333333" y2="378" fill="rgb(0, 0, 0)" stroke="rgb(60, 60, 60)" stroke-width="1px" opacity="0.25"></line><line x1="301.1666666666667" y1="0" x2="301.1666666666667" y2="378" fill="rgb(0, 0, 0)" stroke="rgb(60, 60, 60)" stroke-width="1px" opacity="0.25"></line><line x1="361.4" y1="0" x2="361.4" y2="378" fill="rgb(0, 0, 0)" stroke="rgb(60, 60, 60)" stroke-width="1px" opacity="0.25"></line><line x1="421.6333333333333" y1="0" x2="421.6333333333333" y2="378" fill="rgb(0, 0, 0)" stroke="rgb(60, 60, 60)" stroke-width="1px" opacity="0.25"></line><line x1="481.8666666666666" y1="0" x2="481.8666666666666" y2="378" fill="rgb(0, 0, 0)" stroke="rgb(60, 60, 60)" stroke-width="1px" opacity="0.25"></line><line x1="542.0999999999999" y1="0" x2="542.0999999999999" y2="378" fill="rgb(0, 0, 0)" stroke="rgb(60, 60, 60)" stroke-width="1px" opacity="0.25"></line><line x1="602.3333333333334" y1="0" x2="602.3333333333334" y2="378" fill="rgb(0, 0, 0)" stroke="rgb(60, 60, 60)" stroke-width="1px" opacity="0.25"></line><line x1="662.5666666666666" y1="0" x2="662.5666666666666" y2="378" fill="rgb(0, 0, 0)" stroke="rgb(60, 60, 60)" stroke-width="1px" opacity="0.25"></line><line x1="722.8" y1="0" x2="722.8" y2="378" fill="rgb(0, 0, 0)" stroke="rgb(60, 60, 60)" stroke-width="1px" opacity="0.25"></line></g><g><line x1="0" y1="378" x2="722.8" y2="378" fill="rgb(0, 0, 0)" stroke="rgb(60, 60, 60)" stroke-width="1px" opacity="0.25"></line><line x1="0" y1="350.99999999999994" x2="722.8" y2="350.99999999999994" fill="rgb(0, 0, 0)" stroke="rgb(60, 60, 60)" stroke-width="1px" opacity="0.25"></line><line x1="0" y1="323.99999999999994" x2="722.8" y2="323.99999999999994" fill="rgb(0, 0, 0)" stroke="rgb(60, 60, 60)" stroke-width="1px" opacity="0.25"></line><line x1="0" y1="296.99999999999994" x2="722.8" y2="296.99999999999994" fill="rgb(0, 0, 0)" stroke="rgb(60, 60, 60)" stroke-width="1px" opacity="0.25"></line><line x1="0" y1="269.99999999999994" x2="722.8" y2="269.99999999999994" fill="rgb(0, 0, 0)" stroke="rgb(60, 60, 60)" stroke-width="1px" opacity="0.25"></line><line x1="0" y1="242.9999999999999" x2="722.8" y2="242.9999999999999" fill="rgb(0, 0, 0)" stroke="rgb(60, 60, 60)" stroke-width="1px" opacity="0.25"></line><line x1="0" y1="215.99999999999986" x2="722.8" y2="215.99999999999986" fill="rgb(0, 0, 0)" stroke="rgb(60, 60, 60)" stroke-width="1px" opacity="0.25"></line><line x1="0" y1="188.99999999999983" x2="722.8" y2="188.99999999999983" fill="rgb(0, 0, 0)" stroke="rgb(60, 60, 60)" stroke-width="1px" opacity="0.25"></line><line x1="0" y1="161.99999999999986" x2="722.8" y2="161.99999999999986" fill="rgb(0, 0, 0)" stroke="rgb(60, 60, 60)" stroke-width="1px" opacity="0.25"></line><line x1="0" y1="134.9999999999998" x2="722.8" y2="134.9999999999998" fill="rgb(0, 0, 0)" stroke="rgb(60, 60, 60)" stroke-width="1px" opacity="0.25"></line><line x1="0" y1="107.99999999999979" x2="722.8" y2="107.99999999999979" fill="rgb(0, 0, 0)" stroke="rgb(60, 60, 60)" stroke-width="1px" opacity="0.25"></line><line x1="0" y1="80.99999999999976" x2="722.8" y2="80.99999999999976" fill="rgb(0, 0, 0)" stroke="rgb(60, 60, 60)" stroke-width="1px" opacity="0.25"></line><line x1="0" y1="54.00000000000006" x2="722.8" y2="54.00000000000006" fill="rgb(0, 0, 0)" stroke="rgb(60, 60, 60)" stroke-width="1px" opacity="0.25"></line><line x1="0" y1="27.00000000000003" x2="722.8" y2="27.00000000000003" fill="rgb(0, 0, 0)" stroke="rgb(60, 60, 60)" stroke-width="1px" opacity="0.25"></line><line x1="0" y1="0" x2="722.8" y2="0" fill="rgb(0, 0, 0)" stroke="rgb(60, 60, 60)" stroke-width="1px" opacity="0.25"></line></g></g></g><g><g><line x1="0" y1="2591.9999999999995" x2="722.8" y2="2591.9999999999995" fill="rgb(0, 0, 0)" stroke="rgb(153, 153, 153)" stroke-width="1.5px"></line></g></g><g><g><line x1="60.23333333333333" y1="0" x2="60.23333333333333" y2="378" fill="rgb(0, 0, 0)" stroke="rgb(153, 153, 153)" stroke-width="1.5px"></line></g></g><g><g><g><g><g><path stroke="rgb(187, 187, 187)" stroke-width="2px" d="M60.23333333333333,498.77554607391346L72.28,247.00897765159593L84.32666666666667,165.1998860836028L96.37333333333332,125.95568132400504L108.41999999999999,99.99420475959766L120.46666666666665,94.2585690021514L132.51333333333332,77.35324931144703L144.56,74.33447670936576L156.60666666666665,69.50440835952747L168.65333333333334,67.08945465087879L180.7,64.97624945640554L192.74666666666664,60.74999999999991L204.79333333333332,64.97624945640554L216.83999999999997,60.14618110656729L228.88666666666663,56.22184109687793L240.9333333333333,55.91993165016162L252.97999999999996,57.7312273979186L265.02666666666664,53.20306849479667L277.0733333333333,57.42931795120229L289.12,57.127408504485985L301.1666666666667,56.52375054359424L313.2133333333333,57.127408504485985L325.26,57.7312273979186L337.3066666666667,53.80672645568838L349.3533333333333,59.24061369895924L361.4,52.29734015464774L373.44666666666666,56.22184109687793L385.4933333333333,54.108635902404686L397.54,52.29734015464774L409.58666666666664,53.80672645568838L421.6333333333333,55.316112756729005L433.67999999999995,53.20306849479667L445.7266666666667,53.20306849479667L457.77333333333326,56.82565999031055L469.82,54.108635902404686L481.8666666666666,54.7124547958373L493.9133333333333,57.42931795120229L505.9599999999999,58.03313684463491L518.0066666666667,51.995591640472306L530.0533333333333,51.995591640472306L542.0999999999999,55.316112756729005L554.1466666666666,60.4480905532836L566.1933333333333,54.7124547958373L578.24,55.316112756729005L590.2866666666666,51.08986330032338L602.3333333333334,52.29734015464774L614.38,55.316112756729005L626.4266666666666,49.278567552566436L638.4733333333332,50.18429589271536L650.52,53.504977941512976" style="fill: none;" fill="none"></path></g><g><path stroke="rgb(255, 112, 67)" stroke-width="2px" d="M60.23333333333333,521.4163405895231L72.28,298.63018226623524L84.32666666666667,235.23563575744615L96.37333333333332,208.36859178543077L108.41999999999999,196.8971593379973L120.46666666666665,187.84084153175343L132.51333333333332,177.87879538536063L144.56,178.48261427879325L156.60666666666665,169.4261355400084L168.65333333333334,176.97322797775257L180.7,175.1619322299956L192.74666666666664,173.95445537567127L204.79333333333332,165.5017955303191L216.83999999999997,177.87879538536063L228.88666666666663,176.97322797775257L240.9333333333333,170.33186388015733L252.97999999999996,174.558113336563L265.02666666666664,176.36940908431995L277.0733333333333,166.70927238464347L289.12,172.74681758880604L301.1666666666667,170.02995443344102L313.2133333333333,165.5017955303191L325.26,170.93552184104908L337.3066666666667,170.63377332687364L349.3533333333333,168.8224775791167L361.4,173.65254592895496L373.44666666666666,174.8600227832793L385.4933333333333,167.3130912780761L397.54,173.95445537567127L409.58666666666664,172.14315962791432L421.6333333333333,174.8600227832793L433.67999999999995,170.02995443344102L445.7266666666667,172.44506907463062L457.77333333333326,169.7280449867247L469.82,171.5393407344817L481.8666666666666,172.44506907463062L493.9133333333333,169.12438702583302L505.9599999999999,174.2562038898467L518.0066666666667,169.7280449867247L530.0533333333333,173.95445537567127L542.0999999999999,170.93552184104908L554.1466666666666,178.18070483207694L566.1933333333333,169.7280449867247L578.24,166.10561442375172L590.2866666666666,175.1619322299956L602.3333333333334,168.2186586856841L614.38,176.97322797775257L626.4266666666666,172.14315962791432L638.4733333333332,172.44506907463062L650.52,174.558113336563" style="fill: none;" fill="none"></path></g><g><path stroke="rgb(204, 51, 17)" stroke-width="2px" d="M60.23333333333333,513.2655901908873L72.28,227.68870425224293L84.32666666666667,136.52154636383045L96.37333333333332,108.14495515823351L108.41999999999999,93.35284066200248L120.46666666666665,82.18331766128532L132.51333333333332,73.4289093017577L144.56,74.93829560279838L156.60666666666665,77.35324931144703L168.65333333333334,73.4289093017577L180.7,69.50440835952747L192.74666666666664,69.20265984535207L204.79333333333332,67.69327354431141L216.83999999999997,67.08945465087879L228.88666666666663,64.67434000968923L240.9333333333333,67.08945465087879L252.97999999999996,65.27815890312185L265.02666666666664,65.58006834983816L277.0733333333333,69.80631780624378L289.12,68.29693150520315L301.1666666666667,67.3913640975951L313.2133333333333,73.12699985504139L325.26,66.48563575744618L337.3066666666667,68.29693150520315L349.3533333333333,67.3913640975951L361.4,69.80631780624378L373.44666666666666,69.80631780624378L385.4933333333333,63.164953708648596L397.54,72.22143244743339L409.58666666666664,67.69327354431141L421.6333333333333,66.78754520416248L433.67999999999995,70.10822725296009L445.7266666666667,67.99502205848684L457.77333333333326,68.59884095191946L469.82,64.37259149551383L481.8666666666666,71.91952300071708L493.9133333333333,70.4101366996764L505.9599999999999,65.88197779655447L518.0066666666667,66.78754520416248L530.0533333333333,68.59884095191946L542.0999999999999,66.18388724327077L554.1466666666666,71.31570410728446L566.1933333333333,66.78754520416248L578.24,64.37259149551383L590.2866666666666,64.97624945640554L602.3333333333334,62.56129574775685L614.38,70.4101366996764L626.4266666666666,70.4101366996764L638.4733333333332,67.69327354431141L650.52,63.768772602081214" style="fill: none;" fill="none"></path></g><g><path stroke="rgb(0, 119, 187)" stroke-width="2px" d="M60.23333333333333,527.7557952404021L72.28,286.25318241119373L84.32666666666667,227.68870425224293L96.37333333333332,191.46327209472642L108.41999999999999,166.70927238464347L120.46666666666665,148.89854621887199L132.51333333333332,132.29513597488392L144.56,129.27636337280262L156.60666666666665,118.10684037208544L168.65333333333334,110.55990886688221L180.7,106.03174996376026L192.74666666666664,101.80550050735464L204.79333333333332,96.67352271080004L216.83999999999997,94.56031751632679L228.88666666666663,84.59843230247486L240.9333333333333,92.14536380767811L252.97999999999996,88.22086286544788L265.02666666666664,85.20209026336661L277.0733333333333,85.20209026336661L289.12,83.39095544815055L301.1666666666667,84.90034174919117L313.2133333333333,80.37202191352833L325.26,81.57965970039356L337.3066666666667,80.07027339935293L349.3533333333333,79.76836395263662L361.4,81.881408214569L373.44666666666666,76.44768190383901L385.4933333333333,79.46645450592031L397.54,79.46645450592031L409.58666666666664,76.44768190383901L421.6333333333333,79.164545059204L433.67999999999995,77.35324931144703L445.7266666666667,74.03256726264945L457.77333333333326,74.03256726264945L469.82,71.91952300071708L481.8666666666666,76.74959135055532L493.9133333333333,78.25897765159596L505.9599999999999,78.56088709831226L518.0066666666667,73.4289093017577L530.0533333333333,80.37202191352833L542.0999999999999,72.52318096160877L554.1466666666666,74.03256726264945L566.1933333333333,77.35324931144703L578.24,73.73081874847401L590.2866666666666,76.74959135055532L602.3333333333334,72.52318096160877L614.38,71.91952300071708L626.4266666666666,75.8438630104064L638.4733333333332,75.8438630104064L650.52,73.12699985504139" style="fill: none;" fill="none"></path></g><g><path stroke="rgb(238, 51, 119)" stroke-width="2px" d="M60.23333333333333,604.734818458557L72.28,304.3658180236815L84.32666666666667,202.0291371345519L96.37333333333332,142.55909156799305L108.41999999999999,107.23922681808459L120.46666666666665,90.93788695335378L132.51333333333332,85.20209026336661L144.56,80.67393136024464L156.60666666666665,78.56088709831226L168.65333333333334,71.91952300071708L180.7,74.33447670936576L192.74666666666664,71.61761355400077L204.79333333333332,75.542114496231L216.83999999999997,70.71204614639271L228.88666666666663,68.90075039863576L240.9333333333333,78.25897765159596L252.97999999999996,72.82509040832508L265.02666666666664,71.61761355400077L277.0733333333333,68.59884095191946L289.12,62.25938630104054L301.1666666666667,73.73081874847401L313.2133333333333,68.59884095191946L325.26,66.48563575744618L337.3066666666667,65.27815890312185L349.3533333333333,69.50440835952747L361.4,71.31570410728446L373.44666666666666,72.82509040832508L385.4933333333333,70.10822725296009L397.54,65.88197779655447L409.58666666666664,68.59884095191946L421.6333333333333,67.99502205848684L433.67999999999995,72.52318096160877L445.7266666666667,67.69327354431141L457.77333333333326,68.59884095191946L469.82,65.27815890312185L481.8666666666666,68.59884095191946L493.9133333333333,73.4289093017577L505.9599999999999,68.59884095191946L518.0066666666667,65.58006834983816L530.0533333333333,69.20265984535207L542.0999999999999,67.99502205848684L554.1466666666666,71.91952300071708L566.1933333333333,71.31570410728446L578.24,68.59884095191946L590.2866666666666,71.31570410728446L602.3333333333334,67.99502205848684L614.38,71.91952300071708L626.4266666666666,72.22143244743339L638.4733333333332,68.59884095191946L650.52,69.50440835952747" style="fill: none;" fill="none"></path></g></g></g></g></g></g><g transform="translate(50, 378)" clip-path="url(#clip_1)"><clipPath id="clip_1"><rect width="722" height="22"></rect></clipPath><g><g><line x1="0" y1="0" x2="0" y2="5" style="visibility: inherit;" fill="rgb(0, 0, 0)" stroke="rgb(204, 204, 204)" stroke-width="1px"></line><line x1="60.23333333333333" y1="0" x2="60.23333333333333" y2="5" style="visibility: inherit;" fill="rgb(0, 0, 0)" stroke="rgb(204, 204, 204)" stroke-width="1px"></line><line x1="120.46666666666665" y1="0" x2="120.46666666666665" y2="5" style="visibility: inherit;" fill="rgb(0, 0, 0)" stroke="rgb(204, 204, 204)" stroke-width="1px"></line><line x1="180.7" y1="0" x2="180.7" y2="5" style="visibility: inherit;" fill="rgb(0, 0, 0)" stroke="rgb(204, 204, 204)" stroke-width="1px"></line><line x1="240.9333333333333" y1="0" x2="240.9333333333333" y2="5" style="visibility: inherit;" fill="rgb(0, 0, 0)" stroke="rgb(204, 204, 204)" stroke-width="1px"></line><line x1="301.1666666666667" y1="0" x2="301.1666666666667" y2="5" style="visibility: inherit;" fill="rgb(0, 0, 0)" stroke="rgb(204, 204, 204)" stroke-width="1px"></line><line x1="361.4" y1="0" x2="361.4" y2="5" style="visibility: inherit;" fill="rgb(0, 0, 0)" stroke="rgb(204, 204, 204)" stroke-width="1px"></line><line x1="421.6333333333333" y1="0" x2="421.6333333333333" y2="5" style="visibility: inherit;" fill="rgb(0, 0, 0)" stroke="rgb(204, 204, 204)" stroke-width="1px"></line><line x1="481.8666666666666" y1="0" x2="481.8666666666666" y2="5" style="visibility: inherit;" fill="rgb(0, 0, 0)" stroke="rgb(204, 204, 204)" stroke-width="1px"></line><line x1="542.0999999999999" y1="0" x2="542.0999999999999" y2="5" style="visibility: inherit;" fill="rgb(0, 0, 0)" stroke="rgb(204, 204, 204)" stroke-width="1px"></line><line x1="602.3333333333334" y1="0" x2="602.3333333333334" y2="5" style="visibility: inherit;" fill="rgb(0, 0, 0)" stroke="rgb(204, 204, 204)" stroke-width="1px"></line><line x1="662.5666666666666" y1="0" x2="662.5666666666666" y2="5" style="visibility: inherit;" fill="rgb(0, 0, 0)" stroke="rgb(204, 204, 204)" stroke-width="1px"></line><line x1="722.8" y1="0" x2="722.8" y2="5" style="visibility: inherit;" fill="rgb(0, 0, 0)" stroke="rgb(204, 204, 204)" stroke-width="1px"></line></g><g transform="translate(0, 8)"><text x="0" y="0" dx="0em" dy="0.95em" style="text-anchor: middle; visibility: hidden; font-family: Roboto, sans-serif; font-size: 12px; font-weight: 200;" fill="rgb(50, 49, 63)" stroke="none" stroke-width="1px">-5</text><text x="60.23333333333333" y="0" dx="0em" dy="0.95em" style="text-anchor: middle; visibility: inherit; font-family: Roboto, sans-serif; font-size: 12px; font-weight: 200;" fill="rgb(50, 49, 63)" stroke="none" stroke-width="1px">0</text><text x="120.46666666666665" y="0" dx="0em" dy="0.95em" style="text-anchor: middle; visibility: inherit; font-family: Roboto, sans-serif; font-size: 12px; font-weight: 200;" fill="rgb(50, 49, 63)" stroke="none" stroke-width="1px">5</text><text x="180.7" y="0" dx="0em" dy="0.95em" style="text-anchor: middle; visibility: inherit; font-family: Roboto, sans-serif; font-size: 12px; font-weight: 200;" fill="rgb(50, 49, 63)" stroke="none" stroke-width="1px">10</text><text x="240.9333333333333" y="0" dx="0em" dy="0.95em" style="text-anchor: middle; visibility: inherit; font-family: Roboto, sans-serif; font-size: 12px; font-weight: 200;" fill="rgb(50, 49, 63)" stroke="none" stroke-width="1px">15</text><text x="301.1666666666667" y="0" dx="0em" dy="0.95em" style="text-anchor: middle; visibility: inherit; font-family: Roboto, sans-serif; font-size: 12px; font-weight: 200;" fill="rgb(50, 49, 63)" stroke="none" stroke-width="1px">20</text><text x="361.4" y="0" dx="0em" dy="0.95em" style="text-anchor: middle; visibility: inherit; font-family: Roboto, sans-serif; font-size: 12px; font-weight: 200;" fill="rgb(50, 49, 63)" stroke="none" stroke-width="1px">25</text><text x="421.6333333333333" y="0" dx="0em" dy="0.95em" style="text-anchor: middle; visibility: inherit; font-family: Roboto, sans-serif; font-size: 12px; font-weight: 200;" fill="rgb(50, 49, 63)" stroke="none" stroke-width="1px">30</text><text x="481.8666666666666" y="0" dx="0em" dy="0.95em" style="text-anchor: middle; visibility: inherit; font-family: Roboto, sans-serif; font-size: 12px; font-weight: 200;" fill="rgb(50, 49, 63)" stroke="none" stroke-width="1px">35</text><text x="542.0999999999999" y="0" dx="0em" dy="0.95em" style="text-anchor: middle; visibility: inherit; font-family: Roboto, sans-serif; font-size: 12px; font-weight: 200;" fill="rgb(50, 49, 63)" stroke="none" stroke-width="1px">40</text><text x="602.3333333333334" y="0" dx="0em" dy="0.95em" style="text-anchor: middle; visibility: inherit; font-family: Roboto, sans-serif; font-size: 12px; font-weight: 200;" fill="rgb(50, 49, 63)" stroke="none" stroke-width="1px">45</text><text x="662.5666666666666" y="0" dx="0em" dy="0.95em" style="text-anchor: middle; visibility: inherit; font-family: Roboto, sans-serif; font-size: 12px; font-weight: 200;" fill="rgb(50, 49, 63)" stroke="none" stroke-width="1px">50</text><text x="722.8" y="0" dx="0em" dy="0.95em" style="text-anchor: middle; visibility: hidden; font-family: Roboto, sans-serif; font-size: 12px; font-weight: 200;" fill="rgb(50, 49, 63)" stroke="none" stroke-width="1px">55</text></g><line x1="0" y1="0" x2="722.8" y2="0" fill="rgb(0, 0, 0)" stroke="rgb(204, 204, 204)" stroke-width="1px"></line></g></g></g></g></svg>