<svg viewBox="0 0 789.6000366210938 400" xmlns="http://www.w3.org/2000/svg"><g><g><g><g><g><line x1="30.78125" y1="345.41813459053776" x2="25.78125" y2="345.41813459053776" style="visibility: inherit;" fill="rgb(0, 0, 0)" stroke="rgb(204, 204, 204)" stroke-width="1px"></line><line x1="30.78125" y1="296.51677382655225" x2="25.78125" y2="296.51677382655225" style="visibility: inherit;" fill="rgb(0, 0, 0)" stroke="rgb(204, 204, 204)" stroke-width="1px"></line><line x1="30.78125" y1="247.61541306256674" x2="25.78125" y2="247.61541306256674" style="visibility: inherit;" fill="rgb(0, 0, 0)" stroke="rgb(204, 204, 204)" stroke-width="1px"></line><line x1="30.78125" y1="198.7140522985813" x2="25.78125" y2="198.7140522985813" style="visibility: inherit;" fill="rgb(0, 0, 0)" stroke="rgb(204, 204, 204)" stroke-width="1px"></line><line x1="30.78125" y1="149.81269153459576" x2="25.78125" y2="149.81269153459576" style="visibility: inherit;" fill="rgb(0, 0, 0)" stroke="rgb(204, 204, 204)" stroke-width="1px"></line><line x1="30.78125" y1="100.91133077061026" x2="25.78125" y2="100.91133077061026" style="visibility: inherit;" fill="rgb(0, 0, 0)" stroke="rgb(204, 204, 204)" stroke-width="1px"></line><line x1="30.78125" y1="52.00997000662477" x2="25.78125" y2="52.00997000662477" style="visibility: inherit;" fill="rgb(0, 0, 0)" stroke="rgb(204, 204, 204)" stroke-width="1px"></line><line x1="30.78125" y1="3.108609242639277" x2="25.78125" y2="3.108609242639277" style="visibility: inherit;" fill="rgb(0, 0, 0)" stroke="rgb(204, 204, 204)" stroke-width="1px"></line></g><g transform="translate(20.78125, 0)"><text x="0" y="345.41813459053776" dx="0em" dy="0.3em" style="text-anchor: end; visibility: inherit; font-family: Roboto, sans-serif; font-size: 12px; font-weight: 200;" fill="rgb(50, 49, 63)" stroke="none" stroke-width="1px">0</text><text x="0" y="296.51677382655225" dx="0em" dy="0.3em" style="text-anchor: end; visibility: inherit; font-family: Roboto, sans-serif; font-size: 12px; font-weight: 200;" fill="rgb(50, 49, 63)" stroke="none" stroke-width="1px">2</text><text x="0" y="247.61541306256674" dx="0em" dy="0.3em" style="text-anchor: end; visibility: inherit; font-family: Roboto, sans-serif; font-size: 12px; font-weight: 200;" fill="rgb(50, 49, 63)" stroke="none" stroke-width="1px">4</text><text x="0" y="198.7140522985813" dx="0em" dy="0.3em" style="text-anchor: end; visibility: inherit; font-family: Roboto, sans-serif; font-size: 12px; font-weight: 200;" fill="rgb(50, 49, 63)" stroke="none" stroke-width="1px">6</text><text x="0" y="149.81269153459576" dx="0em" dy="0.3em" style="text-anchor: end; visibility: inherit; font-family: Roboto, sans-serif; font-size: 12px; font-weight: 200;" fill="rgb(50, 49, 63)" stroke="none" stroke-width="1px">8</text><text x="0" y="100.91133077061026" dx="0em" dy="0.3em" style="text-anchor: end; visibility: inherit; font-family: Roboto, sans-serif; font-size: 12px; font-weight: 200;" fill="rgb(50, 49, 63)" stroke="none" stroke-width="1px">10</text><text x="0" y="52.00997000662477" dx="0em" dy="0.3em" style="text-anchor: end; visibility: inherit; font-family: Roboto, sans-serif; font-size: 12px; font-weight: 200;" fill="rgb(50, 49, 63)" stroke="none" stroke-width="1px">12</text><text x="0" y="3.108609242639277" dx="0em" dy="0.3em" style="text-anchor: end; visibility: hidden; font-family: Roboto, sans-serif; font-size: 12px; font-weight: 200;" fill="rgb(50, 49, 63)" stroke="none" stroke-width="1px">14</text></g><line x1="30.78125" y1="0" x2="30.78125" y2="378" fill="rgb(0, 0, 0)" stroke="rgb(204, 204, 204)" stroke-width="1px"></line></g></g><g transform="translate(30, 0)" clip-path="url(#clip_0)"><clipPath id="clip_0"><rect width="758" height="378"></rect></clipPath><g><g><g><line x1="99.07656976164441" y1="0" x2="99.07656976164441" y2="378" fill="rgb(0, 0, 0)" stroke="rgb(60, 60, 60)" stroke-width="1px" opacity="0.25"></line><line x1="205.4245642120285" y1="0" x2="205.4245642120285" y2="378" fill="rgb(0, 0, 0)" stroke="rgb(60, 60, 60)" stroke-width="1px" opacity="0.25"></line><line x1="311.7725586624127" y1="0" x2="311.7725586624127" y2="378" fill="rgb(0, 0, 0)" stroke="rgb(60, 60, 60)" stroke-width="1px" opacity="0.25"></line><line x1="418.12055311279687" y1="0" x2="418.12055311279687" y2="378" fill="rgb(0, 0, 0)" stroke="rgb(60, 60, 60)" stroke-width="1px" opacity="0.25"></line><line x1="524.4685475631809" y1="0" x2="524.4685475631809" y2="378" fill="rgb(0, 0, 0)" stroke="rgb(60, 60, 60)" stroke-width="1px" opacity="0.25"></line><line x1="630.816542013565" y1="0" x2="630.816542013565" y2="378" fill="rgb(0, 0, 0)" stroke="rgb(60, 60, 60)" stroke-width="1px" opacity="0.25"></line><line x1="737.1645364639492" y1="0" x2="737.1645364639492" y2="378" fill="rgb(0, 0, 0)" stroke="rgb(60, 60, 60)" stroke-width="1px" opacity="0.25"></line></g><g><line x1="0" y1="345.41813459053776" x2="758.81875" y2="345.41813459053776" fill="rgb(0, 0, 0)" stroke="rgb(60, 60, 60)" stroke-width="1px" opacity="0.25"></line><line x1="0" y1="296.51677382655225" x2="758.81875" y2="296.51677382655225" fill="rgb(0, 0, 0)" stroke="rgb(60, 60, 60)" stroke-width="1px" opacity="0.25"></line><line x1="0" y1="247.61541306256674" x2="758.81875" y2="247.61541306256674" fill="rgb(0, 0, 0)" stroke="rgb(60, 60, 60)" stroke-width="1px" opacity="0.25"></line><line x1="0" y1="198.7140522985813" x2="758.81875" y2="198.7140522985813" fill="rgb(0, 0, 0)" stroke="rgb(60, 60, 60)" stroke-width="1px" opacity="0.25"></line><line x1="0" y1="149.81269153459576" x2="758.81875" y2="149.81269153459576" fill="rgb(0, 0, 0)" stroke="rgb(60, 60, 60)" stroke-width="1px" opacity="0.25"></line><line x1="0" y1="100.91133077061026" x2="758.81875" y2="100.91133077061026" fill="rgb(0, 0, 0)" stroke="rgb(60, 60, 60)" stroke-width="1px" opacity="0.25"></line><line x1="0" y1="52.00997000662477" x2="758.81875" y2="52.00997000662477" fill="rgb(0, 0, 0)" stroke="rgb(60, 60, 60)" stroke-width="1px" opacity="0.25"></line><line x1="0" y1="3.108609242639277" x2="758.81875" y2="3.108609242639277" fill="rgb(0, 0, 0)" stroke="rgb(60, 60, 60)" stroke-width="1px" opacity="0.25"></line></g></g></g><g><g><line x1="0" y1="345.41813459053776" x2="758.81875" y2="345.41813459053776" fill="rgb(0, 0, 0)" stroke="rgb(153, 153, 153)" stroke-width="1.5px"></line></g></g><g><g><line x1="99.07656976164441" y1="0" x2="99.07656976164441" y2="378" fill="rgb(0, 0, 0)" stroke="rgb(153, 153, 153)" stroke-width="1.5px"></line></g></g><g><g><g><g><g><path stroke="rgb(255, 112, 67)" stroke-width="2px" d="M99.07656976164441,251.5742649250388L109.71136920668282,245.684100880485L120.34616865172124,248.718540339475L130.98096809675965,234.85329283617622L141.61576754179805,231.99112665700784L152.25056698683647,229.11276613663256L162.8853664318749,220.06836065103641L173.5201658769133,213.96748945640311L184.15496532195172,216.4063176015758L194.78976476699012,205.47636148122461L205.4245642120285,206.30130518635818L216.05936365706697,199.00926965905512L226.69416310210536,189.16701596794L237.32896254714376,158.17666653266718L247.96376199218219,191.18456972086904L258.5985614372206,167.0335487756639L269.233360882259,184.30156664321268L279.86816032729746,163.30381361313857L290.5029597723358,146.30007013877574L301.13775921737425,133.7019686251985L311.7725586624127,145.6543018372898L322.40735810745105,146.76547381933318L333.0421575524895,139.207135234071L343.67695699752795,116.76457647971117L354.3117564425663,122.07503790632728L364.94655588760475,114.9010496826377L375.58135533264317,107.96233993666867L386.2161547776816,107.6625405919657L396.85095422271996,107.8202867665722L407.4857536677584,114.7001185981463L418.12055311279687,119.7361739667034L428.75535255783524,105.18034099302092L439.39015200287366,91.534609008975L450.02495144791203,100.18858979767185L460.65975089295046,102.07475835905319L471.29455033798894,74.3039698728223L481.9293497830273,70.92768874055349L492.56414922806573,78.17090806437707L503.1989486731041,71.38922163545169L513.8337481181425,48.034020230992304L524.4685475631809,56.51283630961614L535.1033470082194,65.83856163609035L545.7381464532577,62.89998241713102L556.3729458982962,56.70700517819681L567.0077453433346,37.72045174989435L577.642544788373,28.219748257234286L588.2773442334113,23.814397771272404L598.9121436784499,21.438015192337108L609.5469431234883,17.394606483498958L620.1817425685266,-0.8998224873504173" style="fill: none;" fill="none"></path></g><g><path stroke="rgb(187, 187, 187)" stroke-width="2px" d="M99.07656976164441,222.9929607374493L109.71136920668282,274.3803860565423L120.34616865172124,285.54160996103946L130.98096809675965,296.1879785663839L141.61576754179805,297.941036405261L152.25056698683647,299.86683096892943L162.8853664318749,306.37108000162897L173.5201658769133,298.5232515361793L184.15496532195172,304.31575985578826L194.78976476699012,307.2631503586691L205.4245642120285,309.95998618831743L216.05936365706697,312.28709494829997L226.69416310210536,308.3753016961203L237.32896254714376,306.68868554331397L247.96376199218219,311.12293867279766L258.5985614372206,311.71541663225975L269.233360882259,312.5780713500884L279.86816032729746,312.99781549950745L290.5029597723358,310.798658357649L301.13775921737425,311.1542634721047L311.7725586624127,313.61097359771367L322.40735810745105,312.4113448361626L333.0421575524895,311.07998985752005L343.67695699752795,313.1634518975925L354.3117564425663,314.68131287169973L364.94655588760475,311.07255142001827L375.58135533264317,307.2390628792355L386.2161547776816,312.3983100820451L396.85095422271996,311.059974281374L407.4857536677584,315.8272578002149L418.12055311279687,310.01365544761217L428.75535255783524,309.9793167986277L439.39015200287366,307.6333583617941L450.02495144791203,310.93312735283183L460.65975089295046,308.77650221725315L471.29455033798894,315.7871537792169L481.9293497830273,313.4894898059283L492.56414922806573,305.54479551230617L503.1989486731041,309.84102073900914L513.8337481181425,315.23041354789325L524.4685475631809,313.4589315854077L535.1033470082194,312.71323405535173L545.7381464532577,304.8205796767597L556.3729458982962,308.34235921154146L567.0077453433346,312.25221124139506L577.642544788373,308.177343654831L588.2773442334113,303.4973714194405L598.9121436784499,303.3221396701581L609.5469431234883,316.4584552752622L620.1817425685266,311.9879922284257" style="fill: none;" fill="none"></path></g><g><path stroke="rgb(0, 153, 136)" stroke-width="2px" d="M99.07656976164441,333.5616200833147L109.71136920668282,331.82087924180166L120.34616865172124,332.06591775399505L130.98096809675965,331.75865811117853L141.61576754179805,332.37904769976166L152.25056698683647,332.4462282745107L162.8853664318749,329.224065912667L173.5201658769133,328.31864017920316L184.15496532195172,326.7342646503192L194.78976476699012,328.53671435545266L205.4245642120285,326.3711147100511L216.05936365706697,327.2174730704846L226.69416310210536,326.487669662567L237.32896254714376,326.3674406698978L247.96376199218219,325.18452798948806L258.5985614372206,325.3207531204839L269.233360882259,323.6752174293352L279.86816032729746,323.4894226324405L290.5029597723358,322.38423317115434L301.13775921737425,322.6545483800622L311.7725586624127,321.5448541753752L322.40735810745105,321.0079313173174L333.0421575524895,318.368696742336L343.67695699752795,320.78524455198226L354.3117564425663,319.3782576860764L364.94655588760475,319.3052461574785L375.58135533264317,317.64152826682505L386.2161547776816,318.6637858538874L396.85095422271996,318.78259973628735L407.4857536677584,318.0840774064533L418.12055311279687,317.1938579145438L428.75535255783524,315.38848617430233L439.39015200287366,317.67013652077486L450.02495144791203,316.64105842283703L460.65975089295046,315.3661475438111L471.29455033798894,313.17859401468564L481.9293497830273,312.4068852713594L492.56414922806573,312.83166902048083L503.1989486731041,313.906540727976L513.8337481181425,312.54119395538925L524.4685475631809,311.7551737982175L535.1033470082194,309.7582797807949L545.7381464532577,313.2059897333687L556.3729458982962,310.60657353405804L567.0077453433346,310.0350701029121L577.642544788373,310.2495081307354L588.2773442334113,310.6283641918806L598.9121436784499,309.4974127282985L609.5469431234883,308.6124835044398L620.1817425685266,308.06857690960527" style="fill: none;" fill="none"></path></g><g><path stroke="rgb(238, 51, 119)" stroke-width="2px" d="M99.07656976164441,330.65325733064515L109.71136920668282,338.2306897029233L120.34616865172124,339.8172126725712L130.98096809675965,340.4555614824189L141.61576754179805,341.29661900883923L152.25056698683647,341.19900445471325L162.8853664318749,341.4808558728011L173.5201658769133,341.64452627320003L184.15496532195172,342.26775847000164L194.78976476699012,342.15370473581686L205.4245642120285,341.8326299150423L216.05936365706697,341.6058996652149L226.69416310210536,342.5485973774206L237.32896254714376,341.9011658477217L247.96376199218219,341.80161444339194L258.5985614372206,342.2654529041459L269.233360882259,342.1531702438588L279.86816032729746,342.46468305086904L290.5029597723358,342.4230686437688L301.13775921737425,341.9059711745345L311.7725586624127,342.1714752271331L322.40735810745105,341.39394099511094L333.0421575524895,341.7244042199581L343.67695699752795,342.01748652734807L354.3117564425663,342.30230297308043L364.94655588760475,341.9704362969569L375.58135533264317,342.511077280735L386.2161547776816,342.2022629840774L396.85095422271996,342.134655034368L407.4857536677584,342.06707368173636L418.12055311279687,342.4270789729999L428.75535255783524,341.7769236110732L439.39015200287366,342.2271913683775L450.02495144791203,341.83401332742443L460.65975089295046,341.87011722081013L471.29455033798894,342.0252543314007L481.9293497830273,342.7154381130429L492.56414922806573,342.0404966429645L503.1989486731041,342.25671230286906L513.8337481181425,341.71425579528267L524.4685475631809,341.94164878599054L535.1033470082194,341.86715182882216L545.7381464532577,341.9379452340114L556.3729458982962,342.3304517898393L567.0077453433346,342.02310142548384L577.642544788373,341.79039375570864L588.2773442334113,341.6489300934432L598.9121436784499,341.94481238085865L609.5469431234883,342.0414107808804L620.1817425685266,342.2747057724255" style="fill: none;" fill="none"></path></g><g><path stroke="rgb(0, 119, 187)" stroke-width="2px" d="M99.07656976164441,335.5744220679298L109.71136920668282,337.1573460521916L120.34616865172124,337.9657682356287L130.98096809675965,338.3781839792919L141.61576754179805,338.702924095975L152.25056698683647,338.95809500172857L162.8853664318749,339.0852414206521L173.5201658769133,339.12528131718886L184.15496532195172,339.23496766548345L194.78976476699012,339.1405458537079L205.4245642120285,339.14404792371516L216.05936365706697,339.15714461623276L226.69416310210536,339.06460500313153L237.32896254714376,338.9232870782779L247.96376199218219,338.86333872259286L258.5985614372206,338.82181303314206L269.233360882259,338.82577490468367L279.86816032729746,338.65213898006124L290.5029597723358,338.6932872096152L301.13775921737425,338.54553060590524L311.7725586624127,338.4330810762816L322.40735810745105,338.36548004909935L333.0421575524895,338.2527827658755L343.67695699752795,338.1525941247124L354.3117564425663,337.9712137140232L364.94655588760475,337.88930783117894L375.58135533264317,337.8089883000629L386.2161547776816,337.6377009338326L396.85095422271996,337.55833452539025L407.4857536677584,337.5104248086125L418.12055311279687,337.3962912831948L428.75535255783524,337.2735891266462L439.39015200287366,337.27715459242756L450.02495144791203,337.03551759142715L460.65975089295046,336.9570700573666L471.29455033798894,336.93362455123224L481.9293497830273,336.8498998654879L492.56414922806573,336.8487937185318L503.1989486731041,336.6306146113458L513.8337481181425,336.5233030541776L524.4685475631809,336.343477661673L535.1033470082194,336.3098174203408L545.7381464532577,336.05202032642535L556.3729458982962,335.9990214592252L567.0077453433346,335.91217580680575L577.642544788373,335.8529641537376L588.2773442334113,335.7815921710233L598.9121436784499,335.63819530198936L609.5469431234883,335.531851441236L620.1817425685266,335.48964661544585" style="fill: none;" fill="none"></path></g><g><path stroke="rgb(255, 112, 67)" stroke-width="2px" d="M99.07656976164441,329.062482472006L109.71136920668282,337.48691882145226L120.34616865172124,339.4287390352733L130.98096809675965,340.4684723597363L141.61576754179805,341.1706650862883L152.25056698683647,341.73076201455086L162.8853664318749,342.1371176322851L173.5201658769133,342.38851630730414L184.15496532195172,342.65993292670225L194.78976476699012,342.8409021757182L205.4245642120285,343.03988092540584L216.05936365706697,343.18721816971316L226.69416310210536,343.2971662988339L237.32896254714376,343.40833971524484L247.96376199218219,343.4894801123332L258.5985614372206,343.534426623184L269.233360882259,343.6854206013269L279.86816032729746,343.7567095137165L290.5029597723358,343.78972778174943L301.13775921737425,343.84256087264356L311.7725586624127,343.9312643127209L322.40735810745105,343.987557756288L333.0421575524895,343.85551474249746L343.67695699752795,344.132825347175L354.3117564425663,343.9752575187263L364.94655588760475,343.99301607779194L375.58135533264317,344.0985679467977L386.2161547776816,343.98088853906324L396.85095422271996,344.0333796935548L407.4857536677584,344.055272094308L418.12055311279687,344.1224614133018L428.75535255783524,344.06709558836116L439.39015200287366,344.08604354687935L450.02495144791203,344.05482704868655L460.65975089295046,344.10923301059825L471.29455033798894,344.1342222402678L481.9293497830273,344.22164273569126L492.56414922806573,344.18325932701214L503.1989486731041,344.2321353739164L513.8337481181425,344.2240322827306L524.4685475631809,344.1382461412954L535.1033470082194,344.23383540082585L545.7381464532577,344.1545989719376L556.3729458982962,344.1927083031965L567.0077453433346,344.11000751385643L577.642544788373,344.1301577149367L588.2773442334113,344.20838618745006L598.9121436784499,344.0948532823409L609.5469431234883,344.0690042930272L620.1817425685266,344.2441886776508" style="fill: none;" fill="none"></path></g><g><path stroke="rgb(51, 187, 238)" stroke-width="2px" d="M99.07656976164441,318.44427616413105L109.71136920668282,328.05438181713254L120.34616865172124,331.3942446275495L130.98096809675965,333.0964882030304L141.61576754179805,334.14098677651805L152.25056698683647,334.86576297241317L162.8853664318749,335.412852472323L173.5201658769133,335.84801491123056L184.15496532195172,336.20000573787195L194.78976476699012,336.49963675586423L205.4245642120285,336.7635912554311L216.05936365706697,336.9913183491557L226.69416310210536,337.1920053234822L237.32896254714376,337.3678469838333L247.96376199218219,337.5413655898393L258.5985614372206,337.68717951384906L269.233360882259,337.8257320713125L279.86816032729746,337.9587218317649L290.5029597723358,338.07995932732416L301.13775921737425,338.1933962279132L311.7725586624127,338.2943580060463L322.40735810745105,338.3902736262935L333.0421575524895,338.48532065156587L343.67695699752795,338.5728862468L354.3117564425663,338.65271318546394L364.94655588760475,338.73795354029176L375.58135533264317,338.805701033573L386.2161547776816,338.86550583790734L396.85095422271996,338.937568615954L407.4857536677584,339.0000943377679L418.12055311279687,339.05422558465824L428.75535255783524,339.10816664422606L439.39015200287366,339.1726853251473L450.02495144791203,339.22644348426326L460.65975089295046,339.2791355742114L471.29455033798894,339.3162960638332L481.9293497830273,339.37361094448573L492.56414922806573,339.4122062189274L503.1989486731041,339.45033804839926L513.8337481181425,339.4978018086966L524.4685475631809,339.54173835928316L535.1033470082194,339.57267914050993L545.7381464532577,339.6098950103482L556.3729458982962,339.6461781607505L567.0077453433346,339.66944914633416L577.642544788373,339.7008537368742L588.2773442334113,339.73558514818365L598.9121436784499,339.767123452799L609.5469431234883,339.7936768092415L620.1817425685266,339.82328336446255" style="fill: none;" fill="none"></path></g><g><path stroke="rgb(204, 51, 17)" stroke-width="2px" d="M99.07656976164441,301.15264300636306L109.71136920668282,323.7015230321775L120.34616865172124,329.58801595132627L130.98096809675965,332.19426723525356L141.61576754179805,333.74463566776507L152.25056698683647,334.7760273471163L162.8853664318749,335.57677645581856L173.5201658769133,336.2304983765572L184.15496532195172,336.6441507021601L194.78976476699012,337.1453824680513L205.4245642120285,337.52860336468194L216.05936365706697,337.8872026542645L226.69416310210536,338.17961384087283L237.32896254714376,338.50152810913977L247.96376199218219,338.74587363993976L258.5985614372206,339.0133156357726L269.233360882259,339.25777265569263L279.86816032729746,339.3814774856349L290.5029597723358,339.50010008768174L301.13775921737425,339.76637691290676L311.7725586624127,339.8720835368268L322.40735810745105,340.02233625805854L333.0421575524895,340.1572523027523L343.67695699752795,340.34031670923565L354.3117564425663,340.45297755810645L364.94655588760475,340.57940585593303L375.58135533264317,340.69968330629166L386.2161547776816,340.7633687335605L396.85095422271996,340.88306359861525L407.4857536677584,340.99291572321584L418.12055311279687,341.0457065502605L428.75535255783524,341.185205672214L439.39015200287366,341.2565288328954L450.02495144791203,341.28704442522303L460.65975089295046,341.39875251576376L471.29455033798894,341.43781779335865L481.9293497830273,341.529045041066L492.56414922806573,341.58249423686874L503.1989486731041,341.6981878812806L513.8337481181425,341.76664037929174L524.4685475631809,341.81056964300774L535.1033470082194,341.86032512410674L545.7381464532577,341.95396432598045L556.3729458982962,341.9422729064568L567.0077453433346,342.0357915106223L577.642544788373,342.08385570905654L588.2773442334113,342.14327285187534L598.9121436784499,342.1710646119751L609.5469431234883,342.15666138356016L620.1817425685266,342.2686092121435" style="fill: none;" fill="none"></path></g></g></g></g></g></g><g transform="translate(30, 378)" clip-path="url(#clip_1)"><clipPath id="clip_1"><rect width="758" height="22"></rect></clipPath><g><g><line x1="99.07656976164441" y1="0" x2="99.07656976164441" y2="5" style="visibility: inherit;" fill="rgb(0, 0, 0)" stroke="rgb(204, 204, 204)" stroke-width="1px"></line><line x1="205.4245642120285" y1="0" x2="205.4245642120285" y2="5" style="visibility: inherit;" fill="rgb(0, 0, 0)" stroke="rgb(204, 204, 204)" stroke-width="1px"></line><line x1="311.7725586624127" y1="0" x2="311.7725586624127" y2="5" style="visibility: inherit;" fill="rgb(0, 0, 0)" stroke="rgb(204, 204, 204)" stroke-width="1px"></line><line x1="418.12055311279687" y1="0" x2="418.12055311279687" y2="5" style="visibility: inherit;" fill="rgb(0, 0, 0)" stroke="rgb(204, 204, 204)" stroke-width="1px"></line><line x1="524.4685475631809" y1="0" x2="524.4685475631809" y2="5" style="visibility: inherit;" fill="rgb(0, 0, 0)" stroke="rgb(204, 204, 204)" stroke-width="1px"></line><line x1="630.816542013565" y1="0" x2="630.816542013565" y2="5" style="visibility: inherit;" fill="rgb(0, 0, 0)" stroke="rgb(204, 204, 204)" stroke-width="1px"></line><line x1="737.1645364639492" y1="0" x2="737.1645364639492" y2="5" style="visibility: inherit;" fill="rgb(0, 0, 0)" stroke="rgb(204, 204, 204)" stroke-width="1px"></line></g><g transform="translate(0, 8)"><text x="99.07656976164441" y="0" dx="0em" dy="0.95em" style="text-anchor: middle; visibility: inherit; font-family: Roboto, sans-serif; font-size: 12px; font-weight: 200;" fill="rgb(50, 49, 63)" stroke="none" stroke-width="1px">0</text><text x="205.4245642120285" y="0" dx="0em" dy="0.95em" style="text-anchor: middle; visibility: inherit; font-family: Roboto, sans-serif; font-size: 12px; font-weight: 200;" fill="rgb(50, 49, 63)" stroke="none" stroke-width="1px">10</text><text x="311.7725586624127" y="0" dx="0em" dy="0.95em" style="text-anchor: middle; visibility: inherit; font-family: Roboto, sans-serif; font-size: 12px; font-weight: 200;" fill="rgb(50, 49, 63)" stroke="none" stroke-width="1px">20</text><text x="418.12055311279687" y="0" dx="0em" dy="0.95em" style="text-anchor: middle; visibility: inherit; font-family: Roboto, sans-serif; font-size: 12px; font-weight: 200;" fill="rgb(50, 49, 63)" stroke="none" stroke-width="1px">30</text><text x="524.4685475631809" y="0" dx="0em" dy="0.95em" style="text-anchor: middle; visibility: inherit; font-family: Roboto, sans-serif; font-size: 12px; font-weight: 200;" fill="rgb(50, 49, 63)" stroke="none" stroke-width="1px">40</text><text x="630.816542013565" y="0" dx="0em" dy="0.95em" style="text-anchor: middle; visibility: inherit; font-family: Roboto, sans-serif; font-size: 12px; font-weight: 200;" fill="rgb(50, 49, 63)" stroke="none" stroke-width="1px">50</text><text x="737.1645364639492" y="0" dx="0em" dy="0.95em" style="text-anchor: middle; visibility: inherit; font-family: Roboto, sans-serif; font-size: 12px; font-weight: 200;" fill="rgb(50, 49, 63)" stroke="none" stroke-width="1px">60</text></g><line x1="0" y1="0" x2="758.81875" y2="0" fill="rgb(0, 0, 0)" stroke="rgb(204, 204, 204)" stroke-width="1px"></line></g></g></g></g></svg>