<svg viewBox="0 0 789.6000366210938 400" xmlns="http://www.w3.org/2000/svg"><g><g><g><g><g><line x1="50" y1="343.7995867647672" x2="45" y2="343.7995867647672" style="visibility: inherit;" fill="rgb(0, 0, 0)" stroke="rgb(204, 204, 204)" stroke-width="1px"></line><line x1="50" y1="304.0672311440275" x2="45" y2="304.0672311440275" style="visibility: inherit;" fill="rgb(0, 0, 0)" stroke="rgb(204, 204, 204)" stroke-width="1px"></line><line x1="50" y1="264.3348755232881" x2="45" y2="264.3348755232881" style="visibility: inherit;" fill="rgb(0, 0, 0)" stroke="rgb(204, 204, 204)" stroke-width="1px"></line><line x1="50" y1="224.6025199025484" x2="45" y2="224.6025199025484" style="visibility: inherit;" fill="rgb(0, 0, 0)" stroke="rgb(204, 204, 204)" stroke-width="1px"></line><line x1="50" y1="184.87016428180874" x2="45" y2="184.87016428180874" style="visibility: inherit;" fill="rgb(0, 0, 0)" stroke="rgb(204, 204, 204)" stroke-width="1px"></line><line x1="50" y1="145.13780866106904" x2="45" y2="145.13780866106904" style="visibility: inherit;" fill="rgb(0, 0, 0)" stroke="rgb(204, 204, 204)" stroke-width="1px"></line><line x1="50" y1="105.40545304032938" x2="45" y2="105.40545304032938" style="visibility: inherit;" fill="rgb(0, 0, 0)" stroke="rgb(204, 204, 204)" stroke-width="1px"></line><line x1="50" y1="65.67309741958972" x2="45" y2="65.67309741958972" style="visibility: inherit;" fill="rgb(0, 0, 0)" stroke="rgb(204, 204, 204)" stroke-width="1px"></line><line x1="50" y1="25.940741798850265" x2="45" y2="25.940741798850265" style="visibility: inherit;" fill="rgb(0, 0, 0)" stroke="rgb(204, 204, 204)" stroke-width="1px"></line></g><g transform="translate(40, 0)"><text x="0" y="343.7995867647672" dx="0em" dy="0.3em" style="text-anchor: end; visibility: inherit; font-family: Roboto, sans-serif; font-size: 12px; font-weight: 200;" fill="rgb(50, 49, 63)" stroke="none" stroke-width="1px">0.78</text><text x="0" y="304.0672311440275" dx="0em" dy="0.3em" style="text-anchor: end; visibility: inherit; font-family: Roboto, sans-serif; font-size: 12px; font-weight: 200;" fill="rgb(50, 49, 63)" stroke="none" stroke-width="1px">0.8</text><text x="0" y="264.3348755232881" dx="0em" dy="0.3em" style="text-anchor: end; visibility: inherit; font-family: Roboto, sans-serif; font-size: 12px; font-weight: 200;" fill="rgb(50, 49, 63)" stroke="none" stroke-width="1px">0.82</text><text x="0" y="224.6025199025484" dx="0em" dy="0.3em" style="text-anchor: end; visibility: inherit; font-family: Roboto, sans-serif; font-size: 12px; font-weight: 200;" fill="rgb(50, 49, 63)" stroke="none" stroke-width="1px">0.84</text><text x="0" y="184.87016428180874" dx="0em" dy="0.3em" style="text-anchor: end; visibility: inherit; font-family: Roboto, sans-serif; font-size: 12px; font-weight: 200;" fill="rgb(50, 49, 63)" stroke="none" stroke-width="1px">0.86</text><text x="0" y="145.13780866106904" dx="0em" dy="0.3em" style="text-anchor: end; visibility: inherit; font-family: Roboto, sans-serif; font-size: 12px; font-weight: 200;" fill="rgb(50, 49, 63)" stroke="none" stroke-width="1px">0.88</text><text x="0" y="105.40545304032938" dx="0em" dy="0.3em" style="text-anchor: end; visibility: inherit; font-family: Roboto, sans-serif; font-size: 12px; font-weight: 200;" fill="rgb(50, 49, 63)" stroke="none" stroke-width="1px">0.9</text><text x="0" y="65.67309741958972" dx="0em" dy="0.3em" style="text-anchor: end; visibility: inherit; font-family: Roboto, sans-serif; font-size: 12px; font-weight: 200;" fill="rgb(50, 49, 63)" stroke="none" stroke-width="1px">0.92</text><text x="0" y="25.940741798850265" dx="0em" dy="0.3em" style="text-anchor: end; visibility: inherit; font-family: Roboto, sans-serif; font-size: 12px; font-weight: 200;" fill="rgb(50, 49, 63)" stroke="none" stroke-width="1px">0.94</text></g><line x1="50" y1="0" x2="50" y2="378" fill="rgb(0, 0, 0)" stroke="rgb(204, 204, 204)" stroke-width="1px"></line></g></g><g transform="translate(50, 0)" clip-path="url(#clip_0)"><clipPath id="clip_0"><rect width="587" height="378"></rect></clipPath><g><g><g><line x1="11.221285660705645" y1="0" x2="11.221285660705645" y2="378" fill="rgb(0, 0, 0)" stroke="rgb(60, 60, 60)" stroke-width="1px" opacity="0.25"></line><line x1="93.6011044750609" y1="0" x2="93.6011044750609" y2="378" fill="rgb(0, 0, 0)" stroke="rgb(60, 60, 60)" stroke-width="1px" opacity="0.25"></line><line x1="175.98092328941613" y1="0" x2="175.98092328941613" y2="378" fill="rgb(0, 0, 0)" stroke="rgb(60, 60, 60)" stroke-width="1px" opacity="0.25"></line><line x1="258.3607421037714" y1="0" x2="258.3607421037714" y2="378" fill="rgb(0, 0, 0)" stroke="rgb(60, 60, 60)" stroke-width="1px" opacity="0.25"></line><line x1="340.7405609181267" y1="0" x2="340.7405609181267" y2="378" fill="rgb(0, 0, 0)" stroke="rgb(60, 60, 60)" stroke-width="1px" opacity="0.25"></line><line x1="423.12037973248187" y1="0" x2="423.12037973248187" y2="378" fill="rgb(0, 0, 0)" stroke="rgb(60, 60, 60)" stroke-width="1px" opacity="0.25"></line><line x1="505.50019854683717" y1="0" x2="505.50019854683717" y2="378" fill="rgb(0, 0, 0)" stroke="rgb(60, 60, 60)" stroke-width="1px" opacity="0.25"></line></g><g><line x1="0" y1="343.7995867647672" x2="587.8" y2="343.7995867647672" fill="rgb(0, 0, 0)" stroke="rgb(60, 60, 60)" stroke-width="1px" opacity="0.25"></line><line x1="0" y1="304.0672311440275" x2="587.8" y2="304.0672311440275" fill="rgb(0, 0, 0)" stroke="rgb(60, 60, 60)" stroke-width="1px" opacity="0.25"></line><line x1="0" y1="264.3348755232881" x2="587.8" y2="264.3348755232881" fill="rgb(0, 0, 0)" stroke="rgb(60, 60, 60)" stroke-width="1px" opacity="0.25"></line><line x1="0" y1="224.6025199025484" x2="587.8" y2="224.6025199025484" fill="rgb(0, 0, 0)" stroke="rgb(60, 60, 60)" stroke-width="1px" opacity="0.25"></line><line x1="0" y1="184.87016428180874" x2="587.8" y2="184.87016428180874" fill="rgb(0, 0, 0)" stroke="rgb(60, 60, 60)" stroke-width="1px" opacity="0.25"></line><line x1="0" y1="145.13780866106904" x2="587.8" y2="145.13780866106904" fill="rgb(0, 0, 0)" stroke="rgb(60, 60, 60)" stroke-width="1px" opacity="0.25"></line><line x1="0" y1="105.40545304032938" x2="587.8" y2="105.40545304032938" fill="rgb(0, 0, 0)" stroke="rgb(60, 60, 60)" stroke-width="1px" opacity="0.25"></line><line x1="0" y1="65.67309741958972" x2="587.8" y2="65.67309741958972" fill="rgb(0, 0, 0)" stroke="rgb(60, 60, 60)" stroke-width="1px" opacity="0.25"></line><line x1="0" y1="25.940741798850265" x2="587.8" y2="25.940741798850265" fill="rgb(0, 0, 0)" stroke="rgb(60, 60, 60)" stroke-width="1px" opacity="0.25"></line></g></g></g><g><g><line x1="0" y1="1893.361455973613" x2="587.8" y2="1893.361455973613" fill="rgb(0, 0, 0)" stroke="rgb(153, 153, 153)" stroke-width="1.5px"></line></g></g><g><g><line x1="93.6011044750609" y1="0" x2="93.6011044750609" y2="378" fill="rgb(0, 0, 0)" stroke="rgb(153, 153, 153)" stroke-width="1.5px"></line></g></g><g><g><g><g><g><path stroke="rgb(255, 112, 67)" stroke-width="2px" d="M93.6011044750609,312.65074935146043L101.83908635649642,271.80145455494625L110.07706823793194,236.6400632289549L118.31505011936747,236.6400632289549L126.553032000803,223.71318212198062L134.79101388223853,202.51287922911214L143.02899576367403,205.61538279591068L151.26697764510956,191.65429436278782L159.5049595265451,194.23969426651215L167.74294140798062,181.829798410965L175.98092328941613,172.00518404749505L184.21890517085166,169.93688780684505L192.4568870522872,184.41507990304214L200.69486893372272,180.27848742174214L208.93285081515825,160.1123918550222L217.17083269659375,168.3856952292693L225.4088145780293,154.9415920475736L233.6467964594648,157.5269919512979L241.88477834090034,178.21019118109214L250.12276022233587,174.07359869979214L258.3607421037714,161.66370284424505L266.59872398520696,156.4929030367965L274.8367058666425,152.8732958069236L283.074687748078,172.52228771056932L291.3126696295135,157.5269919512979L299.550651510949,155.4586957106479L307.78863339238455,161.14659918117076L316.0266152738201,162.1806880956722L324.2645971552556,178.21019118109214L332.50257903669115,168.3856952292693L340.7405609181267,146.15130342189934L348.97854279956215,155.4586957106479L357.21652468099774,152.35619214384934L365.45450656243327,151.3221032293479L373.69248844386874,139.94629628830222L381.93047032530427,173.55649503671788L390.16845220673986,147.1853923364008L398.40643408817533,151.3221032293479L406.64441596961086,150.28789590319934L414.8823978510464,177.69308751801785L423.12037973248187,159.5952881919479L431.35836161391745,154.4246067961465L439.596343495353,156.4929030367965L447.83432537678846,148.21959966254934L456.072307258224,159.07830294052079L464.3102891396596,166.3173989886193L472.54827102109505,169.41978414377076L480.7862529025306,146.15130342189934L489.0242347839661,154.9415920475736L497.26221666540164,158.5611992774465" style="fill: none;" fill="none"></path></g><g><path stroke="rgb(187, 187, 187)" stroke-width="2px" d="M93.6011044750609,438.49260894123216L101.83908635649642,252.58040234407608L110.07706823793194,203.93666087436176L118.31505011936747,173.72878398331122L126.553032000803,161.29023250915543L134.79101388223853,141.07748275346106L143.02899576367403,123.97445967504098L151.26697764510956,131.52639929489183L159.5049595265451,120.6427111593732L167.74294140798062,112.42435078940053L175.98092328941613,98.87521647668885L184.21890517085166,97.09821288801108L192.4568870522872,106.42715609653969L200.69486893372272,105.760853758065L208.93285081515825,93.1001620338686L217.17083269659375,83.9933590753806L225.4088145780293,86.21452475249245L233.6467964594648,82.43849573674348L241.88477834090034,87.32510759104836L250.12276022233587,81.10577264814691L258.3607421037714,79.995189809591L266.59872398520696,76.88558154396384L274.8367058666425,78.440444882601L283.074687748078,75.33071820532668L291.3126696295135,66.2239152468387L299.550651510949,73.77597327833668L307.78863339238455,76.88558154396384L316.0266152738201,66.00177499679806L324.2645971552556,68.22305908555708L332.50257903669115,66.00177499679806L340.7405609181267,71.3326673511842L348.97854279956215,70.888386851103L357.21652468099774,71.9989696896589L365.45450656243327,65.77975315840462L373.69248844386874,66.44605549687931L381.93047032530427,59.56041821550316L390.16845220673986,58.005554876866L398.40643408817533,74.44227561681137L406.64441596961086,64.00274956972684L414.8823978510464,59.11613771542191L423.12037973248187,59.33827796546255L431.35836161391745,59.78255846554377L439.596343495353,71.1105271011436L447.83432537678846,70.888386851103L456.072307258224,54.45178452280474L464.3102891396596,61.78158389261498L472.54827102109505,61.337421804180934L480.7862529025306,61.78158389261498L489.0242347839661,51.342057845530455L497.26221666540164,57.56139278843191" style="fill: none;" fill="none"></path></g><g><path stroke="rgb(0, 153, 136)" stroke-width="2px" d="M93.6011044750609,270.25026197737054L101.83908635649642,251.6353589882263L110.07706823793194,239.22546313267918L118.31505011936747,218.02527865145777L126.553032000803,207.1665753734864L134.79101388223853,191.13719069971353L143.02899576367403,224.2301673734078L151.26697764510956,197.85918308473785L159.5049595265451,196.30799050716212L167.74294140798062,187.0004798067664L175.98092328941613,198.89339041088638L184.21890517085166,181.31269474789073L192.4568870522872,185.966390892265L200.69486893372272,182.34678366239214L208.93285081515825,173.03939137364358L217.17083269659375,169.41978414377076L225.4088145780293,175.10768761429358L233.6467964594648,177.17598385494355L241.88477834090034,189.06889445906359L250.12276022233587,174.07359869979214L258.3607421037714,164.2491027479693L266.59872398520696,168.3856952292693L274.8367058666425,177.17598385494355L283.074687748078,163.73199908489505L291.3126696295135,180.27848742174214L299.550651510949,162.1806880956722L307.78863339238455,202.51287922911214L316.0266152738201,175.62479127736785L324.2645971552556,164.76608799939646L332.50257903669115,161.14659918117076L340.7405609181267,158.5611992774465L348.97854279956215,173.55649503671788L357.21652468099774,156.4929030367965L365.45450656243327,162.1806880956722L373.69248844386874,151.8392068924222L381.93047032530427,179.24439850724073L390.16845220673986,169.93688780684505L398.40643408817533,166.3173989886193L406.64441596961086,149.25380698869793L414.8823978510464,169.41978414377076L423.12037973248187,171.48819879606788L431.35836161391745,170.97109513299358L439.596343495353,154.9415920475736L447.83432537678846,164.2491027479693L456.072307258224,166.3173989886193L464.3102891396596,149.77079224012505L472.54827102109505,149.77079224012505L480.7862529025306,162.69779175874646L489.0242347839661,165.28319166247076L497.26221666540164,170.4539914699193" style="fill: none;" fill="none"></path></g><g><path stroke="rgb(238, 51, 119)" stroke-width="2px" d="M93.6011044750609,341.2052444134507L101.83908635649642,186.16733545746698L110.07706823793194,150.85070646207092L118.31505011936747,129.30523361778L126.553032000803,107.98201943517681L134.79101388223853,105.31657325798378L143.02899576367403,100.87424190376005L151.26697764510956,95.76560821106168L159.5049595265451,77.99616438251975L167.74294140798062,83.77121882533999L175.98092328941613,80.43947030967222L184.21890517085166,82.88277623682468L192.4568870522872,68.66722117399114L200.69486893372272,76.21927920548914L208.93285081515825,70.888386851103L217.17083269659375,68.66722117399114L225.4088145780293,67.55663833543522L233.6467964594648,56.89497203831009L241.88477834090034,59.56041821550316L250.12276022233587,67.33449808539461L258.3607421037714,63.11430698121154L266.59872398520696,65.77975315840462L274.8367058666425,64.22488981976745L283.074687748078,60.448860804018466L291.3126696295135,59.11613771542191L299.550651510949,58.89411587702847L307.78863339238455,54.22964427276413L316.0266152738201,53.56322352264232L324.2645971552556,55.78438919975414L332.50257903669115,58.67197562698786L340.7405609181267,49.343032418459245L348.97854279956215,58.005554876866L357.21652468099774,51.78633834561167L365.45450656243327,62.67002648113033L373.69248844386874,55.11808686127944L381.93047032530427,54.22964427276413L390.16845220673986,46.01128390279147L398.40643408817533,52.00847859565231L406.64441596961086,52.674780934127014L414.8823978510464,51.56419809557106L423.12037973248187,51.56419809557106L431.35836161391745,52.45264068408636L439.596343495353,48.676730079984544L447.83432537678846,41.12467204848653L456.072307258224,50.897895757096364L464.3102891396596,50.00933475693394L472.54827102109505,51.119917595489845L480.7862529025306,49.343032418459245L489.0242347839661,46.45544599122556L497.26221666540164,46.23342415283208" style="fill: none;" fill="none"></path></g><g><path stroke="rgb(0, 119, 187)" stroke-width="2px" d="M93.6011044750609,254.73786255502483L101.83908635649642,226.81556727713203L110.07706823793194,198.89339041088638L118.31505011936747,184.93218356611644L126.553032000803,176.65899860351644L134.79101388223853,167.35148790312076L143.02899576367403,164.2491027479693L151.26697764510956,165.28319166247076L159.5049595265451,157.5269919512979L167.74294140798062,165.28319166247076L175.98092328941613,160.6294955180965L184.21890517085166,159.07830294052079L192.4568870522872,149.77079224012505L200.69486893372272,156.4929030367965L208.93285081515825,155.9757993737222L217.17083269659375,151.3221032293479L225.4088145780293,151.8392068924222L233.6467964594648,153.9075031330722L241.88477834090034,148.73670332562364L250.12276022233587,151.3221032293479L258.3607421037714,151.3221032293479L266.59872398520696,154.4246067961465L274.8367058666425,148.21959966254934L283.074687748078,149.77079224012505L291.3126696295135,158.5611992774465L299.550651510949,149.77079224012505L307.78863339238455,152.35619214384934L316.0266152738201,154.4246067961465L324.2645971552556,162.1806880956722L332.50257903669115,147.1853923364008L340.7405609181267,149.25380698869793L348.97854279956215,150.28789590319934L357.21652468099774,153.9075031330722L365.45450656243327,153.9075031330722L373.69248844386874,152.35619214384934L381.93047032530427,151.8392068924222L390.16845220673986,151.3221032293479L398.40643408817533,152.35619214384934L406.64441596961086,152.35619214384934L414.8823978510464,154.9415920475736L423.12037973248187,148.73670332562364L431.35836161391745,149.25380698869793L439.596343495353,151.8392068924222L447.83432537678846,150.28789590319934L456.072307258224,152.8732958069236L464.3102891396596,149.77079224012505L472.54827102109505,149.77079224012505L480.7862529025306,147.70249599947505L489.0242347839661,146.66840708497364L497.26221666540164,146.66840708497364" style="fill: none;" fill="none"></path></g><g><path stroke="rgb(255, 112, 67)" stroke-width="2px" d="M93.6011044750609,376.2998515704533L101.83908635649642,203.93666087436176L110.07706823793194,153.73817447765742L118.31505011936747,123.97445967504098L126.553032000803,105.9829940081056L134.79101388223853,85.10394191393655L143.02899576367403,81.32791289818752L151.26697764510956,70.888386851103L159.5049595265451,69.99994426258769L167.74294140798062,60.226720553977856L175.98092328941613,56.89497203831009L184.21890517085166,54.673806361198224L192.4568870522872,50.897895757096364L200.69486893372272,48.676730079984544L208.93285081515825,44.012258475720216L217.17083269659375,45.789143652750866L225.4088145780293,39.34778687145593L233.6467964594648,41.34681229852714L241.88477834090034,36.460200444222245L250.12276022233587,39.12564662141532L258.3607421037714,37.57078328277816L266.59872398520696,35.127477355625686L274.8367058666425,36.682340694262855L283.074687748078,30.4630057513614L291.3126696295135,39.12564662141532L299.550651510949,37.57078328277816L307.78863339238455,32.462149590079775L316.0266152738201,39.791948959890014L324.2645971552556,36.90448094430346L332.50257903669115,34.46117501715099L340.7405609181267,31.795728839957917L348.97854279956215,36.460200444222245L357.21652468099774,31.795728839957917L365.45450656243327,36.682340694262855L373.69248844386874,34.46117501715099L381.93047032530427,32.906311678513866L390.16845220673986,31.57358858991731L398.40643408817533,32.24000934003917L406.64441596961086,31.351566751523826L414.8823978510464,31.57358858991731L423.12037973248187,31.795728839957917L431.35836161391745,28.9082608243714L439.596343495353,29.796703412886703L447.83432537678846,32.01786908999852L456.072307258224,29.352422912805448L464.3102891396596,34.23903476711038L472.54827102109505,32.462149590079775L480.7862529025306,33.35059217859508L489.0242347839661,35.79389810574755L497.26221666540164,32.906311678513866" style="fill: none;" fill="none"></path></g><g><path stroke="rgb(51, 187, 238)" stroke-width="2px" d="M93.6011044750609,456.91580347365164L101.83908635649642,327.64604511073185L110.07706823793194,289.8992538810162L118.31505011936747,266.6306547474977L126.553032000803,255.77206988117342L134.79101388223853,243.36217402562633L143.02899576367403,236.6400632289549L151.26697764510956,229.40096718085636L159.5049595265451,222.16187113275774L167.74294140798062,213.88868617015777L175.98092328941613,205.61538279591068L184.21890517085166,198.89339041088638L192.4568870522872,199.41037566231353L200.69486893372272,195.27378318101353L208.93285081515825,194.23969426651215L217.17083269659375,189.5858797104907L225.4088145780293,185.4492872291907L233.6467964594648,181.31269474789073L241.88477834090034,175.62479127736785L250.12276022233587,173.55649503671788L258.3607421037714,172.00518404749505L266.59872398520696,170.4539914699193L274.8367058666425,167.35148790312076L283.074687748078,165.28319166247076L291.3126696295135,164.2491027479693L299.550651510949,161.14659918117076L307.78863339238455,159.5952881919479L316.0266152738201,157.0098882882236L324.2645971552556,153.9075031330722L332.50257903669115,152.8732958069236L340.7405609181267,152.35619214384934L348.97854279956215,150.28789590319934L357.21652468099774,150.28789590319934L365.45450656243327,148.21959966254934L373.69248844386874,148.73670332562364L381.93047032530427,145.1170960957508L390.16845220673986,144.08300718124934L398.40643408817533,139.94629628830222L406.64441596961086,140.46339995137652L414.8823978510464,142.01459252895222L423.12037973248187,142.01459252895222L431.35836161391745,144.08300718124934L439.596343495353,142.01459252895222L447.83432537678846,139.94629628830222L456.072307258224,136.32680747007655L464.3102891396596,136.84391113315078L472.54827102109505,136.32680747007655L480.7862529025306,134.25851122942655L489.0242347839661,135.29260014392796L497.26221666540164,135.29260014392796" style="fill: none;" fill="none"></path></g><g><path stroke="rgb(204, 51, 17)" stroke-width="2px" d="M101.83908635649642,402.5096776073614L110.07706823793194,326.76766751222374L118.31505011936747,294.5606467824548L126.553032000803,267.6843999954249L134.79101388223853,250.35923666696416L143.02899576367403,239.91971061987965L151.26697764510956,228.59174198427982L159.5049595265451,215.4867697600022L167.74294140798062,204.8252218745242L175.98092328941613,189.94336447321595L184.21890517085166,184.3903318687892L192.4568870522872,179.05955792605022L200.69486893372272,169.7306147175216L208.93285081515825,164.6219810248232L217.17083269659375,154.62661706617274L225.4088145780293,154.40459522777928L233.6467964594648,147.07467744632189L241.88477834090034,143.74292893065413L250.12276022233587,137.52359398775266L258.3607421037714,135.52456856068144L266.59872398520696,127.08406794066813L274.8367058666425,127.75048869079001L283.074687748078,122.86387683648506L291.3126696295135,121.3090134978479L299.550651510949,112.86863128948175L307.78863339238455,112.86863128948175L316.0266152738201,110.64746561236988L324.2645971552556,107.75987918513621L332.50257903669115,106.42715609653969L340.7405609181267,107.0935768466615L348.97854279956215,99.98579931524475L357.21652468099774,96.20977029949577L365.45450656243327,95.32132771098047L373.69248844386874,92.878021783828L381.93047032530427,93.1001620338686L390.16845220673986,90.21257560663493L398.40643408817533,90.65685610671613L406.64441596961086,87.76938809112963L414.8823978510464,85.77024425241125L423.12037973248187,85.5481040023706L431.35836161391745,83.54907857529938L439.596343495353,81.10577264814691L447.83432537678846,79.7730495595504L456.072307258224,75.99713895544853L464.3102891396596,75.10869636693323L472.54827102109505,75.99713895544853L480.7862529025306,74.66441586685198L489.0242347839661,75.55285845536733L497.26221666540164,70.66624660106238" style="fill: none;" fill="none"></path></g></g></g></g></g></g><g transform="translate(50, 378)" clip-path="url(#clip_1)"><clipPath id="clip_1"><rect width="587" height="22"></rect></clipPath><g><g><line x1="11.221285660705645" y1="0" x2="11.221285660705645" y2="5" style="visibility: inherit;" fill="rgb(0, 0, 0)" stroke="rgb(204, 204, 204)" stroke-width="1px"></line><line x1="93.6011044750609" y1="0" x2="93.6011044750609" y2="5" style="visibility: inherit;" fill="rgb(0, 0, 0)" stroke="rgb(204, 204, 204)" stroke-width="1px"></line><line x1="175.98092328941613" y1="0" x2="175.98092328941613" y2="5" style="visibility: inherit;" fill="rgb(0, 0, 0)" stroke="rgb(204, 204, 204)" stroke-width="1px"></line><line x1="258.3607421037714" y1="0" x2="258.3607421037714" y2="5" style="visibility: inherit;" fill="rgb(0, 0, 0)" stroke="rgb(204, 204, 204)" stroke-width="1px"></line><line x1="340.7405609181267" y1="0" x2="340.7405609181267" y2="5" style="visibility: inherit;" fill="rgb(0, 0, 0)" stroke="rgb(204, 204, 204)" stroke-width="1px"></line><line x1="423.12037973248187" y1="0" x2="423.12037973248187" y2="5" style="visibility: inherit;" fill="rgb(0, 0, 0)" stroke="rgb(204, 204, 204)" stroke-width="1px"></line><line x1="505.50019854683717" y1="0" x2="505.50019854683717" y2="5" style="visibility: inherit;" fill="rgb(0, 0, 0)" stroke="rgb(204, 204, 204)" stroke-width="1px"></line></g><g transform="translate(0, 8)"><text x="11.221285660705645" y="0" dx="0em" dy="0.95em" style="text-anchor: middle; visibility: inherit; font-family: Roboto, sans-serif; font-size: 12px; font-weight: 200;" fill="rgb(50, 49, 63)" stroke="none" stroke-width="1px">-10</text><text x="93.6011044750609" y="0" dx="0em" dy="0.95em" style="text-anchor: middle; visibility: inherit; font-family: Roboto, sans-serif; font-size: 12px; font-weight: 200;" fill="rgb(50, 49, 63)" stroke="none" stroke-width="1px">0</text><text x="175.98092328941613" y="0" dx="0em" dy="0.95em" style="text-anchor: middle; visibility: inherit; font-family: Roboto, sans-serif; font-size: 12px; font-weight: 200;" fill="rgb(50, 49, 63)" stroke="none" stroke-width="1px">10</text><text x="258.3607421037714" y="0" dx="0em" dy="0.95em" style="text-anchor: middle; visibility: inherit; font-family: Roboto, sans-serif; font-size: 12px; font-weight: 200;" fill="rgb(50, 49, 63)" stroke="none" stroke-width="1px">20</text><text x="340.7405609181267" y="0" dx="0em" dy="0.95em" style="text-anchor: middle; visibility: inherit; font-family: Roboto, sans-serif; font-size: 12px; font-weight: 200;" fill="rgb(50, 49, 63)" stroke="none" stroke-width="1px">30</text><text x="423.12037973248187" y="0" dx="0em" dy="0.95em" style="text-anchor: middle; visibility: inherit; font-family: Roboto, sans-serif; font-size: 12px; font-weight: 200;" fill="rgb(50, 49, 63)" stroke="none" stroke-width="1px">40</text><text x="505.50019854683717" y="0" dx="0em" dy="0.95em" style="text-anchor: middle; visibility: inherit; font-family: Roboto, sans-serif; font-size: 12px; font-weight: 200;" fill="rgb(50, 49, 63)" stroke="none" stroke-width="1px">50</text></g><line x1="0" y1="0" x2="587.8" y2="0" fill="rgb(0, 0, 0)" stroke="rgb(204, 204, 204)" stroke-width="1px"></line></g></g></g></g></svg>