<svg viewBox="0 0 780 400" xmlns="http://www.w3.org/2000/svg"><g><g><g><g><g><line x1="50" y1="378" x2="45" y2="378" style="visibility: inherit;" fill="rgb(0, 0, 0)" stroke="rgb(204, 204, 204)" stroke-width="1px"></line><line x1="50" y1="350.99999999999994" x2="45" y2="350.99999999999994" style="visibility: inherit;" fill="rgb(0, 0, 0)" stroke="rgb(204, 204, 204)" stroke-width="1px"></line><line x1="50" y1="323.99999999999994" x2="45" y2="323.99999999999994" style="visibility: inherit;" fill="rgb(0, 0, 0)" stroke="rgb(204, 204, 204)" stroke-width="1px"></line><line x1="50" y1="296.99999999999994" x2="45" y2="296.99999999999994" style="visibility: inherit;" fill="rgb(0, 0, 0)" stroke="rgb(204, 204, 204)" stroke-width="1px"></line><line x1="50" y1="269.99999999999994" x2="45" y2="269.99999999999994" style="visibility: inherit;" fill="rgb(0, 0, 0)" stroke="rgb(204, 204, 204)" stroke-width="1px"></line><line x1="50" y1="242.9999999999999" x2="45" y2="242.9999999999999" style="visibility: inherit;" fill="rgb(0, 0, 0)" stroke="rgb(204, 204, 204)" stroke-width="1px"></line><line x1="50" y1="215.99999999999986" x2="45" y2="215.99999999999986" style="visibility: inherit;" fill="rgb(0, 0, 0)" stroke="rgb(204, 204, 204)" stroke-width="1px"></line><line x1="50" y1="188.99999999999983" x2="45" y2="188.99999999999983" style="visibility: inherit;" fill="rgb(0, 0, 0)" stroke="rgb(204, 204, 204)" stroke-width="1px"></line><line x1="50" y1="161.99999999999986" x2="45" y2="161.99999999999986" style="visibility: inherit;" fill="rgb(0, 0, 0)" stroke="rgb(204, 204, 204)" stroke-width="1px"></line><line x1="50" y1="134.9999999999998" x2="45" y2="134.9999999999998" style="visibility: inherit;" fill="rgb(0, 0, 0)" stroke="rgb(204, 204, 204)" stroke-width="1px"></line><line x1="50" y1="107.99999999999979" x2="45" y2="107.99999999999979" style="visibility: inherit;" fill="rgb(0, 0, 0)" stroke="rgb(204, 204, 204)" stroke-width="1px"></line><line x1="50" y1="80.99999999999976" x2="45" y2="80.99999999999976" style="visibility: inherit;" fill="rgb(0, 0, 0)" stroke="rgb(204, 204, 204)" stroke-width="1px"></line><line x1="50" y1="54.00000000000006" x2="45" y2="54.00000000000006" style="visibility: inherit;" fill="rgb(0, 0, 0)" stroke="rgb(204, 204, 204)" stroke-width="1px"></line><line x1="50" y1="27.00000000000003" x2="45" y2="27.00000000000003" style="visibility: inherit;" fill="rgb(0, 0, 0)" stroke="rgb(204, 204, 204)" stroke-width="1px"></line><line x1="50" y1="0" x2="45" y2="0" style="visibility: inherit;" fill="rgb(0, 0, 0)" stroke="rgb(204, 204, 204)" stroke-width="1px"></line></g><g transform="translate(40, 0)"><text x="0" y="378" dx="0em" dy="0.3em" style="text-anchor: end; visibility: hidden; font-family: Roboto, sans-serif; font-size: 12px; font-weight: 200;" fill="rgb(50, 49, 63)" stroke="none" stroke-width="1px">0.82</text><text x="0" y="350.99999999999994" dx="0em" dy="0.3em" style="text-anchor: end; visibility: inherit; font-family: Roboto, sans-serif; font-size: 12px; font-weight: 200;" fill="rgb(50, 49, 63)" stroke="none" stroke-width="1px">0.83</text><text x="0" y="323.99999999999994" dx="0em" dy="0.3em" style="text-anchor: end; visibility: inherit; font-family: Roboto, sans-serif; font-size: 12px; font-weight: 200;" fill="rgb(50, 49, 63)" stroke="none" stroke-width="1px">0.84</text><text x="0" y="296.99999999999994" dx="0em" dy="0.3em" style="text-anchor: end; visibility: inherit; font-family: Roboto, sans-serif; font-size: 12px; font-weight: 200;" fill="rgb(50, 49, 63)" stroke="none" stroke-width="1px">0.85</text><text x="0" y="269.99999999999994" dx="0em" dy="0.3em" style="text-anchor: end; visibility: inherit; font-family: Roboto, sans-serif; font-size: 12px; font-weight: 200;" fill="rgb(50, 49, 63)" stroke="none" stroke-width="1px">0.86</text><text x="0" y="242.9999999999999" dx="0em" dy="0.3em" style="text-anchor: end; visibility: inherit; font-family: Roboto, sans-serif; font-size: 12px; font-weight: 200;" fill="rgb(50, 49, 63)" stroke="none" stroke-width="1px">0.87</text><text x="0" y="215.99999999999986" dx="0em" dy="0.3em" style="text-anchor: end; visibility: inherit; font-family: Roboto, sans-serif; font-size: 12px; font-weight: 200;" fill="rgb(50, 49, 63)" stroke="none" stroke-width="1px">0.88</text><text x="0" y="188.99999999999983" dx="0em" dy="0.3em" style="text-anchor: end; visibility: inherit; font-family: Roboto, sans-serif; font-size: 12px; font-weight: 200;" fill="rgb(50, 49, 63)" stroke="none" stroke-width="1px">0.89</text><text x="0" y="161.99999999999986" dx="0em" dy="0.3em" style="text-anchor: end; visibility: inherit; font-family: Roboto, sans-serif; font-size: 12px; font-weight: 200;" fill="rgb(50, 49, 63)" stroke="none" stroke-width="1px">0.9</text><text x="0" y="134.9999999999998" dx="0em" dy="0.3em" style="text-anchor: end; visibility: inherit; font-family: Roboto, sans-serif; font-size: 12px; font-weight: 200;" fill="rgb(50, 49, 63)" stroke="none" stroke-width="1px">0.91</text><text x="0" y="107.99999999999979" dx="0em" dy="0.3em" style="text-anchor: end; visibility: inherit; font-family: Roboto, sans-serif; font-size: 12px; font-weight: 200;" fill="rgb(50, 49, 63)" stroke="none" stroke-width="1px">0.92</text><text x="0" y="80.99999999999976" dx="0em" dy="0.3em" style="text-anchor: end; visibility: inherit; font-family: Roboto, sans-serif; font-size: 12px; font-weight: 200;" fill="rgb(50, 49, 63)" stroke="none" stroke-width="1px">0.93</text><text x="0" y="54.00000000000006" dx="0em" dy="0.3em" style="text-anchor: end; visibility: inherit; font-family: Roboto, sans-serif; font-size: 12px; font-weight: 200;" fill="rgb(50, 49, 63)" stroke="none" stroke-width="1px">0.94</text><text x="0" y="27.00000000000003" dx="0em" dy="0.3em" style="text-anchor: end; visibility: inherit; font-family: Roboto, sans-serif; font-size: 12px; font-weight: 200;" fill="rgb(50, 49, 63)" stroke="none" stroke-width="1px">0.95</text><text x="0" y="0" dx="0em" dy="0.3em" style="text-anchor: end; visibility: hidden; font-family: Roboto, sans-serif; font-size: 12px; font-weight: 200;" fill="rgb(50, 49, 63)" stroke="none" stroke-width="1px">0.96</text></g><line x1="50" y1="0" x2="50" y2="378" fill="rgb(0, 0, 0)" stroke="rgb(204, 204, 204)" stroke-width="1px"></line></g></g><g transform="translate(50, 0)" clip-path="url(#clip_0)"><clipPath id="clip_0"><rect width="730" height="378"></rect></clipPath><g><g><g><line x1="0" y1="0" x2="0" y2="378" fill="rgb(0, 0, 0)" stroke="rgb(60, 60, 60)" stroke-width="1px" opacity="0.25"></line><line x1="60.83333333333333" y1="0" x2="60.83333333333333" y2="378" fill="rgb(0, 0, 0)" stroke="rgb(60, 60, 60)" stroke-width="1px" opacity="0.25"></line><line x1="121.66666666666666" y1="0" x2="121.66666666666666" y2="378" fill="rgb(0, 0, 0)" stroke="rgb(60, 60, 60)" stroke-width="1px" opacity="0.25"></line><line x1="182.5" y1="0" x2="182.5" y2="378" fill="rgb(0, 0, 0)" stroke="rgb(60, 60, 60)" stroke-width="1px" opacity="0.25"></line><line x1="243.33333333333331" y1="0" x2="243.33333333333331" y2="378" fill="rgb(0, 0, 0)" stroke="rgb(60, 60, 60)" stroke-width="1px" opacity="0.25"></line><line x1="304.1666666666667" y1="0" x2="304.1666666666667" y2="378" fill="rgb(0, 0, 0)" stroke="rgb(60, 60, 60)" stroke-width="1px" opacity="0.25"></line><line x1="365" y1="0" x2="365" y2="378" fill="rgb(0, 0, 0)" stroke="rgb(60, 60, 60)" stroke-width="1px" opacity="0.25"></line><line x1="425.83333333333337" y1="0" x2="425.83333333333337" y2="378" fill="rgb(0, 0, 0)" stroke="rgb(60, 60, 60)" stroke-width="1px" opacity="0.25"></line><line x1="486.66666666666663" y1="0" x2="486.66666666666663" y2="378" fill="rgb(0, 0, 0)" stroke="rgb(60, 60, 60)" stroke-width="1px" opacity="0.25"></line><line x1="547.5" y1="0" x2="547.5" y2="378" fill="rgb(0, 0, 0)" stroke="rgb(60, 60, 60)" stroke-width="1px" opacity="0.25"></line><line x1="608.3333333333334" y1="0" x2="608.3333333333334" y2="378" fill="rgb(0, 0, 0)" stroke="rgb(60, 60, 60)" stroke-width="1px" opacity="0.25"></line><line x1="669.1666666666666" y1="0" x2="669.1666666666666" y2="378" fill="rgb(0, 0, 0)" stroke="rgb(60, 60, 60)" stroke-width="1px" opacity="0.25"></line><line x1="730" y1="0" x2="730" y2="378" fill="rgb(0, 0, 0)" stroke="rgb(60, 60, 60)" stroke-width="1px" opacity="0.25"></line></g><g><line x1="0" y1="378" x2="730" y2="378" fill="rgb(0, 0, 0)" stroke="rgb(60, 60, 60)" stroke-width="1px" opacity="0.25"></line><line x1="0" y1="350.99999999999994" x2="730" y2="350.99999999999994" fill="rgb(0, 0, 0)" stroke="rgb(60, 60, 60)" stroke-width="1px" opacity="0.25"></line><line x1="0" y1="323.99999999999994" x2="730" y2="323.99999999999994" fill="rgb(0, 0, 0)" stroke="rgb(60, 60, 60)" stroke-width="1px" opacity="0.25"></line><line x1="0" y1="296.99999999999994" x2="730" y2="296.99999999999994" fill="rgb(0, 0, 0)" stroke="rgb(60, 60, 60)" stroke-width="1px" opacity="0.25"></line><line x1="0" y1="269.99999999999994" x2="730" y2="269.99999999999994" fill="rgb(0, 0, 0)" stroke="rgb(60, 60, 60)" stroke-width="1px" opacity="0.25"></line><line x1="0" y1="242.9999999999999" x2="730" y2="242.9999999999999" fill="rgb(0, 0, 0)" stroke="rgb(60, 60, 60)" stroke-width="1px" opacity="0.25"></line><line x1="0" y1="215.99999999999986" x2="730" y2="215.99999999999986" fill="rgb(0, 0, 0)" stroke="rgb(60, 60, 60)" stroke-width="1px" opacity="0.25"></line><line x1="0" y1="188.99999999999983" x2="730" y2="188.99999999999983" fill="rgb(0, 0, 0)" stroke="rgb(60, 60, 60)" stroke-width="1px" opacity="0.25"></line><line x1="0" y1="161.99999999999986" x2="730" y2="161.99999999999986" fill="rgb(0, 0, 0)" stroke="rgb(60, 60, 60)" stroke-width="1px" opacity="0.25"></line><line x1="0" y1="134.9999999999998" x2="730" y2="134.9999999999998" fill="rgb(0, 0, 0)" stroke="rgb(60, 60, 60)" stroke-width="1px" opacity="0.25"></line><line x1="0" y1="107.99999999999979" x2="730" y2="107.99999999999979" fill="rgb(0, 0, 0)" stroke="rgb(60, 60, 60)" stroke-width="1px" opacity="0.25"></line><line x1="0" y1="80.99999999999976" x2="730" y2="80.99999999999976" fill="rgb(0, 0, 0)" stroke="rgb(60, 60, 60)" stroke-width="1px" opacity="0.25"></line><line x1="0" y1="54.00000000000006" x2="730" y2="54.00000000000006" fill="rgb(0, 0, 0)" stroke="rgb(60, 60, 60)" stroke-width="1px" opacity="0.25"></line><line x1="0" y1="27.00000000000003" x2="730" y2="27.00000000000003" fill="rgb(0, 0, 0)" stroke="rgb(60, 60, 60)" stroke-width="1px" opacity="0.25"></line><line x1="0" y1="0" x2="730" y2="0" fill="rgb(0, 0, 0)" stroke="rgb(60, 60, 60)" stroke-width="1px" opacity="0.25"></line></g></g></g><g><g><line x1="0" y1="2591.9999999999995" x2="730" y2="2591.9999999999995" fill="rgb(0, 0, 0)" stroke="rgb(153, 153, 153)" stroke-width="1.5px"></line></g></g><g><g><line x1="60.83333333333333" y1="0" x2="60.83333333333333" y2="378" fill="rgb(0, 0, 0)" stroke="rgb(153, 153, 153)" stroke-width="1.5px"></line></g></g><g><g><g><g><g><path stroke="rgb(0, 153, 136)" stroke-width="2px" d="M60.83333333333333,430.31339478492725L73,304.5195086002349L85.16666666666667,230.72984647750846L97.33333333333333,229.3242616653441L109.5,212.4580485820769L121.66666666666666,209.6470398902892L133.83333333333331,201.214013814926L146,191.37540292739854L158.16666666666669,187.8616018295287L170.33333333333334,187.8616018295287L182.5,189.2670257091521L194.66666666666666,192.78082680702195L206.83333333333331,189.9698181152343L219,189.9698181152343L231.16666666666666,189.2670257091521L243.33333333333331,190.67261052131641L255.49999999999997,189.2670257091521L267.66666666666663,190.67261052131641L279.83333333333337,190.67261052131641L292,190.67261052131641L304.1666666666667,189.2670257091521L316.33333333333337,189.2670257091521L328.5,189.2670257091521L340.6666666666667,190.67261052131641L352.8333333333333,189.2670257091521L365,189.2670257091521L377.1666666666667,190.67261052131641L389.3333333333333,190.67261052131641L401.50000000000006,190.67261052131641L413.66666666666663,190.67261052131641L425.83333333333337,190.67261052131641L438,190.67261052131641L450.1666666666667,190.67261052131641L462.3333333333333,190.67261052131641L474.5,190.67261052131641L486.66666666666663,190.67261052131641L498.83333333333337,190.67261052131641L510.99999999999994,190.67261052131641L523.1666666666666,190.67261052131641L535.3333333333333,190.67261052131641L547.5,190.67261052131641L559.6666666666667,190.67261052131641L571.8333333333334,190.67261052131641L584,190.67261052131641L596.1666666666666,190.67261052131641L608.3333333333334,190.67261052131641L620.5,190.67261052131641L632.6666666666667,190.67261052131641L644.8333333333333,190.67261052131641L657,190.67261052131641" style="fill: none;" fill="none"></path></g><g><path stroke="rgb(255, 112, 67)" stroke-width="2px" d="M60.83333333333333,355.8209402561186L73,343.87395215034473L85.16666666666667,272.895298719406L97.33333333333333,258.1374628543852L109.5,234.9464399814605L121.66666666666666,210.34983229637137L133.83333333333331,215.2690572738646L146,207.5388236045836L158.16666666666669,199.80842900276173L170.33333333333334,206.13323879241935L182.5,199.80842900276173L194.66666666666666,197.70021271705616L206.83333333333331,198.40284419059742L219,204.02502250671375L231.16666666666666,199.10563659667955L243.33333333333331,201.91664528846732L255.49999999999997,194.88904309272752L267.66666666666663,196.99742031097398L279.83333333333337,196.99742031097398L292,194.18641161918632L304.1666666666667,191.37540292739854L316.33333333333337,192.07803440093986L328.5,189.2670257091521L340.6666666666667,189.2670257091521L352.8333333333333,189.9698181152343L365,186.4560170173644L377.1666666666667,187.8616018295287L389.3333333333333,187.8616018295287L401.50000000000006,188.56423330306995L413.66666666666663,188.56423330306995L425.83333333333337,187.8616018295287L438,188.56423330306995L450.1666666666667,187.1588094234465L462.3333333333333,188.56423330306995L474.5,188.56423330306995L486.66666666666663,188.56423330306995L498.83333333333337,188.56423330306995L510.99999999999994,188.56423330306995L523.1666666666666,188.56423330306995L535.3333333333333,188.56423330306995L547.5,187.1588094234465L559.6666666666667,187.1588094234465L571.8333333333334,187.1588094234465L584,187.1588094234465L596.1666666666666,187.1588094234465L608.3333333333334,187.1588094234465L620.5,187.1588094234465L632.6666666666667,187.1588094234465L644.8333333333333,187.1588094234465L657,187.1588094234465" style="fill: none;" fill="none"></path></g><g><path stroke="rgb(51, 187, 238)" stroke-width="2px" d="M60.83333333333333,360.74016523361195L73,284.84228682517994L85.16666666666667,224.40503668785084L97.33333333333333,208.944247484207L109.5,217.37743449211106L121.66666666666666,211.75525617599476L133.83333333333331,207.5388236045836L146,204.02502250671375L158.16666666666669,206.13323879241935L170.33333333333334,209.6470398902892L182.5,206.13323879241935L194.66666666666666,208.24161601066578L206.83333333333331,207.5388236045836L219,208.24161601066578L231.16666666666666,208.24161601066578L243.33333333333331,208.24161601066578L255.49999999999997,208.24161601066578L267.66666666666663,208.24161601066578L279.83333333333337,208.24161601066578L292,208.24161601066578L304.1666666666667,208.24161601066578L316.33333333333337,208.24161601066578L328.5,208.24161601066578L340.6666666666667,208.24161601066578L352.8333333333333,208.24161601066578L365,208.24161601066578L377.1666666666667,208.24161601066578L389.3333333333333,208.24161601066578L401.50000000000006,208.24161601066578L413.66666666666663,208.24161601066578L425.83333333333337,208.24161601066578L438,208.24161601066578L450.1666666666667,208.24161601066578L462.3333333333333,208.24161601066578L474.5,208.24161601066578L486.66666666666663,208.24161601066578L498.83333333333337,208.24161601066578L510.99999999999994,208.24161601066578L523.1666666666666,208.24161601066578L535.3333333333333,208.24161601066578L547.5,208.24161601066578L559.6666666666667,208.24161601066578L571.8333333333334,208.24161601066578L584,208.24161601066578L596.1666666666666,208.24161601066578L608.3333333333334,208.24161601066578L620.5,208.24161601066578L632.6666666666667,208.24161601066578L644.8333333333333,208.24161601066578L657,208.24161601066578" style="fill: none;" fill="none"></path></g><g><path stroke="rgb(0, 119, 187)" stroke-width="2px" d="M60.83333333333333,369.87614464759815L73,330.5215401649474L85.16666666666667,312.24990320205677L97.33333333333333,291.16709661483753L109.5,290.4643042087553L121.66666666666666,285.5450792312621L133.83333333333331,284.84228682517994L146,283.43670201301563L158.16666666666669,282.0312781333922L170.33333333333334,282.0312781333922L182.5,282.0312781333922L194.66666666666666,282.0312781333922L206.83333333333331,282.0312781333922L219,282.0312781333922L231.16666666666666,282.0312781333922L243.33333333333331,282.0312781333922L255.49999999999997,282.0312781333922L267.66666666666663,282.0312781333922L279.83333333333337,282.0312781333922L292,282.0312781333922L304.1666666666667,282.0312781333922L316.33333333333337,282.0312781333922L328.5,282.0312781333922L340.6666666666667,282.0312781333922L352.8333333333333,282.0312781333922L365,282.0312781333922L377.1666666666667,282.0312781333922L389.3333333333333,282.0312781333922L401.50000000000006,282.0312781333922L413.66666666666663,282.0312781333922L425.83333333333337,282.0312781333922L438,282.0312781333922L450.1666666666667,282.0312781333922L462.3333333333333,282.0312781333922L474.5,282.0312781333922L486.66666666666663,282.0312781333922L498.83333333333337,282.0312781333922L510.99999999999994,282.0312781333922L523.1666666666666,282.0312781333922L535.3333333333333,282.0312781333922L547.5,282.0312781333922L559.6666666666667,282.0312781333922L571.8333333333334,282.0312781333922L584,282.0312781333922L596.1666666666666,282.0312781333922L608.3333333333334,282.0312781333922L620.5,282.0312781333922L632.6666666666667,282.0312781333922L644.8333333333333,282.0312781333922L657,282.0312781333922" style="fill: none;" fill="none"></path></g><g><path stroke="rgb(204, 51, 17)" stroke-width="2px" d="M60.83333333333333,367.76776742935164L73,312.9526956081389L85.16666666666667,272.895298719406L97.33333333333333,263.05668783187855L109.5,258.1374628543852L121.66666666666666,242.6766736507415L133.83333333333331,237.05465626716602L146,232.838062763214L158.16666666666669,228.62163019180286L170.33333333333334,232.13527035713184L182.5,224.40503668785084L194.66666666666666,220.1884431838988L206.83333333333331,215.97184967994679L219,217.37743449211106L231.16666666666666,212.4580485820769L243.33333333333331,215.97184967994679L255.49999999999997,213.16084098815904L267.66666666666663,212.4580485820769L279.83333333333337,211.75525617599476L292,207.5388236045836L304.1666666666667,212.4580485820769L316.33333333333337,210.34983229637137L328.5,212.4580485820769L340.6666666666667,211.0526247024535L352.8333333333333,209.6470398902892L365,211.0526247024535L377.1666666666667,210.34983229637137L389.3333333333333,211.75525617599476L401.50000000000006,209.6470398902892L413.66666666666663,211.0526247024535L425.83333333333337,212.4580485820769L438,212.4580485820769L450.1666666666667,211.0526247024535L462.3333333333333,213.16084098815904L474.5,211.75525617599476L486.66666666666663,211.0526247024535L498.83333333333337,213.16084098815904L510.99999999999994,213.86363339424122L523.1666666666666,215.2690572738646L535.3333333333333,213.16084098815904L547.5,213.86363339424122L559.6666666666667,213.16084098815904L571.8333333333334,213.16084098815904L584,213.16084098815904L596.1666666666666,213.16084098815904L608.3333333333334,213.16084098815904L620.5,213.86363339424122L632.6666666666667,214.5664258003234L644.8333333333333,214.5664258003234L657,214.5664258003234" style="fill: none;" fill="none"></path></g></g></g></g></g></g><g transform="translate(50, 378)" clip-path="url(#clip_1)"><clipPath id="clip_1"><rect width="730" height="22"></rect></clipPath><g><g><line x1="0" y1="0" x2="0" y2="5" style="visibility: inherit;" fill="rgb(0, 0, 0)" stroke="rgb(204, 204, 204)" stroke-width="1px"></line><line x1="60.83333333333333" y1="0" x2="60.83333333333333" y2="5" style="visibility: inherit;" fill="rgb(0, 0, 0)" stroke="rgb(204, 204, 204)" stroke-width="1px"></line><line x1="121.66666666666666" y1="0" x2="121.66666666666666" y2="5" style="visibility: inherit;" fill="rgb(0, 0, 0)" stroke="rgb(204, 204, 204)" stroke-width="1px"></line><line x1="182.5" y1="0" x2="182.5" y2="5" style="visibility: inherit;" fill="rgb(0, 0, 0)" stroke="rgb(204, 204, 204)" stroke-width="1px"></line><line x1="243.33333333333331" y1="0" x2="243.33333333333331" y2="5" style="visibility: inherit;" fill="rgb(0, 0, 0)" stroke="rgb(204, 204, 204)" stroke-width="1px"></line><line x1="304.1666666666667" y1="0" x2="304.1666666666667" y2="5" style="visibility: inherit;" fill="rgb(0, 0, 0)" stroke="rgb(204, 204, 204)" stroke-width="1px"></line><line x1="365" y1="0" x2="365" y2="5" style="visibility: inherit;" fill="rgb(0, 0, 0)" stroke="rgb(204, 204, 204)" stroke-width="1px"></line><line x1="425.83333333333337" y1="0" x2="425.83333333333337" y2="5" style="visibility: inherit;" fill="rgb(0, 0, 0)" stroke="rgb(204, 204, 204)" stroke-width="1px"></line><line x1="486.66666666666663" y1="0" x2="486.66666666666663" y2="5" style="visibility: inherit;" fill="rgb(0, 0, 0)" stroke="rgb(204, 204, 204)" stroke-width="1px"></line><line x1="547.5" y1="0" x2="547.5" y2="5" style="visibility: inherit;" fill="rgb(0, 0, 0)" stroke="rgb(204, 204, 204)" stroke-width="1px"></line><line x1="608.3333333333334" y1="0" x2="608.3333333333334" y2="5" style="visibility: inherit;" fill="rgb(0, 0, 0)" stroke="rgb(204, 204, 204)" stroke-width="1px"></line><line x1="669.1666666666666" y1="0" x2="669.1666666666666" y2="5" style="visibility: inherit;" fill="rgb(0, 0, 0)" stroke="rgb(204, 204, 204)" stroke-width="1px"></line><line x1="730" y1="0" x2="730" y2="5" style="visibility: inherit;" fill="rgb(0, 0, 0)" stroke="rgb(204, 204, 204)" stroke-width="1px"></line></g><g transform="translate(0, 8)"><text x="0" y="0" dx="0em" dy="0.95em" style="text-anchor: middle; visibility: hidden; font-family: Roboto, sans-serif; font-size: 12px; font-weight: 200;" fill="rgb(50, 49, 63)" stroke="none" stroke-width="1px">-5</text><text x="60.83333333333333" y="0" dx="0em" dy="0.95em" style="text-anchor: middle; visibility: inherit; font-family: Roboto, sans-serif; font-size: 12px; font-weight: 200;" fill="rgb(50, 49, 63)" stroke="none" stroke-width="1px">0</text><text x="121.66666666666666" y="0" dx="0em" dy="0.95em" style="text-anchor: middle; visibility: inherit; font-family: Roboto, sans-serif; font-size: 12px; font-weight: 200;" fill="rgb(50, 49, 63)" stroke="none" stroke-width="1px">5</text><text x="182.5" y="0" dx="0em" dy="0.95em" style="text-anchor: middle; visibility: inherit; font-family: Roboto, sans-serif; font-size: 12px; font-weight: 200;" fill="rgb(50, 49, 63)" stroke="none" stroke-width="1px">10</text><text x="243.33333333333331" y="0" dx="0em" dy="0.95em" style="text-anchor: middle; visibility: inherit; font-family: Roboto, sans-serif; font-size: 12px; font-weight: 200;" fill="rgb(50, 49, 63)" stroke="none" stroke-width="1px">15</text><text x="304.1666666666667" y="0" dx="0em" dy="0.95em" style="text-anchor: middle; visibility: inherit; font-family: Roboto, sans-serif; font-size: 12px; font-weight: 200;" fill="rgb(50, 49, 63)" stroke="none" stroke-width="1px">20</text><text x="365" y="0" dx="0em" dy="0.95em" style="text-anchor: middle; visibility: inherit; font-family: Roboto, sans-serif; font-size: 12px; font-weight: 200;" fill="rgb(50, 49, 63)" stroke="none" stroke-width="1px">25</text><text x="425.83333333333337" y="0" dx="0em" dy="0.95em" style="text-anchor: middle; visibility: inherit; font-family: Roboto, sans-serif; font-size: 12px; font-weight: 200;" fill="rgb(50, 49, 63)" stroke="none" stroke-width="1px">30</text><text x="486.66666666666663" y="0" dx="0em" dy="0.95em" style="text-anchor: middle; visibility: inherit; font-family: Roboto, sans-serif; font-size: 12px; font-weight: 200;" fill="rgb(50, 49, 63)" stroke="none" stroke-width="1px">35</text><text x="547.5" y="0" dx="0em" dy="0.95em" style="text-anchor: middle; visibility: inherit; font-family: Roboto, sans-serif; font-size: 12px; font-weight: 200;" fill="rgb(50, 49, 63)" stroke="none" stroke-width="1px">40</text><text x="608.3333333333334" y="0" dx="0em" dy="0.95em" style="text-anchor: middle; visibility: inherit; font-family: Roboto, sans-serif; font-size: 12px; font-weight: 200;" fill="rgb(50, 49, 63)" stroke="none" stroke-width="1px">45</text><text x="669.1666666666666" y="0" dx="0em" dy="0.95em" style="text-anchor: middle; visibility: inherit; font-family: Roboto, sans-serif; font-size: 12px; font-weight: 200;" fill="rgb(50, 49, 63)" stroke="none" stroke-width="1px">50</text><text x="730" y="0" dx="0em" dy="0.95em" style="text-anchor: middle; visibility: hidden; font-family: Roboto, sans-serif; font-size: 12px; font-weight: 200;" fill="rgb(50, 49, 63)" stroke="none" stroke-width="1px">55</text></g><line x1="0" y1="0" x2="730" y2="0" fill="rgb(0, 0, 0)" stroke="rgb(204, 204, 204)" stroke-width="1px"></line></g></g></g></g></svg>