<?xml version="1.0" standalone="no"?>
<!DOCTYPE svg PUBLIC "-//W3C//DTD SVG 20010904//EN"
 "http://www.w3.org/TR/2001/REC-SVG-20010904/DTD/svg10.dtd">
<svg version="1.0" xmlns="http://www.w3.org/2000/svg"
 width="687.000000pt" height="162.000000pt" viewBox="0 0 687.000000 162.000000"
 preserveAspectRatio="xMidYMid meet">
<metadata>
Created by potrace 1.16, written by Peter Selinger 2001-2019
</metadata>
<g transform="translate(0.000000,162.000000) scale(0.100000,-0.100000)"
fill="#000000" stroke="none">
<path d="M40 1310 c0 -303 0 -310 -20 -310 -11 0 -20 -5 -20 -10 0 -6 3 -9 7
-9 37 6 47 -27 10 -34 l-22 -4 23 -2 c12 0 22 -6 22 -11 0 -6 -10 -15 -22 -20
l-23 -9 23 0 22 -1 0 -450 0 -450 3415 0 3415 0 0 810 0 810 -3415 0 -3415 0
0 -310z m2767 60 c3 -11 14 -20 24 -20 10 0 22 -8 27 -17 9 -16 11 -16 27 0
19 19 38 21 65 7 13 -7 21 -7 25 0 3 5 15 10 26 10 12 0 19 7 19 20 0 13 7 20
20 20 18 0 20 -7 20 -70 l0 -70 -39 0 c-22 0 -43 5 -47 11 -4 8 -9 8 -17 0
-15 -15 -60 -14 -76 2 -11 10 -14 10 -18 0 -10 -28 -33 -13 -33 22 0 19 -4 35
-10 35 -5 0 -10 -16 -10 -35 0 -35 0 -35 -45 -35 l-45 0 -1 38 c-1 27 -3 30
-6 12 -7 -36 -22 -50 -52 -50 -15 0 -33 6 -40 13 -11 10 -14 10 -18 0 -7 -20
-70 -16 -82 5 -10 16 -10 16 -11 0 0 -10 -7 -18 -15 -18 -15 0 -19 16 -15 54
1 11 -3 17 -11 14 -7 -2 -13 -18 -14 -34 0 -19 -6 -30 -17 -32 -15 -3 -18 4
-18 32 0 20 -4 36 -10 36 -5 0 -10 -15 -10 -33 l0 -33 -65 -2 c-55 -2 -66 1
-75 18 -9 17 -8 20 8 20 10 0 23 -5 30 -12 9 -9 15 -9 23 -1 9 9 2 16 -25 27
-37 16 -47 41 -24 64 17 17 58 15 78 -3 12 -11 39 -16 83 -16 57 -1 67 -3 73
-21 6 -20 6 -20 21 1 15 23 52 28 70 10 8 -8 17 -8 33 1 11 6 34 9 50 5 21 -5
31 -2 39 12 8 15 13 16 30 5 19 -11 21 -10 21 8 0 26 30 26 37 0z m-2152 -22
l20 -33 3 33 c2 20 9 32 18 32 10 0 14 -13 14 -46 0 -26 4 -43 10 -39 5 3 6
13 3 21 -3 9 0 20 8 25 23 14 59 10 66 -7 5 -15 7 -15 15 0 7 12 23 16 61 15
69 -1 87 -7 87 -27 0 -13 3 -12 16 6 26 37 84 24 84 -20 0 -13 -8 -18 -31 -18
-18 0 -28 -4 -24 -10 4 -6 15 -10 24 -8 10 2 20 -1 22 -7 2 -5 -13 -11 -34
-13 -31 -3 -39 1 -46 20 l-10 23 0 -22 c-1 -15 -7 -23 -19 -23 -15 0 -18 7
-16 35 2 19 -1 35 -6 35 -9 0 -15 -38 -11 -62 0 -5 -8 -8 -19 -8 -16 0 -20 7
-20 35 0 19 -4 35 -10 35 -5 0 -10 -16 -10 -35 l0 -35 -88 0 c-87 0 -89 1
-102 28 l-14 27 -4 -27 c-2 -20 -9 -28 -23 -28 -17 0 -19 7 -19 65 0 56 3 65
18 65 10 0 27 -15 37 -32z m5883 15 c-2 -14 3 -17 20 -15 15 2 22 -2 22 -12 0
-9 5 -16 10 -16 6 0 10 7 10 15 0 8 9 15 20 15 24 0 24 4 4 -53 -21 -61 -44
-62 -66 -4 l-17 42 0 -43 -1 -43 -42 3 c-40 3 -43 5 -49 38 l-6 35 -2 -38 -1
-38 -42 3 c-43 3 -43 3 -45 45 -2 47 16 60 63 49 17 -5 26 -2 30 9 8 20 21 19
42 -2 16 -16 17 -15 20 5 2 12 10 22 18 22 9 0 14 -7 12 -17z m-2424 -29 c15
-14 16 -14 16 0 0 11 10 16 33 16 44 0 58 -12 59 -47 1 -40 -8 -53 -38 -53
-17 0 -24 -5 -24 -20 0 -11 -7 -20 -15 -20 -11 0 -15 11 -15 40 0 38 -2 40
-30 40 -16 0 -30 -5 -30 -11 0 -5 10 -9 22 -7 11 2 23 -3 26 -10 3 -10 -6 -13
-34 -10 -32 2 -40 8 -48 30 -17 50 42 89 78 52z m558 2 c5 -8 10 -8 20 2 13
13 47 16 64 4 6 -4 14 -17 18 -29 7 -20 4 -23 -23 -23 -17 0 -31 -5 -31 -11 0
-7 10 -9 26 -5 19 5 25 3 22 -6 -6 -17 -56 -22 -74 -7 -10 8 -14 8 -14 0 0 -6
-9 -11 -20 -11 -16 0 -20 7 -20 36 0 21 -4 33 -10 29 -5 -3 -10 -19 -10 -36 0
-19 -5 -29 -15 -29 -10 0 -15 11 -15 35 0 19 -4 35 -10 35 -5 0 -10 -16 -10
-35 0 -28 -4 -35 -20 -35 -17 0 -20 7 -20 50 l0 50 68 -1 c38 -1 70 -6 74 -13z
m-4279 -187 c30 -13 47 -48 47 -94 0 -24 -9 -42 -32 -65 -29 -30 -36 -32 -82
-27 -64 6 -96 39 -96 98 0 78 85 124 163 88z m26 -573 c21 -21 26 -36 26 -76
0 -41 -5 -54 -28 -77 -23 -24 -36 -28 -83 -28 -50 0 -58 3 -85 33 -49 55 -32
144 35 173 38 16 106 4 135 -25z"/>
<path d="M273 552 c-31 -37 -29 -77 3 -107 54 -50 144 -15 144 55 0 72 -101
108 -147 52z"/>
</g>
</svg>
