<?xml version="1.0" standalone="no"?>
<!DOCTYPE svg PUBLIC "-//W3C//DTD SVG 20010904//EN"
 "http://www.w3.org/TR/2001/REC-SVG-20010904/DTD/svg10.dtd">
<svg version="1.0" xmlns="http://www.w3.org/2000/svg"
 width="697.000000pt" height="193.000000pt" viewBox="0 0 697.000000 193.000000"
 preserveAspectRatio="xMidYMid meet">
<metadata>
Created by potrace 1.16, written by Peter Selinger 2001-2019
</metadata>
<g transform="translate(0.000000,193.000000) scale(0.100000,-0.100000)"
fill="#000000" stroke="none">
<path d="M6 1914 c-3 -9 -6 -443 -6 -965 l0 -949 3485 0 3485 0 0 965 0 965
-3479 0 c-3163 0 -3479 -1 -3485 -16z m2904 -274 c0 -14 7 -20 21 -20 13 0 23
-8 26 -20 l6 -21 19 21 c21 22 40 25 68 10 13 -7 21 -7 25 0 3 5 15 10 26 10
13 0 19 7 19 21 0 14 5 19 18 17 14 -3 18 -16 20 -71 l3 -67 -40 0 c-22 0 -43
5 -47 11 -4 8 -9 8 -17 0 -19 -19 -65 -13 -82 12 -15 20 -16 20 -13 2 2 -12
-4 -21 -14 -23 -15 -3 -18 4 -18 32 0 20 -4 36 -10 36 -5 0 -10 -16 -10 -36
l0 -35 -42 3 c-40 3 -43 5 -49 38 -5 27 -7 29 -8 10 0 -15 -6 -31 -13 -38 -15
-15 -64 -16 -73 -2 -4 7 -12 7 -25 0 -33 -18 -70 -12 -80 13 l-9 22 0 -22 c-1
-16 -7 -23 -20 -23 -10 0 -19 6 -18 13 1 37 -4 58 -13 52 -6 -4 -10 -14 -9
-23 3 -32 -1 -42 -16 -42 -10 0 -15 11 -15 35 0 19 -4 35 -10 35 -5 0 -10 -16
-10 -35 0 -29 -4 -35 -21 -35 -13 0 -18 4 -13 13 6 10 4 10 -7 0 -24 -24 -99
-13 -99 13 0 17 22 18 38 2 9 -9 15 -9 23 -1 9 9 2 16 -25 27 -37 16 -47 41
-24 64 17 17 58 15 78 -3 12 -11 40 -16 85 -17 58 -1 68 -4 75 -22 6 -15 9
-17 9 -5 1 30 60 40 81 14 11 -13 14 -13 27 0 17 17 37 19 63 5 15 -8 20 -6
25 10 7 21 30 27 40 10 3 -5 11 -10 16 -10 6 0 7 5 4 10 -8 14 3 30 21 30 8 0
14 -9 14 -20z m-2291 -27 l20 -38 1 38 c0 26 4 37 15 37 9 0 15 -9 15 -25 0
-22 3 -24 19 -15 31 16 59 12 75 -12 l16 -22 0 22 c0 20 4 22 53 21 69 -1 87
-7 87 -27 0 -13 3 -12 16 6 26 37 84 24 84 -20 0 -14 -8 -18 -32 -18 -17 0
-28 -3 -24 -7 4 -5 16 -8 27 -8 24 0 28 -19 5 -23 -29 -6 -64 7 -69 26 -4 13
-5 11 -6 -5 -1 -16 -7 -23 -21 -23 -16 0 -19 5 -14 29 4 16 1 32 -5 35 -6 4
-11 0 -12 -11 -1 -10 -2 -25 -3 -33 0 -8 -9 -16 -18 -18 -15 -3 -18 4 -18 32
0 20 -4 36 -10 36 -5 0 -10 -16 -10 -35 l0 -36 -85 2 c-79 2 -87 4 -105 28
l-19 26 -1 -27 c0 -21 -5 -28 -20 -28 -18 0 -20 7 -20 65 0 58 2 65 20 65 12
0 27 -13 39 -37z m6017 22 c-4 -11 1 -15 19 -15 16 0 25 -6 25 -15 0 -8 5 -15
10 -15 6 0 10 7 10 15 0 8 9 15 20 15 14 0 18 -5 13 -17 -6 -16 -4 -16 16 1
28 25 74 12 79 -22 3 -19 -1 -22 -29 -22 -18 0 -29 -3 -25 -7 4 -5 16 -8 27
-8 24 0 28 -19 5 -23 -33 -7 -66 8 -66 28 0 28 -17 25 -24 -5 -10 -40 -39 -31
-58 18 l-17 42 0 -43 -1 -43 -42 3 c-40 3 -43 5 -49 38 l-6 35 -2 -38 -1 -38
-42 3 -43 3 -2 42 c-2 39 1 44 24 49 14 4 34 2 44 -4 15 -9 19 -8 24 8 7 21
30 27 40 10 10 -16 25 -12 19 5 -4 11 0 15 16 15 16 0 20 -4 16 -15z m-2422
-31 c15 -14 16 -14 16 0 0 11 10 16 33 16 48 0 59 -12 55 -56 -2 -31 -7 -39
-28 -44 -14 -3 -25 -12 -25 -20 0 -8 -8 -16 -17 -18 -15 -3 -18 4 -18 37 0 39
-1 41 -31 41 -18 0 -28 -4 -24 -10 4 -6 16 -8 27 -4 15 4 19 2 16 -7 -7 -22
-60 -24 -75 -3 -26 35 -4 84 37 84 10 0 26 -7 34 -16z m557 -1 c14 -12 17 -12
22 2 7 16 44 20 63 7 6 -4 14 -17 18 -29 7 -20 4 -23 -23 -23 -17 0 -31 -5
-31 -11 0 -7 10 -9 26 -5 19 5 25 3 22 -6 -6 -17 -56 -22 -74 -7 -10 8 -14 8
-14 0 0 -6 -9 -11 -20 -11 -16 0 -20 7 -20 35 0 19 -4 35 -10 35 -5 0 -10 -16
-10 -35 0 -24 -5 -35 -15 -35 -10 0 -15 11 -15 35 0 19 -4 35 -10 35 -5 0 -10
-16 -10 -35 0 -28 -4 -35 -20 -35 -17 0 -20 7 -20 43 0 24 3 47 7 50 12 13
118 5 134 -10z m-4399 -1032 c29 -26 33 -35 33 -81 0 -46 -4 -55 -34 -82 -30
-27 -39 -30 -83 -26 -65 7 -98 38 -105 99 -4 35 0 50 17 72 44 56 121 64 172
18z m-27 -267 c31 -14 65 -64 65 -94 0 -7 -7 -27 -16 -45 -19 -42 -73 -69
-118 -61 -38 7 -82 49 -91 88 -9 37 19 93 58 112 41 20 61 20 102 0z"/>
<path d="M260 560 c0 -5 -7 -10 -15 -10 -18 0 -37 -67 -25 -90 12 -23 55 -50
79 -50 11 0 32 11 47 23 36 31 36 81 0 114 -25 23 -86 33 -86 13z"/>
</g>
</svg>
