<svg viewBox="0 0 330 200" xmlns="http://www.w3.org/2000/svg"><g><g><g><g><g><line x1="50" y1="178" x2="45" y2="178" style="visibility: inherit;" fill="rgb(0, 0, 0)" stroke="rgb(204, 204, 204)" stroke-width="1px"></line><line x1="50" y1="158.2222222222222" x2="45" y2="158.2222222222222" style="visibility: inherit;" fill="rgb(0, 0, 0)" stroke="rgb(204, 204, 204)" stroke-width="1px"></line><line x1="50" y1="138.44444444444446" x2="45" y2="138.44444444444446" style="visibility: inherit;" fill="rgb(0, 0, 0)" stroke="rgb(204, 204, 204)" stroke-width="1px"></line><line x1="50" y1="118.66666666666669" x2="45" y2="118.66666666666669" style="visibility: inherit;" fill="rgb(0, 0, 0)" stroke="rgb(204, 204, 204)" stroke-width="1px"></line><line x1="50" y1="98.8888888888889" x2="45" y2="98.8888888888889" style="visibility: inherit;" fill="rgb(0, 0, 0)" stroke="rgb(204, 204, 204)" stroke-width="1px"></line><line x1="50" y1="79.1111111111111" x2="45" y2="79.1111111111111" style="visibility: inherit;" fill="rgb(0, 0, 0)" stroke="rgb(204, 204, 204)" stroke-width="1px"></line><line x1="50" y1="59.33333333333334" x2="45" y2="59.33333333333334" style="visibility: inherit;" fill="rgb(0, 0, 0)" stroke="rgb(204, 204, 204)" stroke-width="1px"></line><line x1="50" y1="39.55555555555555" x2="45" y2="39.55555555555555" style="visibility: inherit;" fill="rgb(0, 0, 0)" stroke="rgb(204, 204, 204)" stroke-width="1px"></line><line x1="50" y1="19.777777777777786" x2="45" y2="19.777777777777786" style="visibility: inherit;" fill="rgb(0, 0, 0)" stroke="rgb(204, 204, 204)" stroke-width="1px"></line><line x1="50" y1="0" x2="45" y2="0" style="visibility: inherit;" fill="rgb(0, 0, 0)" stroke="rgb(204, 204, 204)" stroke-width="1px"></line></g><g transform="translate(40, 0)"><text x="0" y="178" dx="0em" dy="0.3em" style="text-anchor: end; visibility: hidden; font-family: Roboto, sans-serif; font-size: 12px; font-weight: 200;" fill="rgb(50, 49, 63)" stroke="none" stroke-width="1px">-0.5</text><text x="0" y="158.2222222222222" dx="0em" dy="0.3em" style="text-anchor: end; visibility: inherit; font-family: Roboto, sans-serif; font-size: 12px; font-weight: 200;" fill="rgb(50, 49, 63)" stroke="none" stroke-width="1px">0</text><text x="0" y="138.44444444444446" dx="0em" dy="0.3em" style="text-anchor: end; visibility: hidden; font-family: Roboto, sans-serif; font-size: 12px; font-weight: 200;" fill="rgb(50, 49, 63)" stroke="none" stroke-width="1px">0.5</text><text x="0" y="118.66666666666669" dx="0em" dy="0.3em" style="text-anchor: end; visibility: inherit; font-family: Roboto, sans-serif; font-size: 12px; font-weight: 200;" fill="rgb(50, 49, 63)" stroke="none" stroke-width="1px">1</text><text x="0" y="98.8888888888889" dx="0em" dy="0.3em" style="text-anchor: end; visibility: hidden; font-family: Roboto, sans-serif; font-size: 12px; font-weight: 200;" fill="rgb(50, 49, 63)" stroke="none" stroke-width="1px">1.5</text><text x="0" y="79.1111111111111" dx="0em" dy="0.3em" style="text-anchor: end; visibility: inherit; font-family: Roboto, sans-serif; font-size: 12px; font-weight: 200;" fill="rgb(50, 49, 63)" stroke="none" stroke-width="1px">2</text><text x="0" y="59.33333333333334" dx="0em" dy="0.3em" style="text-anchor: end; visibility: hidden; font-family: Roboto, sans-serif; font-size: 12px; font-weight: 200;" fill="rgb(50, 49, 63)" stroke="none" stroke-width="1px">2.5</text><text x="0" y="39.55555555555555" dx="0em" dy="0.3em" style="text-anchor: end; visibility: inherit; font-family: Roboto, sans-serif; font-size: 12px; font-weight: 200;" fill="rgb(50, 49, 63)" stroke="none" stroke-width="1px">3</text><text x="0" y="19.777777777777786" dx="0em" dy="0.3em" style="text-anchor: end; visibility: hidden; font-family: Roboto, sans-serif; font-size: 12px; font-weight: 200;" fill="rgb(50, 49, 63)" stroke="none" stroke-width="1px">3.5</text><text x="0" y="0" dx="0em" dy="0.3em" style="text-anchor: end; visibility: hidden; font-family: Roboto, sans-serif; font-size: 12px; font-weight: 200;" fill="rgb(50, 49, 63)" stroke="none" stroke-width="1px">4</text></g><line x1="50" y1="0" x2="50" y2="178" fill="rgb(0, 0, 0)" stroke="rgb(204, 204, 204)" stroke-width="1px"></line></g></g><g transform="translate(50, 0)" clip-path="url(#clip_0)"><clipPath id="clip_0"><rect width="280" height="178"></rect></clipPath><g><g><g><line x1="0" y1="0" x2="0" y2="178" fill="rgb(0, 0, 0)" stroke="rgb(60, 60, 60)" stroke-width="1px" opacity="0.25"></line><line x1="23.333333333333332" y1="0" x2="23.333333333333332" y2="178" fill="rgb(0, 0, 0)" stroke="rgb(60, 60, 60)" stroke-width="1px" opacity="0.25"></line><line x1="46.666666666666664" y1="0" x2="46.666666666666664" y2="178" fill="rgb(0, 0, 0)" stroke="rgb(60, 60, 60)" stroke-width="1px" opacity="0.25"></line><line x1="70" y1="0" x2="70" y2="178" fill="rgb(0, 0, 0)" stroke="rgb(60, 60, 60)" stroke-width="1px" opacity="0.25"></line><line x1="93.33333333333333" y1="0" x2="93.33333333333333" y2="178" fill="rgb(0, 0, 0)" stroke="rgb(60, 60, 60)" stroke-width="1px" opacity="0.25"></line><line x1="116.66666666666667" y1="0" x2="116.66666666666667" y2="178" fill="rgb(0, 0, 0)" stroke="rgb(60, 60, 60)" stroke-width="1px" opacity="0.25"></line><line x1="140" y1="0" x2="140" y2="178" fill="rgb(0, 0, 0)" stroke="rgb(60, 60, 60)" stroke-width="1px" opacity="0.25"></line><line x1="163.33333333333334" y1="0" x2="163.33333333333334" y2="178" fill="rgb(0, 0, 0)" stroke="rgb(60, 60, 60)" stroke-width="1px" opacity="0.25"></line><line x1="186.66666666666666" y1="0" x2="186.66666666666666" y2="178" fill="rgb(0, 0, 0)" stroke="rgb(60, 60, 60)" stroke-width="1px" opacity="0.25"></line><line x1="210" y1="0" x2="210" y2="178" fill="rgb(0, 0, 0)" stroke="rgb(60, 60, 60)" stroke-width="1px" opacity="0.25"></line><line x1="233.33333333333334" y1="0" x2="233.33333333333334" y2="178" fill="rgb(0, 0, 0)" stroke="rgb(60, 60, 60)" stroke-width="1px" opacity="0.25"></line><line x1="256.66666666666663" y1="0" x2="256.66666666666663" y2="178" fill="rgb(0, 0, 0)" stroke="rgb(60, 60, 60)" stroke-width="1px" opacity="0.25"></line><line x1="280" y1="0" x2="280" y2="178" fill="rgb(0, 0, 0)" stroke="rgb(60, 60, 60)" stroke-width="1px" opacity="0.25"></line></g><g><line x1="0" y1="178" x2="280" y2="178" fill="rgb(0, 0, 0)" stroke="rgb(60, 60, 60)" stroke-width="1px" opacity="0.25"></line><line x1="0" y1="158.2222222222222" x2="280" y2="158.2222222222222" fill="rgb(0, 0, 0)" stroke="rgb(60, 60, 60)" stroke-width="1px" opacity="0.25"></line><line x1="0" y1="138.44444444444446" x2="280" y2="138.44444444444446" fill="rgb(0, 0, 0)" stroke="rgb(60, 60, 60)" stroke-width="1px" opacity="0.25"></line><line x1="0" y1="118.66666666666669" x2="280" y2="118.66666666666669" fill="rgb(0, 0, 0)" stroke="rgb(60, 60, 60)" stroke-width="1px" opacity="0.25"></line><line x1="0" y1="98.8888888888889" x2="280" y2="98.8888888888889" fill="rgb(0, 0, 0)" stroke="rgb(60, 60, 60)" stroke-width="1px" opacity="0.25"></line><line x1="0" y1="79.1111111111111" x2="280" y2="79.1111111111111" fill="rgb(0, 0, 0)" stroke="rgb(60, 60, 60)" stroke-width="1px" opacity="0.25"></line><line x1="0" y1="59.33333333333334" x2="280" y2="59.33333333333334" fill="rgb(0, 0, 0)" stroke="rgb(60, 60, 60)" stroke-width="1px" opacity="0.25"></line><line x1="0" y1="39.55555555555555" x2="280" y2="39.55555555555555" fill="rgb(0, 0, 0)" stroke="rgb(60, 60, 60)" stroke-width="1px" opacity="0.25"></line><line x1="0" y1="19.777777777777786" x2="280" y2="19.777777777777786" fill="rgb(0, 0, 0)" stroke="rgb(60, 60, 60)" stroke-width="1px" opacity="0.25"></line><line x1="0" y1="0" x2="280" y2="0" fill="rgb(0, 0, 0)" stroke="rgb(60, 60, 60)" stroke-width="1px" opacity="0.25"></line></g></g></g><g><g><line x1="0" y1="158.2222222222222" x2="280" y2="158.2222222222222" fill="rgb(0, 0, 0)" stroke="rgb(153, 153, 153)" stroke-width="1.5px"></line></g></g><g><g><line x1="23.333333333333332" y1="0" x2="23.333333333333332" y2="178" fill="rgb(0, 0, 0)" stroke="rgb(153, 153, 153)" stroke-width="1.5px"></line></g></g><g><g><g><g><g><path stroke="rgb(0, 153, 136)" stroke-width="2px" d="M37.333333333333336,-47.232643763224296L42,20.355846828884545L46.666666666666664,20.502401140001087L51.33333333333333,8.587281015184193L56,10.499927944607201L60.66666666666667,10.570979436238613L65.33333333333333,25.054308255513515L70,23.78531201680502L74.66666666666667,27.859257804022903L79.33333333333333,34.15536869896782L84,33.816049257914216L88.66666666666666,35.52785831027561L93.33333333333333,33.52454386817085L98,34.9030786090427L102.66666666666666,35.4399634467231L107.33333333333334,32.72445540957981L112,34.55013169182671L116.66666666666667,32.81533983018664L121.33333333333334,32.00627326965332L126,32.29344050089517L130.66666666666666,33.93551837073433L135.33333333333334,32.89078606499565L140,33.23115232255724L144.66666666666669,32.437363624572754L149.33333333333334,31.807859102884922L154,31.778736856248646L158.66666666666666,32.243080139160156L163.33333333333334,31.92769601609972L168,31.64763016170925L172.66666666666669,32.0215982860989L177.33333333333331,32.031811820136184L182,32.196746720208054L186.66666666666666,32.30708683861626L191.33333333333334,32.865238083733445L196,32.249842007954925L200.66666666666666,31.682146814134388L205.33333333333331,32.000699679056794L210,32.06198088328043L214.66666666666669,32.09295156266955L219.33333333333334,32.233309851752395L224,32.23481877644858L228.66666666666666,32.148027314080124L233.33333333333334,32.061745113796654L238,32.03837564256457L242.66666666666669,32.13425837622749L247.33333333333331,32.130995326572L252,32.20696968502468" style="fill: none;" fill="none"></path></g><g><path stroke="rgb(51, 187, 238)" stroke-width="2px" d="M23.333333333333332,135.8052903546227L28,138.07056591245862L32.666666666666664,137.95325173272025L37.333333333333336,135.0957798163096L42,142.15780791971417L46.666666666666664,141.95671423276266L51.33333333333333,142.16437056329517L56,141.15704544385275L60.66666666666667,140.39689751466116L65.33333333333333,141.54430978828006L70,141.69129084216226L74.66666666666667,141.50406275855173L79.33333333333333,141.7328664329317L84,141.6084379090203L88.66666666666666,141.8661669625176L93.33333333333333,141.72035414642758L98,141.7136288219028L102.66666666666666,141.37476087941062L107.33333333333334,141.16428592469958L112,141.59186449315814L116.66666666666667,141.4427791966332L121.33333333333334,141.3775288131502L126,141.18213839001126L130.66666666666666,141.22726702690125L135.33333333333334,141.30998675028482L140,141.28682475619846L144.66666666666669,141.35574607054392L149.33333333333334,141.4712200694614L154,141.37360089355045L158.66666666666666,141.4259900516934L163.33333333333334,141.41252407762738L168,141.3604873948627L172.66666666666669,141.4080739286211L177.33333333333331,141.44202473428516L182,141.4270816644033L186.66666666666666,141.39124823941123L191.33333333333334,141.43257862991757L196,141.3836446735594L200.66666666666666,141.38486124409567L205.33333333333331,141.37743686305154L210,141.3926793601778L214.66666666666669,141.37918627262115L219.33333333333334,141.38019772370657L224,141.37385552459293L228.66666666666666,141.36990638573965L233.33333333333334,141.37443433867563L238,141.36711251735687L242.66666666666669,141.35487372345395L247.33333333333331,141.35315850045947L252,141.34965732362537" style="fill: none;" fill="none"></path></g><g><path stroke="rgb(204, 51, 17)" stroke-width="2px" d="M23.333333333333332,137.88620360692343L28,138.05530219607883L32.666666666666664,136.67500154177347L37.333333333333336,133.46596431732178L42,135.8287069797516L46.666666666666664,132.60536562071908L51.33333333333333,129.6382514635722L56,130.9357852405972L60.66666666666667,130.2665441301134L65.33333333333333,130.7175216409895L70,130.8623571925693L74.66666666666667,129.7526279555427L79.33333333333333,129.57258494695026L84,128.85453012254504L88.66666666666666,128.10495527585346L93.33333333333333,128.61618839369882L98,128.29378069771658L102.66666666666666,128.08149856991238L107.33333333333334,127.70898514323765L112,127.22140442000496L116.66666666666667,126.4999356534746L121.33333333333334,126.81178559197319L126,126.21502945158217L130.66666666666666,125.37228322029114L135.33333333333334,126.41985419061449L140,124.66380299462212L144.66666666666669,124.8940483993954L149.33333333333334,124.48708905114067L154,123.3154043091668L158.66666666666666,124.84775741895038L163.33333333333334,124.5487003326416L168,124.26699823803371L172.66666666666669,124.6763270696004L177.33333333333331,124.137742333942L182,124.03259150187176L186.66666666666666,124.1614748901791L191.33333333333334,123.49762818548415L196,123.3924207687378L200.66666666666666,123.01862004068163L205.33333333333331,122.85989295111763L210,123.01199727588231L214.66666666666669,123.3771499792735L219.33333333333334,123.20334543122185L224,122.76182463434007L228.66666666666666,122.98236812485588L233.33333333333334,122.69670274522569L238,122.92663929197523L242.66666666666669,122.8630687660641L247.33333333333331,122.78476028972203L252,122.70551816622418" style="fill: none;" fill="none"></path></g><g><path stroke="rgb(0, 119, 187)" stroke-width="2px" d="M23.333333333333332,142.7510628832711L28,145.30016599761117L32.666666666666664,146.64724555280475L37.333333333333336,147.3132212559382L42,147.70795124106937L46.666666666666664,148.03604216045804L51.33333333333333,148.16773827870688L56,148.35416474607257L60.66666666666667,148.535071849823L65.33333333333333,148.63694607549243L70,148.6549659371376L74.66666666666667,148.68152949545117L79.33333333333333,148.78456783294678L84,148.87639651033612L88.66666666666666,148.89698390165964L93.33333333333333,148.9253664215406L98,148.93251023689905L102.66666666666666,148.99683522515826L107.33333333333334,148.96546255879932L112,148.9860853155454L116.66666666666667,148.98412960767746L121.33333333333334,149.0065453913477L126,149.00815569692188L130.66666666666666,149.02891402112115L135.33333333333334,149.03501809305615L140,149.03651994466782L144.66666666666669,149.04837679200702L149.33333333333334,149.05310043361453L154,149.0436708331108L158.66666666666666,149.05323423279654L163.33333333333334,149.06056253777612L168,149.06292435857983L172.66666666666669,149.06039337317148L177.33333333333331,149.06204434898166L182,149.06340002351337L186.66666666666666,149.06319903002847L191.33333333333334,149.06483527024588L196,149.06544827090372L200.66666666666666,149.06983358330197L205.33333333333331,149.071156250106L210,149.0693431827757L214.66666666666669,149.07014479902057L219.33333333333334,149.07075131601758L224,149.07034520308176L228.66666666666666,149.07149104277292L233.33333333333334,149.07165961795383L238,149.07209343380399L242.66666666666669,149.07366955280304L247.33333333333331,149.07293100489508L252,149.07350097762216" style="fill: none;" fill="none"></path></g><g><path stroke="rgb(255, 112, 67)" stroke-width="2px" d="M23.333333333333332,138.2745442390442L28,140.00923471980624L32.666666666666664,140.30452067322202L37.333333333333336,137.29964685440063L42,142.37198209762573L46.666666666666664,142.86593449115753L51.33333333333333,142.30402625931632L56,141.971076130867L60.66666666666667,141.83815990553964L65.33333333333333,142.0708832475874L70,142.27133210500082L74.66666666666667,142.18068109618295L79.33333333333333,142.21153389083017L84,142.15008175373077L88.66666666666666,142.28685870435504L93.33333333333333,142.3392242855496L98,142.33934924337598L102.66666666666666,142.32070812914105L107.33333333333334,142.24136580361258L112,142.28910087214578L116.66666666666667,142.31997488604654L121.33333333333334,142.32547303040823L126,142.31555067168344L130.66666666666666,142.31210607952542L135.33333333333334,142.3045791387558L140,142.30702760484485L144.66666666666669,142.3033130566279L149.33333333333334,142.3045496675703L154,142.30278021759457L158.66666666666666,142.3025951385498L163.33333333333334,142.30351581838397L168,142.3034639490975L172.66666666666669,142.30625074439578L177.33333333333331,142.30804377131992L182,142.30825596385532L186.66666666666666,142.30822767151724L191.33333333333334,142.30845872561136L196,142.3086555931303L200.66666666666666,142.30867563353647L205.33333333333331,142.30876286824545L210,142.30891140302023L214.66666666666669,142.3090151415931L219.33333333333334,142.3089833127128L224,142.30902103583017L228.66666666666666,142.30903282430438L233.33333333333334,142.30903989738889L238,142.30905875894757L242.66666666666669,142.30905640125275L247.33333333333331,142.309059937795L252,142.30905875894757" style="fill: none;" fill="none"></path></g></g></g></g></g></g><g transform="translate(50, 178)" clip-path="url(#clip_1)"><clipPath id="clip_1"><rect width="280" height="22"></rect></clipPath><g><g><line x1="0" y1="0" x2="0" y2="5" style="visibility: inherit;" fill="rgb(0, 0, 0)" stroke="rgb(204, 204, 204)" stroke-width="1px"></line><line x1="23.333333333333332" y1="0" x2="23.333333333333332" y2="5" style="visibility: inherit;" fill="rgb(0, 0, 0)" stroke="rgb(204, 204, 204)" stroke-width="1px"></line><line x1="46.666666666666664" y1="0" x2="46.666666666666664" y2="5" style="visibility: inherit;" fill="rgb(0, 0, 0)" stroke="rgb(204, 204, 204)" stroke-width="1px"></line><line x1="70" y1="0" x2="70" y2="5" style="visibility: inherit;" fill="rgb(0, 0, 0)" stroke="rgb(204, 204, 204)" stroke-width="1px"></line><line x1="93.33333333333333" y1="0" x2="93.33333333333333" y2="5" style="visibility: inherit;" fill="rgb(0, 0, 0)" stroke="rgb(204, 204, 204)" stroke-width="1px"></line><line x1="116.66666666666667" y1="0" x2="116.66666666666667" y2="5" style="visibility: inherit;" fill="rgb(0, 0, 0)" stroke="rgb(204, 204, 204)" stroke-width="1px"></line><line x1="140" y1="0" x2="140" y2="5" style="visibility: inherit;" fill="rgb(0, 0, 0)" stroke="rgb(204, 204, 204)" stroke-width="1px"></line><line x1="163.33333333333334" y1="0" x2="163.33333333333334" y2="5" style="visibility: inherit;" fill="rgb(0, 0, 0)" stroke="rgb(204, 204, 204)" stroke-width="1px"></line><line x1="186.66666666666666" y1="0" x2="186.66666666666666" y2="5" style="visibility: inherit;" fill="rgb(0, 0, 0)" stroke="rgb(204, 204, 204)" stroke-width="1px"></line><line x1="210" y1="0" x2="210" y2="5" style="visibility: inherit;" fill="rgb(0, 0, 0)" stroke="rgb(204, 204, 204)" stroke-width="1px"></line><line x1="233.33333333333334" y1="0" x2="233.33333333333334" y2="5" style="visibility: inherit;" fill="rgb(0, 0, 0)" stroke="rgb(204, 204, 204)" stroke-width="1px"></line><line x1="256.66666666666663" y1="0" x2="256.66666666666663" y2="5" style="visibility: inherit;" fill="rgb(0, 0, 0)" stroke="rgb(204, 204, 204)" stroke-width="1px"></line><line x1="280" y1="0" x2="280" y2="5" style="visibility: inherit;" fill="rgb(0, 0, 0)" stroke="rgb(204, 204, 204)" stroke-width="1px"></line></g><g transform="translate(0, 8)"><text x="0" y="0" dx="0em" dy="0.95em" style="text-anchor: middle; visibility: hidden; font-family: Roboto, sans-serif; font-size: 12px; font-weight: 200;" fill="rgb(50, 49, 63)" stroke="none" stroke-width="1px">-5</text><text x="23.333333333333332" y="0" dx="0em" dy="0.95em" style="text-anchor: middle; visibility: inherit; font-family: Roboto, sans-serif; font-size: 12px; font-weight: 200;" fill="rgb(50, 49, 63)" stroke="none" stroke-width="1px">0</text><text x="46.666666666666664" y="0" dx="0em" dy="0.95em" style="text-anchor: middle; visibility: inherit; font-family: Roboto, sans-serif; font-size: 12px; font-weight: 200;" fill="rgb(50, 49, 63)" stroke="none" stroke-width="1px">5</text><text x="70" y="0" dx="0em" dy="0.95em" style="text-anchor: middle; visibility: inherit; font-family: Roboto, sans-serif; font-size: 12px; font-weight: 200;" fill="rgb(50, 49, 63)" stroke="none" stroke-width="1px">10</text><text x="93.33333333333333" y="0" dx="0em" dy="0.95em" style="text-anchor: middle; visibility: inherit; font-family: Roboto, sans-serif; font-size: 12px; font-weight: 200;" fill="rgb(50, 49, 63)" stroke="none" stroke-width="1px">15</text><text x="116.66666666666667" y="0" dx="0em" dy="0.95em" style="text-anchor: middle; visibility: inherit; font-family: Roboto, sans-serif; font-size: 12px; font-weight: 200;" fill="rgb(50, 49, 63)" stroke="none" stroke-width="1px">20</text><text x="140" y="0" dx="0em" dy="0.95em" style="text-anchor: middle; visibility: inherit; font-family: Roboto, sans-serif; font-size: 12px; font-weight: 200;" fill="rgb(50, 49, 63)" stroke="none" stroke-width="1px">25</text><text x="163.33333333333334" y="0" dx="0em" dy="0.95em" style="text-anchor: middle; visibility: inherit; font-family: Roboto, sans-serif; font-size: 12px; font-weight: 200;" fill="rgb(50, 49, 63)" stroke="none" stroke-width="1px">30</text><text x="186.66666666666666" y="0" dx="0em" dy="0.95em" style="text-anchor: middle; visibility: inherit; font-family: Roboto, sans-serif; font-size: 12px; font-weight: 200;" fill="rgb(50, 49, 63)" stroke="none" stroke-width="1px">35</text><text x="210" y="0" dx="0em" dy="0.95em" style="text-anchor: middle; visibility: inherit; font-family: Roboto, sans-serif; font-size: 12px; font-weight: 200;" fill="rgb(50, 49, 63)" stroke="none" stroke-width="1px">40</text><text x="233.33333333333334" y="0" dx="0em" dy="0.95em" style="text-anchor: middle; visibility: inherit; font-family: Roboto, sans-serif; font-size: 12px; font-weight: 200;" fill="rgb(50, 49, 63)" stroke="none" stroke-width="1px">45</text><text x="256.66666666666663" y="0" dx="0em" dy="0.95em" style="text-anchor: middle; visibility: inherit; font-family: Roboto, sans-serif; font-size: 12px; font-weight: 200;" fill="rgb(50, 49, 63)" stroke="none" stroke-width="1px">50</text><text x="280" y="0" dx="0em" dy="0.95em" style="text-anchor: middle; visibility: hidden; font-family: Roboto, sans-serif; font-size: 12px; font-weight: 200;" fill="rgb(50, 49, 63)" stroke="none" stroke-width="1px">55</text></g><line x1="0" y1="0" x2="280" y2="0" fill="rgb(0, 0, 0)" stroke="rgb(204, 204, 204)" stroke-width="1px"></line></g></g></g></g></svg>