<svg viewBox="0 0 772.7999877929688 400" xmlns="http://www.w3.org/2000/svg"><g><g><g><g><g><line x1="50" y1="378" x2="45" y2="378" style="visibility: inherit;" fill="rgb(0, 0, 0)" stroke="rgb(204, 204, 204)" stroke-width="1px"></line><line x1="50" y1="340.2" x2="45" y2="340.2" style="visibility: inherit;" fill="rgb(0, 0, 0)" stroke="rgb(204, 204, 204)" stroke-width="1px"></line><line x1="50" y1="302.40000000000003" x2="45" y2="302.40000000000003" style="visibility: inherit;" fill="rgb(0, 0, 0)" stroke="rgb(204, 204, 204)" stroke-width="1px"></line><line x1="50" y1="264.59999999999997" x2="45" y2="264.59999999999997" style="visibility: inherit;" fill="rgb(0, 0, 0)" stroke="rgb(204, 204, 204)" stroke-width="1px"></line><line x1="50" y1="226.79999999999998" x2="45" y2="226.79999999999998" style="visibility: inherit;" fill="rgb(0, 0, 0)" stroke="rgb(204, 204, 204)" stroke-width="1px"></line><line x1="50" y1="189" x2="45" y2="189" style="visibility: inherit;" fill="rgb(0, 0, 0)" stroke="rgb(204, 204, 204)" stroke-width="1px"></line><line x1="50" y1="151.20000000000002" x2="45" y2="151.20000000000002" style="visibility: inherit;" fill="rgb(0, 0, 0)" stroke="rgb(204, 204, 204)" stroke-width="1px"></line><line x1="50" y1="113.40000000000002" x2="45" y2="113.40000000000002" style="visibility: inherit;" fill="rgb(0, 0, 0)" stroke="rgb(204, 204, 204)" stroke-width="1px"></line><line x1="50" y1="75.60000000000002" x2="45" y2="75.60000000000002" style="visibility: inherit;" fill="rgb(0, 0, 0)" stroke="rgb(204, 204, 204)" stroke-width="1px"></line><line x1="50" y1="37.79999999999999" x2="45" y2="37.79999999999999" style="visibility: inherit;" fill="rgb(0, 0, 0)" stroke="rgb(204, 204, 204)" stroke-width="1px"></line><line x1="50" y1="0" x2="45" y2="0" style="visibility: inherit;" fill="rgb(0, 0, 0)" stroke="rgb(204, 204, 204)" stroke-width="1px"></line></g><g transform="translate(40, 0)"><text x="0" y="378" dx="0em" dy="0.3em" style="text-anchor: end; visibility: hidden; font-family: Roboto, sans-serif; font-size: 12px; font-weight: 200;" fill="rgb(50, 49, 63)" stroke="none" stroke-width="1px">-0.2</text><text x="0" y="340.2" dx="0em" dy="0.3em" style="text-anchor: end; visibility: inherit; font-family: Roboto, sans-serif; font-size: 12px; font-weight: 200;" fill="rgb(50, 49, 63)" stroke="none" stroke-width="1px">0</text><text x="0" y="302.40000000000003" dx="0em" dy="0.3em" style="text-anchor: end; visibility: inherit; font-family: Roboto, sans-serif; font-size: 12px; font-weight: 200;" fill="rgb(50, 49, 63)" stroke="none" stroke-width="1px">0.2</text><text x="0" y="264.59999999999997" dx="0em" dy="0.3em" style="text-anchor: end; visibility: inherit; font-family: Roboto, sans-serif; font-size: 12px; font-weight: 200;" fill="rgb(50, 49, 63)" stroke="none" stroke-width="1px">0.4</text><text x="0" y="226.79999999999998" dx="0em" dy="0.3em" style="text-anchor: end; visibility: inherit; font-family: Roboto, sans-serif; font-size: 12px; font-weight: 200;" fill="rgb(50, 49, 63)" stroke="none" stroke-width="1px">0.6</text><text x="0" y="189" dx="0em" dy="0.3em" style="text-anchor: end; visibility: inherit; font-family: Roboto, sans-serif; font-size: 12px; font-weight: 200;" fill="rgb(50, 49, 63)" stroke="none" stroke-width="1px">0.8</text><text x="0" y="151.20000000000002" dx="0em" dy="0.3em" style="text-anchor: end; visibility: inherit; font-family: Roboto, sans-serif; font-size: 12px; font-weight: 200;" fill="rgb(50, 49, 63)" stroke="none" stroke-width="1px">1</text><text x="0" y="113.40000000000002" dx="0em" dy="0.3em" style="text-anchor: end; visibility: inherit; font-family: Roboto, sans-serif; font-size: 12px; font-weight: 200;" fill="rgb(50, 49, 63)" stroke="none" stroke-width="1px">1.2</text><text x="0" y="75.60000000000002" dx="0em" dy="0.3em" style="text-anchor: end; visibility: inherit; font-family: Roboto, sans-serif; font-size: 12px; font-weight: 200;" fill="rgb(50, 49, 63)" stroke="none" stroke-width="1px">1.4</text><text x="0" y="37.79999999999999" dx="0em" dy="0.3em" style="text-anchor: end; visibility: inherit; font-family: Roboto, sans-serif; font-size: 12px; font-weight: 200;" fill="rgb(50, 49, 63)" stroke="none" stroke-width="1px">1.6</text><text x="0" y="0" dx="0em" dy="0.3em" style="text-anchor: end; visibility: hidden; font-family: Roboto, sans-serif; font-size: 12px; font-weight: 200;" fill="rgb(50, 49, 63)" stroke="none" stroke-width="1px">1.8</text></g><line x1="50" y1="0" x2="50" y2="378" fill="rgb(0, 0, 0)" stroke="rgb(204, 204, 204)" stroke-width="1px"></line></g></g><g transform="translate(50, 0)" clip-path="url(#clip_0)"><clipPath id="clip_0"><rect width="722" height="378"></rect></clipPath><g><g><g><line x1="0" y1="0" x2="0" y2="378" fill="rgb(0, 0, 0)" stroke="rgb(60, 60, 60)" stroke-width="1px" opacity="0.25"></line><line x1="60.23333333333333" y1="0" x2="60.23333333333333" y2="378" fill="rgb(0, 0, 0)" stroke="rgb(60, 60, 60)" stroke-width="1px" opacity="0.25"></line><line x1="120.46666666666665" y1="0" x2="120.46666666666665" y2="378" fill="rgb(0, 0, 0)" stroke="rgb(60, 60, 60)" stroke-width="1px" opacity="0.25"></line><line x1="180.7" y1="0" x2="180.7" y2="378" fill="rgb(0, 0, 0)" stroke="rgb(60, 60, 60)" stroke-width="1px" opacity="0.25"></line><line x1="240.9333333333333" y1="0" x2="240.9333333333333" y2="378" fill="rgb(0, 0, 0)" stroke="rgb(60, 60, 60)" stroke-width="1px" opacity="0.25"></line><line x1="301.1666666666667" y1="0" x2="301.1666666666667" y2="378" fill="rgb(0, 0, 0)" stroke="rgb(60, 60, 60)" stroke-width="1px" opacity="0.25"></line><line x1="361.4" y1="0" x2="361.4" y2="378" fill="rgb(0, 0, 0)" stroke="rgb(60, 60, 60)" stroke-width="1px" opacity="0.25"></line><line x1="421.6333333333333" y1="0" x2="421.6333333333333" y2="378" fill="rgb(0, 0, 0)" stroke="rgb(60, 60, 60)" stroke-width="1px" opacity="0.25"></line><line x1="481.8666666666666" y1="0" x2="481.8666666666666" y2="378" fill="rgb(0, 0, 0)" stroke="rgb(60, 60, 60)" stroke-width="1px" opacity="0.25"></line><line x1="542.0999999999999" y1="0" x2="542.0999999999999" y2="378" fill="rgb(0, 0, 0)" stroke="rgb(60, 60, 60)" stroke-width="1px" opacity="0.25"></line><line x1="602.3333333333334" y1="0" x2="602.3333333333334" y2="378" fill="rgb(0, 0, 0)" stroke="rgb(60, 60, 60)" stroke-width="1px" opacity="0.25"></line><line x1="662.5666666666666" y1="0" x2="662.5666666666666" y2="378" fill="rgb(0, 0, 0)" stroke="rgb(60, 60, 60)" stroke-width="1px" opacity="0.25"></line><line x1="722.8" y1="0" x2="722.8" y2="378" fill="rgb(0, 0, 0)" stroke="rgb(60, 60, 60)" stroke-width="1px" opacity="0.25"></line></g><g><line x1="0" y1="378" x2="722.8" y2="378" fill="rgb(0, 0, 0)" stroke="rgb(60, 60, 60)" stroke-width="1px" opacity="0.25"></line><line x1="0" y1="340.2" x2="722.8" y2="340.2" fill="rgb(0, 0, 0)" stroke="rgb(60, 60, 60)" stroke-width="1px" opacity="0.25"></line><line x1="0" y1="302.40000000000003" x2="722.8" y2="302.40000000000003" fill="rgb(0, 0, 0)" stroke="rgb(60, 60, 60)" stroke-width="1px" opacity="0.25"></line><line x1="0" y1="264.59999999999997" x2="722.8" y2="264.59999999999997" fill="rgb(0, 0, 0)" stroke="rgb(60, 60, 60)" stroke-width="1px" opacity="0.25"></line><line x1="0" y1="226.79999999999998" x2="722.8" y2="226.79999999999998" fill="rgb(0, 0, 0)" stroke="rgb(60, 60, 60)" stroke-width="1px" opacity="0.25"></line><line x1="0" y1="189" x2="722.8" y2="189" fill="rgb(0, 0, 0)" stroke="rgb(60, 60, 60)" stroke-width="1px" opacity="0.25"></line><line x1="0" y1="151.20000000000002" x2="722.8" y2="151.20000000000002" fill="rgb(0, 0, 0)" stroke="rgb(60, 60, 60)" stroke-width="1px" opacity="0.25"></line><line x1="0" y1="113.40000000000002" x2="722.8" y2="113.40000000000002" fill="rgb(0, 0, 0)" stroke="rgb(60, 60, 60)" stroke-width="1px" opacity="0.25"></line><line x1="0" y1="75.60000000000002" x2="722.8" y2="75.60000000000002" fill="rgb(0, 0, 0)" stroke="rgb(60, 60, 60)" stroke-width="1px" opacity="0.25"></line><line x1="0" y1="37.79999999999999" x2="722.8" y2="37.79999999999999" fill="rgb(0, 0, 0)" stroke="rgb(60, 60, 60)" stroke-width="1px" opacity="0.25"></line><line x1="0" y1="0" x2="722.8" y2="0" fill="rgb(0, 0, 0)" stroke="rgb(60, 60, 60)" stroke-width="1px" opacity="0.25"></line></g></g></g><g><g><line x1="0" y1="340.2" x2="722.8" y2="340.2" fill="rgb(0, 0, 0)" stroke="rgb(153, 153, 153)" stroke-width="1.5px"></line></g></g><g><g><line x1="60.23333333333333" y1="0" x2="60.23333333333333" y2="378" fill="rgb(0, 0, 0)" stroke="rgb(153, 153, 153)" stroke-width="1.5px"></line></g></g><g><g><g><g><g><path stroke="rgb(187, 187, 187)" stroke-width="2px" d="M60.23333333333333,218.84371275901796L72.28,292.4924100458622L84.32666666666667,310.8888876110315L96.37333333333332,320.30210873186587L108.41999999999999,324.9597463130951L120.46666666666665,326.1236691892147L132.51333333333332,328.61770876944064L144.56,329.3515916325152L156.60666666666665,329.393813893944L168.65333333333334,330.48265721350907L180.7,331.1612803682685L192.74666666666664,331.2326909646392L204.79333333333332,331.0991051875055L216.83999999999997,331.20000757724046L228.88666666666663,332.6804129451513L240.9333333333333,332.57461579218506L252.97999999999996,332.1929087497294L265.02666666666664,332.6627356119454L277.0733333333333,331.97200228348373L289.12,332.6563418626785L301.1666666666667,332.4124683111906L313.2133333333333,332.5258920572698L325.26,332.4947632782161L337.3066666666667,332.8483697891235L349.3533333333333,332.0251567929983L361.4,332.65847522467374L373.44666666666666,332.5560858182609L385.4933333333333,333.02935070246457L397.54,332.78393099159L409.58666666666664,332.5642355427146L421.6333333333333,332.7071362964809L433.67999999999995,332.852409799397L445.7266666666667,332.92667403146623L457.77333333333326,332.1904395416379L469.82,332.6823611341417L481.8666666666666,332.6204851873219L493.9133333333333,332.03977560326456L505.9599999999999,332.282982391119L518.0066666666667,333.2081707946956L530.0533333333333,332.31440336331724L542.0999999999999,331.9615262791514L554.1466666666666,332.0610099479556L566.1933333333333,332.5671152293682L578.24,332.9878205515444L590.2866666666666,332.86861490160226L602.3333333333334,332.5656838349998L614.38,332.8456097960472L626.4266666666666,333.5524602167308L638.4733333333332,333.3271687410772L650.52,332.4626621648669" style="fill: none;" fill="none"></path></g><g><path stroke="rgb(255, 112, 67)" stroke-width="2px" d="M60.23333333333333,216.87216521501543L72.28,279.11584450006484L84.32666666666667,289.7178960263729L96.37333333333332,294.80137800872325L108.41999999999999,297.239741769433L120.46666666666665,299.25339047312735L132.51333333333332,300.45002489984034L144.56,300.51313298642634L156.60666666666665,300.9697682082653L168.65333333333334,301.21398253440856L180.7,301.1336104094982L192.74666666666664,301.2243888348341L204.79333333333332,301.8100114881992L216.83999999999997,300.85103781223296L228.88666666666663,301.2918171554804L240.9333333333333,301.6836432337761L252.97999999999996,301.269883659482L265.02666666666664,301.2299538820982L277.0733333333333,301.50168083310126L289.12,301.2675235837698L301.1666666666667,301.5978384286165L313.2133333333333,301.44825243651866L325.26,301.37349886894225L337.3066666666667,301.5263574242592L349.3533333333333,301.73537057340144L361.4,301.4013607174158L373.44666666666666,301.12219868302344L385.4933333333333,301.2470348596573L397.54,301.0788301795721L409.58666666666664,301.3244442164898L421.6333333333333,301.20253419578074L433.67999999999995,301.0965476453304L445.7266666666667,300.95476567447184L457.77333333333326,301.22454091608523L469.82,301.1048445224762L481.8666666666666,301.45087724626063L493.9133333333333,301.2565258562565L505.9599999999999,301.44813696742057L518.0066666666667,301.2332377105951L530.0533333333333,301.19099291861056L542.0999999999999,301.60767864882945L554.1466666666666,301.2029819905758L566.1933333333333,301.40355463027953L578.24,301.87755246162413L590.2866666666666,301.3633798331022L602.3333333333334,301.43756450414656L614.38,301.17016905248164L626.4266666666666,301.24513666033744L638.4733333333332,300.9012809514999L650.52,301.2894458144903" style="fill: none;" fill="none"></path></g><g><path stroke="rgb(204, 51, 17)" stroke-width="2px" d="M60.23333333333333,224.09755672216417L72.28,298.8037312746048L84.32666666666667,317.5376658707857L96.37333333333332,323.6693214073777L108.41999999999999,325.5440213575959L120.46666666666665,328.0591185584664L132.51333333333332,328.44562460929154L144.56,328.8047989837825L156.60666666666665,328.83786187022923L168.65333333333334,329.24326612874864L180.7,330.21948060840367L192.74666666666664,329.6988403022289L204.79333333333332,330.41383340656756L216.83999999999997,330.456642870605L228.88666666666663,330.39674257189034L240.9333333333333,330.2931104645133L252.97999999999996,330.26566754356026L265.02666666666664,330.5027889691293L277.0733333333333,329.5407539539039L289.12,329.8494584754109L301.1666666666667,330.1732331223786L313.2133333333333,329.57404848262667L325.26,330.43982099443673L337.3066666666667,329.8650890484452L349.3533333333333,330.4744736932218L361.4,329.84198537170886L373.44666666666666,329.70498903170227L385.4933333333333,330.73438547998666L397.54,329.49391644895076L409.58666666666664,329.93162952437996L421.6333333333333,330.4010487243533L433.67999999999995,329.7686596781015L445.7266666666667,330.24584699124097L457.77333333333326,329.9513592503965L469.82,330.65245945081114L481.8666666666666,329.83491711393L493.9133333333333,329.8191872656345L505.9599999999999,330.57883100286125L518.0066666666667,329.97345046028494L530.0533333333333,329.8293788217008L542.0999999999999,330.72752703800796L554.1466666666666,329.9729378901422L566.1933333333333,329.8431456953287L578.24,330.6401852265L590.2866666666666,330.23024176508187L602.3333333333334,330.8804707869887L614.38,329.8987504027784L626.4266666666666,329.67205640003084L638.4733333333332,330.4904492653906L650.52,330.3208519153297" style="fill: none;" fill="none"></path></g><g><path stroke="rgb(0, 119, 187)" stroke-width="2px" d="M60.23333333333333,215.35065425634386L72.28,280.12003136873244L84.32666666666667,293.5802190721035L96.37333333333332,300.30706570744513L108.41999999999999,305.3198721528053L120.46666666666665,309.1587549716234L132.51333333333332,311.9321480959654L144.56,314.4701278924942L156.60666666666665,315.63014734983443L168.65333333333334,317.60701914578675L180.7,318.3532790288329L192.74666666666664,319.1618682861328L204.79333333333332,320.1439019858837L216.83999999999997,320.34556876569985L228.88666666666663,321.48362233936786L240.9333333333333,321.32997803092L252.97999999999996,321.8326713413L265.02666666666664,322.3591231226921L277.0733333333333,322.5251198083162L289.12,323.00037653446196L301.1666666666667,322.9507163733244L313.2133333333333,323.5279027417302L325.26,323.6294690787792L337.3066666666667,323.8563489586115L349.3533333333333,323.85878929942845L361.4,323.83169771432875L373.44666666666666,324.40954028517007L385.4933333333333,324.4636854350567L397.54,324.701132145524L409.58666666666664,324.4666608765721L421.6333333333333,324.394751791656L433.67999999999995,324.69795815348624L445.7266666666667,324.7093093290925L457.77333333333326,325.2125067606568L469.82,325.26478609889745L481.8666666666666,324.96393699645995L493.9133333333333,324.84206640422343L505.9599999999999,324.7902235955L518.0066666666667,325.3730792149901L530.0533333333333,324.5312278166413L542.0999999999999,325.2225765109062L554.1466666666666,324.91040157973765L566.1933333333333,324.76391494721173L578.24,325.3151348501444L590.2866666666666,325.1437927901745L602.3333333333334,325.0424419015646L614.38,325.4535132989287L626.4266666666666,325.5409177735448L638.4733333333332,325.1165392667055L650.52,325.4392120286822" style="fill: none;" fill="none"></path></g><g><path stroke="rgb(238, 51, 119)" stroke-width="2px" d="M72.28,-29.980432677269015L84.32666666666667,177.45304287672045L96.37333333333332,252.87588061094286L108.41999999999999,283.1178288280964L120.46666666666665,306.4775427997112L132.51333333333332,310.4831123024225L144.56,312.42076825797557L156.60666666666665,316.9566436752677L168.65333333333334,315.79519211947917L180.7,313.3499452739954L192.74666666666664,317.2426000803709L204.79333333333332,315.85501356124877L216.83999999999997,318.8193292066455L228.88666666666663,318.176055085659L240.9333333333333,314.82758360803126L252.97999999999996,317.30621792078017L265.02666666666664,314.5541612327099L277.0733333333333,321.353194360435L289.12,323.0088269010186L301.1666666666667,317.6429863616824L313.2133333333333,318.5499144539237L325.26,319.2201787725091L337.3066666666667,322.4063908204436L349.3533333333333,323.3090634539723L361.4,318.4230885475874L373.44666666666666,317.6109591767192L385.4933333333333,319.79704971313475L397.54,322.530507427454L409.58666666666664,320.9514618784189L421.6333333333333,321.6101285934448L433.67999999999995,317.21366239786147L445.7266666666667,320.2382261574268L457.77333333333326,320.6490877389908L469.82,321.5028338626027L481.8666666666666,317.96693914085625L493.9133333333333,317.47747830748557L505.9599999999999,318.5974511101842L518.0066666666667,322.6133804440498L530.0533333333333,321.71912860572337L542.0999999999999,322.2339419469237L554.1466666666666,319.25542641878127L566.1933333333333,318.88536767363547L578.24,321.1964661821723L590.2866666666666,317.3439213976264L602.3333333333334,321.40857728272675L614.38,316.7496160313487L626.4266666666666,317.5168053925037L638.4733333333332,314.0458521813154L650.52,317.32095994502305" style="fill: none;" fill="none"></path></g></g></g></g></g></g><g transform="translate(50, 378)" clip-path="url(#clip_1)"><clipPath id="clip_1"><rect width="722" height="22"></rect></clipPath><g><g><line x1="0" y1="0" x2="0" y2="5" style="visibility: inherit;" fill="rgb(0, 0, 0)" stroke="rgb(204, 204, 204)" stroke-width="1px"></line><line x1="60.23333333333333" y1="0" x2="60.23333333333333" y2="5" style="visibility: inherit;" fill="rgb(0, 0, 0)" stroke="rgb(204, 204, 204)" stroke-width="1px"></line><line x1="120.46666666666665" y1="0" x2="120.46666666666665" y2="5" style="visibility: inherit;" fill="rgb(0, 0, 0)" stroke="rgb(204, 204, 204)" stroke-width="1px"></line><line x1="180.7" y1="0" x2="180.7" y2="5" style="visibility: inherit;" fill="rgb(0, 0, 0)" stroke="rgb(204, 204, 204)" stroke-width="1px"></line><line x1="240.9333333333333" y1="0" x2="240.9333333333333" y2="5" style="visibility: inherit;" fill="rgb(0, 0, 0)" stroke="rgb(204, 204, 204)" stroke-width="1px"></line><line x1="301.1666666666667" y1="0" x2="301.1666666666667" y2="5" style="visibility: inherit;" fill="rgb(0, 0, 0)" stroke="rgb(204, 204, 204)" stroke-width="1px"></line><line x1="361.4" y1="0" x2="361.4" y2="5" style="visibility: inherit;" fill="rgb(0, 0, 0)" stroke="rgb(204, 204, 204)" stroke-width="1px"></line><line x1="421.6333333333333" y1="0" x2="421.6333333333333" y2="5" style="visibility: inherit;" fill="rgb(0, 0, 0)" stroke="rgb(204, 204, 204)" stroke-width="1px"></line><line x1="481.8666666666666" y1="0" x2="481.8666666666666" y2="5" style="visibility: inherit;" fill="rgb(0, 0, 0)" stroke="rgb(204, 204, 204)" stroke-width="1px"></line><line x1="542.0999999999999" y1="0" x2="542.0999999999999" y2="5" style="visibility: inherit;" fill="rgb(0, 0, 0)" stroke="rgb(204, 204, 204)" stroke-width="1px"></line><line x1="602.3333333333334" y1="0" x2="602.3333333333334" y2="5" style="visibility: inherit;" fill="rgb(0, 0, 0)" stroke="rgb(204, 204, 204)" stroke-width="1px"></line><line x1="662.5666666666666" y1="0" x2="662.5666666666666" y2="5" style="visibility: inherit;" fill="rgb(0, 0, 0)" stroke="rgb(204, 204, 204)" stroke-width="1px"></line><line x1="722.8" y1="0" x2="722.8" y2="5" style="visibility: inherit;" fill="rgb(0, 0, 0)" stroke="rgb(204, 204, 204)" stroke-width="1px"></line></g><g transform="translate(0, 8)"><text x="0" y="0" dx="0em" dy="0.95em" style="text-anchor: middle; visibility: hidden; font-family: Roboto, sans-serif; font-size: 12px; font-weight: 200;" fill="rgb(50, 49, 63)" stroke="none" stroke-width="1px">-5</text><text x="60.23333333333333" y="0" dx="0em" dy="0.95em" style="text-anchor: middle; visibility: inherit; font-family: Roboto, sans-serif; font-size: 12px; font-weight: 200;" fill="rgb(50, 49, 63)" stroke="none" stroke-width="1px">0</text><text x="120.46666666666665" y="0" dx="0em" dy="0.95em" style="text-anchor: middle; visibility: inherit; font-family: Roboto, sans-serif; font-size: 12px; font-weight: 200;" fill="rgb(50, 49, 63)" stroke="none" stroke-width="1px">5</text><text x="180.7" y="0" dx="0em" dy="0.95em" style="text-anchor: middle; visibility: inherit; font-family: Roboto, sans-serif; font-size: 12px; font-weight: 200;" fill="rgb(50, 49, 63)" stroke="none" stroke-width="1px">10</text><text x="240.9333333333333" y="0" dx="0em" dy="0.95em" style="text-anchor: middle; visibility: inherit; font-family: Roboto, sans-serif; font-size: 12px; font-weight: 200;" fill="rgb(50, 49, 63)" stroke="none" stroke-width="1px">15</text><text x="301.1666666666667" y="0" dx="0em" dy="0.95em" style="text-anchor: middle; visibility: inherit; font-family: Roboto, sans-serif; font-size: 12px; font-weight: 200;" fill="rgb(50, 49, 63)" stroke="none" stroke-width="1px">20</text><text x="361.4" y="0" dx="0em" dy="0.95em" style="text-anchor: middle; visibility: inherit; font-family: Roboto, sans-serif; font-size: 12px; font-weight: 200;" fill="rgb(50, 49, 63)" stroke="none" stroke-width="1px">25</text><text x="421.6333333333333" y="0" dx="0em" dy="0.95em" style="text-anchor: middle; visibility: inherit; font-family: Roboto, sans-serif; font-size: 12px; font-weight: 200;" fill="rgb(50, 49, 63)" stroke="none" stroke-width="1px">30</text><text x="481.8666666666666" y="0" dx="0em" dy="0.95em" style="text-anchor: middle; visibility: inherit; font-family: Roboto, sans-serif; font-size: 12px; font-weight: 200;" fill="rgb(50, 49, 63)" stroke="none" stroke-width="1px">35</text><text x="542.0999999999999" y="0" dx="0em" dy="0.95em" style="text-anchor: middle; visibility: inherit; font-family: Roboto, sans-serif; font-size: 12px; font-weight: 200;" fill="rgb(50, 49, 63)" stroke="none" stroke-width="1px">40</text><text x="602.3333333333334" y="0" dx="0em" dy="0.95em" style="text-anchor: middle; visibility: inherit; font-family: Roboto, sans-serif; font-size: 12px; font-weight: 200;" fill="rgb(50, 49, 63)" stroke="none" stroke-width="1px">45</text><text x="662.5666666666666" y="0" dx="0em" dy="0.95em" style="text-anchor: middle; visibility: inherit; font-family: Roboto, sans-serif; font-size: 12px; font-weight: 200;" fill="rgb(50, 49, 63)" stroke="none" stroke-width="1px">50</text><text x="722.8" y="0" dx="0em" dy="0.95em" style="text-anchor: middle; visibility: hidden; font-family: Roboto, sans-serif; font-size: 12px; font-weight: 200;" fill="rgb(50, 49, 63)" stroke="none" stroke-width="1px">55</text></g><line x1="0" y1="0" x2="722.8" y2="0" fill="rgb(0, 0, 0)" stroke="rgb(204, 204, 204)" stroke-width="1px"></line></g></g></g></g></svg>