<svg viewBox="0 0 761.4000244140625 400" xmlns="http://www.w3.org/2000/svg"><g><g><g><g><g><line x1="50" y1="378" x2="45" y2="378" style="visibility: inherit;" fill="rgb(0, 0, 0)" stroke="rgb(204, 204, 204)" stroke-width="1px"></line><line x1="50" y1="335.99999999999994" x2="45" y2="335.99999999999994" style="visibility: inherit;" fill="rgb(0, 0, 0)" stroke="rgb(204, 204, 204)" stroke-width="1px"></line><line x1="50" y1="294.0000000000001" x2="45" y2="294.0000000000001" style="visibility: inherit;" fill="rgb(0, 0, 0)" stroke="rgb(204, 204, 204)" stroke-width="1px"></line><line x1="50" y1="252.00000000000006" x2="45" y2="252.00000000000006" style="visibility: inherit;" fill="rgb(0, 0, 0)" stroke="rgb(204, 204, 204)" stroke-width="1px"></line><line x1="50" y1="210" x2="45" y2="210" style="visibility: inherit;" fill="rgb(0, 0, 0)" stroke="rgb(204, 204, 204)" stroke-width="1px"></line><line x1="50" y1="168" x2="45" y2="168" style="visibility: inherit;" fill="rgb(0, 0, 0)" stroke="rgb(204, 204, 204)" stroke-width="1px"></line><line x1="50" y1="125.99999999999993" x2="45" y2="125.99999999999993" style="visibility: inherit;" fill="rgb(0, 0, 0)" stroke="rgb(204, 204, 204)" stroke-width="1px"></line><line x1="50" y1="83.99999999999987" x2="45" y2="83.99999999999987" style="visibility: inherit;" fill="rgb(0, 0, 0)" stroke="rgb(204, 204, 204)" stroke-width="1px"></line><line x1="50" y1="42.000000000000064" x2="45" y2="42.000000000000064" style="visibility: inherit;" fill="rgb(0, 0, 0)" stroke="rgb(204, 204, 204)" stroke-width="1px"></line><line x1="50" y1="0" x2="45" y2="0" style="visibility: inherit;" fill="rgb(0, 0, 0)" stroke="rgb(204, 204, 204)" stroke-width="1px"></line></g><g transform="translate(40, 0)"><text x="0" y="378" dx="0em" dy="0.3em" style="text-anchor: end; visibility: hidden; font-family: Roboto, sans-serif; font-size: 12px; font-weight: 200;" fill="rgb(50, 49, 63)" stroke="none" stroke-width="1px">0.78</text><text x="0" y="335.99999999999994" dx="0em" dy="0.3em" style="text-anchor: end; visibility: inherit; font-family: Roboto, sans-serif; font-size: 12px; font-weight: 200;" fill="rgb(50, 49, 63)" stroke="none" stroke-width="1px">0.8</text><text x="0" y="294.0000000000001" dx="0em" dy="0.3em" style="text-anchor: end; visibility: inherit; font-family: Roboto, sans-serif; font-size: 12px; font-weight: 200;" fill="rgb(50, 49, 63)" stroke="none" stroke-width="1px">0.82</text><text x="0" y="252.00000000000006" dx="0em" dy="0.3em" style="text-anchor: end; visibility: inherit; font-family: Roboto, sans-serif; font-size: 12px; font-weight: 200;" fill="rgb(50, 49, 63)" stroke="none" stroke-width="1px">0.84</text><text x="0" y="210" dx="0em" dy="0.3em" style="text-anchor: end; visibility: inherit; font-family: Roboto, sans-serif; font-size: 12px; font-weight: 200;" fill="rgb(50, 49, 63)" stroke="none" stroke-width="1px">0.86</text><text x="0" y="168" dx="0em" dy="0.3em" style="text-anchor: end; visibility: inherit; font-family: Roboto, sans-serif; font-size: 12px; font-weight: 200;" fill="rgb(50, 49, 63)" stroke="none" stroke-width="1px">0.88</text><text x="0" y="125.99999999999993" dx="0em" dy="0.3em" style="text-anchor: end; visibility: inherit; font-family: Roboto, sans-serif; font-size: 12px; font-weight: 200;" fill="rgb(50, 49, 63)" stroke="none" stroke-width="1px">0.9</text><text x="0" y="83.99999999999987" dx="0em" dy="0.3em" style="text-anchor: end; visibility: inherit; font-family: Roboto, sans-serif; font-size: 12px; font-weight: 200;" fill="rgb(50, 49, 63)" stroke="none" stroke-width="1px">0.92</text><text x="0" y="42.000000000000064" dx="0em" dy="0.3em" style="text-anchor: end; visibility: inherit; font-family: Roboto, sans-serif; font-size: 12px; font-weight: 200;" fill="rgb(50, 49, 63)" stroke="none" stroke-width="1px">0.94</text><text x="0" y="0" dx="0em" dy="0.3em" style="text-anchor: end; visibility: hidden; font-family: Roboto, sans-serif; font-size: 12px; font-weight: 200;" fill="rgb(50, 49, 63)" stroke="none" stroke-width="1px">0.96</text></g><line x1="50" y1="0" x2="50" y2="378" fill="rgb(0, 0, 0)" stroke="rgb(204, 204, 204)" stroke-width="1px"></line></g></g><g transform="translate(50, 0)" clip-path="url(#clip_0)"><clipPath id="clip_0"><rect width="667" height="378"></rect></clipPath><g><g><g><line x1="0" y1="0" x2="0" y2="378" fill="rgb(0, 0, 0)" stroke="rgb(60, 60, 60)" stroke-width="1px" opacity="0.25"></line><line x1="55.58333333333333" y1="0" x2="55.58333333333333" y2="378" fill="rgb(0, 0, 0)" stroke="rgb(60, 60, 60)" stroke-width="1px" opacity="0.25"></line><line x1="111.16666666666666" y1="0" x2="111.16666666666666" y2="378" fill="rgb(0, 0, 0)" stroke="rgb(60, 60, 60)" stroke-width="1px" opacity="0.25"></line><line x1="166.75" y1="0" x2="166.75" y2="378" fill="rgb(0, 0, 0)" stroke="rgb(60, 60, 60)" stroke-width="1px" opacity="0.25"></line><line x1="222.33333333333331" y1="0" x2="222.33333333333331" y2="378" fill="rgb(0, 0, 0)" stroke="rgb(60, 60, 60)" stroke-width="1px" opacity="0.25"></line><line x1="277.9166666666667" y1="0" x2="277.9166666666667" y2="378" fill="rgb(0, 0, 0)" stroke="rgb(60, 60, 60)" stroke-width="1px" opacity="0.25"></line><line x1="333.5" y1="0" x2="333.5" y2="378" fill="rgb(0, 0, 0)" stroke="rgb(60, 60, 60)" stroke-width="1px" opacity="0.25"></line><line x1="389.08333333333337" y1="0" x2="389.08333333333337" y2="378" fill="rgb(0, 0, 0)" stroke="rgb(60, 60, 60)" stroke-width="1px" opacity="0.25"></line><line x1="444.66666666666663" y1="0" x2="444.66666666666663" y2="378" fill="rgb(0, 0, 0)" stroke="rgb(60, 60, 60)" stroke-width="1px" opacity="0.25"></line><line x1="500.25" y1="0" x2="500.25" y2="378" fill="rgb(0, 0, 0)" stroke="rgb(60, 60, 60)" stroke-width="1px" opacity="0.25"></line><line x1="555.8333333333334" y1="0" x2="555.8333333333334" y2="378" fill="rgb(0, 0, 0)" stroke="rgb(60, 60, 60)" stroke-width="1px" opacity="0.25"></line><line x1="611.4166666666666" y1="0" x2="611.4166666666666" y2="378" fill="rgb(0, 0, 0)" stroke="rgb(60, 60, 60)" stroke-width="1px" opacity="0.25"></line><line x1="667" y1="0" x2="667" y2="378" fill="rgb(0, 0, 0)" stroke="rgb(60, 60, 60)" stroke-width="1px" opacity="0.25"></line></g><g><line x1="0" y1="378" x2="667" y2="378" fill="rgb(0, 0, 0)" stroke="rgb(60, 60, 60)" stroke-width="1px" opacity="0.25"></line><line x1="0" y1="335.99999999999994" x2="667" y2="335.99999999999994" fill="rgb(0, 0, 0)" stroke="rgb(60, 60, 60)" stroke-width="1px" opacity="0.25"></line><line x1="0" y1="294.0000000000001" x2="667" y2="294.0000000000001" fill="rgb(0, 0, 0)" stroke="rgb(60, 60, 60)" stroke-width="1px" opacity="0.25"></line><line x1="0" y1="252.00000000000006" x2="667" y2="252.00000000000006" fill="rgb(0, 0, 0)" stroke="rgb(60, 60, 60)" stroke-width="1px" opacity="0.25"></line><line x1="0" y1="210" x2="667" y2="210" fill="rgb(0, 0, 0)" stroke="rgb(60, 60, 60)" stroke-width="1px" opacity="0.25"></line><line x1="0" y1="168" x2="667" y2="168" fill="rgb(0, 0, 0)" stroke="rgb(60, 60, 60)" stroke-width="1px" opacity="0.25"></line><line x1="0" y1="125.99999999999993" x2="667" y2="125.99999999999993" fill="rgb(0, 0, 0)" stroke="rgb(60, 60, 60)" stroke-width="1px" opacity="0.25"></line><line x1="0" y1="83.99999999999987" x2="667" y2="83.99999999999987" fill="rgb(0, 0, 0)" stroke="rgb(60, 60, 60)" stroke-width="1px" opacity="0.25"></line><line x1="0" y1="42.000000000000064" x2="667" y2="42.000000000000064" fill="rgb(0, 0, 0)" stroke="rgb(60, 60, 60)" stroke-width="1px" opacity="0.25"></line><line x1="0" y1="0" x2="667" y2="0" fill="rgb(0, 0, 0)" stroke="rgb(60, 60, 60)" stroke-width="1px" opacity="0.25"></line></g></g></g><g><g><line x1="0" y1="2016.0000000000005" x2="667" y2="2016.0000000000005" fill="rgb(0, 0, 0)" stroke="rgb(153, 153, 153)" stroke-width="1.5px"></line></g></g><g><g><line x1="55.58333333333333" y1="0" x2="55.58333333333333" y2="378" fill="rgb(0, 0, 0)" stroke="rgb(153, 153, 153)" stroke-width="1.5px"></line></g></g><g><g><g><g><g><path stroke="rgb(255, 112, 67)" stroke-width="2px" d="M55.58333333333333,345.07340526580816L66.7,301.89271903038025L77.81666666666666,264.7245619297028L88.93333333333334,264.7245619297028L100.05,251.05990505218506L111.16666666666666,228.64963746070862L122.28333333333333,231.92921018600464L133.4,217.17132067680362L144.51666666666668,219.90427708625796L155.63333333333333,206.78611135482788L166.75,196.40077686309812L177.86666666666667,194.21443676948547L188.98333333333332,209.5189425945282L200.1,205.14626240730286L211.21666666666667,183.82922744750977L222.33333333333331,192.57471299171448L233.45,178.36331462860105L244.56666666666666,181.0962710380554L255.68333333333334,202.95992231369019L266.8,198.58724212646482L277.9166666666667,185.46907639503476L289.03333333333336,180.00316357612607L300.15000000000003,176.1769745349884L311.26666666666665,196.94739317893982L322.3833333333333,181.0962710380554L333.5,178.90993094444275L344.6166666666667,184.92246007919312L355.73333333333335,186.01556754112244L366.85,202.95992231369019L377.96666666666664,192.57471299171448L389.08333333333337,169.0713379383087L400.2,178.90993094444275L411.31666666666666,175.6303582191467L422.43333333333334,174.53725075721738L433.55,162.51219248771667L444.66666666666663,198.04062581062317L455.78333333333336,170.164445400238L466.9,174.53725075721738L478.01666666666665,173.44401812553406L489.1333333333333,202.4133059978485L500.25,183.2826111316681L511.3666666666667,177.81682348251343L522.4833333333333,180.00316357612607L533.6,171.2576780319214L544.7166666666667,182.73611998558042L555.8333333333334,190.38837289810178L566.9499999999999,193.66782045364377L578.0666666666667,169.0713379383087L589.1833333333333,178.36331462860105L600.3000000000001,182.18950366973877" style="fill: none;" fill="none"></path></g><g><path stroke="rgb(0, 153, 136)" stroke-width="2px" d="M55.58333333333333,300.2529952526093L66.7,280.57568407058716L77.81666666666666,267.45751833915716L88.93333333333334,245.04737591743472L100.05,233.56893396377566L111.16666666666666,216.6247043609619L122.28333333333333,251.60639619827268L133.4,223.73034095764157L144.51666666666668,222.0906171798706L155.63333333333333,212.25189900398254L166.75,224.82357358932495L177.86666666666667,206.23949503898623L188.98333333333332,211.15879154205322L200.1,207.3326025009155L211.21666666666667,197.4940094947815L222.33333333333331,193.66782045364377L233.45,199.68034958839417L244.56666666666666,201.8666896820068L255.68333333333334,214.43836426734927L266.8,198.58724212646482L277.9166666666667,188.2020328044891L289.03333333333336,192.57471299171448L300.15000000000003,201.8666896820068L311.26666666666665,187.65541648864746L322.3833333333333,205.14626240730286L333.5,186.01556754112244L344.6166666666667,228.64963746070862L355.73333333333335,200.22696590423584L366.85,188.74852395057678L377.96666666666664,184.92246007919312L389.08333333333337,182.18950366973877L400.2,198.04062581062317L411.31666666666666,180.00316357612607L422.43333333333334,186.01556754112244L433.55,175.08386707305908L444.66666666666663,204.05315494537354L455.78333333333336,194.21443676948547L466.9,190.38837289810178L478.01666666666665,172.35091066360474L489.1333333333333,193.66782045364377L500.25,195.85428571701047L511.3666666666667,195.30766940116882L522.4833333333333,178.36331462860105L533.6,188.2020328044891L544.7166666666667,190.38837289810178L555.8333333333334,172.89740180969235L566.9499999999999,172.89740180969235L578.0666666666667,186.5621838569641L589.1833333333333,189.29514026641846L600.3000000000001,194.76105308532715" style="fill: none;" fill="none"></path></g><g><path stroke="rgb(0, 119, 187)" stroke-width="2px" d="M55.58333333333333,283.85525679588324L66.7,254.33935260772708L77.81666666666666,224.82357358932495L88.93333333333334,210.06555891036984L100.05,201.3201985359192L111.16666666666666,191.48148036003113L122.28333333333333,188.2020328044891L133.4,189.29514026641846L144.51666666666668,181.0962710380554L155.63333333333333,189.29514026641846L166.75,184.37584376335144L177.86666666666667,182.73611998558042L188.98333333333332,172.89740180969235L200.1,180.00316357612607L211.21666666666667,179.45654726028442L222.33333333333331,174.53725075721738L233.45,175.08386707305908L244.56666666666666,177.27020716667172L255.68333333333334,171.80429434776303L266.8,174.53725075721738L277.9166666666667,174.53725075721738L289.03333333333336,177.81682348251343L300.15000000000003,171.2576780319214L311.26666666666665,172.89740180969235L322.3833333333333,182.18950366973877L333.5,172.89740180969235L344.6166666666667,175.6303582191467L355.73333333333335,177.81682348251343L366.85,186.01556754112244L377.96666666666664,170.164445400238L389.08333333333337,172.35091066360474L400.2,173.44401812553406L411.31666666666666,177.27020716667172L422.43333333333334,177.27020716667172L433.55,175.6303582191467L444.66666666666663,175.08386707305908L455.78333333333336,174.53725075721738L466.9,175.6303582191467L478.01666666666665,175.6303582191467L489.1333333333333,178.36331462860105L500.25,171.80429434776303L511.3666666666667,172.35091066360474L522.4833333333333,175.08386707305908L533.6,173.44401812553406L544.7166666666667,176.1769745349884L555.8333333333334,172.89740180969235L566.9499999999999,172.89740180969235L578.0666666666667,170.7110617160797L589.1833333333333,169.6179542541504L600.3000000000001,169.6179542541504" style="fill: none;" fill="none"></path></g><g><path stroke="rgb(51, 187, 238)" stroke-width="2px" d="M55.58333333333333,497.57209753990185L66.7,360.92452740669256L77.81666666666666,321.0234138965607L88.93333333333334,296.42680621147156L100.05,284.9484894275665L111.16666666666666,271.8303236961365L122.28333333333333,264.7245619297028L133.4,257.0723090171814L144.51666666666668,249.42005610466003L155.63333333333333,240.67469573020935L166.75,231.92921018600464L177.86666666666667,224.82357358932495L188.98333333333332,225.37006473541263L200.1,220.99738454818723L211.21666666666667,219.90427708625796L222.33333333333331,214.9848554134369L233.45,210.61217522621155L244.56666666666666,206.23949503898623L255.68333333333334,200.22696590423584L266.8,198.04062581062317L277.9166666666667,196.40077686309812L289.03333333333336,194.76105308532715L300.15000000000003,191.48148036003113L311.26666666666665,189.29514026641846L322.3833333333333,188.2020328044891L333.5,184.92246007919312L344.6166666666667,183.2826111316681L355.73333333333335,180.54965472221375L366.85,177.27020716667172L377.96666666666664,176.1769745349884L389.08333333333337,175.6303582191467L400.2,173.44401812553406L411.31666666666666,173.44401812553406L422.43333333333334,171.2576780319214L433.55,171.80429434776303L444.66666666666663,167.97810530662537L455.78333333333336,166.88499784469604L466.9,162.51219248771667L478.01666666666665,163.05880880355832L489.1333333333333,164.69853258132932L500.25,164.69853258132932L511.3666666666667,166.88499784469604L522.4833333333333,164.69853258132932L533.6,162.51219248771667L544.7166666666667,158.686128616333L555.8333333333334,159.23274493217465L566.9499999999999,158.686128616333L578.0666666666667,156.4997885227203L589.1833333333333,157.59289598464963L600.3000000000001,157.59289598464963" style="fill: none;" fill="none"></path></g></g></g></g></g></g><g transform="translate(50, 378)" clip-path="url(#clip_1)"><clipPath id="clip_1"><rect width="667" height="22"></rect></clipPath><g><g><line x1="0" y1="0" x2="0" y2="5" style="visibility: inherit;" fill="rgb(0, 0, 0)" stroke="rgb(204, 204, 204)" stroke-width="1px"></line><line x1="55.58333333333333" y1="0" x2="55.58333333333333" y2="5" style="visibility: inherit;" fill="rgb(0, 0, 0)" stroke="rgb(204, 204, 204)" stroke-width="1px"></line><line x1="111.16666666666666" y1="0" x2="111.16666666666666" y2="5" style="visibility: inherit;" fill="rgb(0, 0, 0)" stroke="rgb(204, 204, 204)" stroke-width="1px"></line><line x1="166.75" y1="0" x2="166.75" y2="5" style="visibility: inherit;" fill="rgb(0, 0, 0)" stroke="rgb(204, 204, 204)" stroke-width="1px"></line><line x1="222.33333333333331" y1="0" x2="222.33333333333331" y2="5" style="visibility: inherit;" fill="rgb(0, 0, 0)" stroke="rgb(204, 204, 204)" stroke-width="1px"></line><line x1="277.9166666666667" y1="0" x2="277.9166666666667" y2="5" style="visibility: inherit;" fill="rgb(0, 0, 0)" stroke="rgb(204, 204, 204)" stroke-width="1px"></line><line x1="333.5" y1="0" x2="333.5" y2="5" style="visibility: inherit;" fill="rgb(0, 0, 0)" stroke="rgb(204, 204, 204)" stroke-width="1px"></line><line x1="389.08333333333337" y1="0" x2="389.08333333333337" y2="5" style="visibility: inherit;" fill="rgb(0, 0, 0)" stroke="rgb(204, 204, 204)" stroke-width="1px"></line><line x1="444.66666666666663" y1="0" x2="444.66666666666663" y2="5" style="visibility: inherit;" fill="rgb(0, 0, 0)" stroke="rgb(204, 204, 204)" stroke-width="1px"></line><line x1="500.25" y1="0" x2="500.25" y2="5" style="visibility: inherit;" fill="rgb(0, 0, 0)" stroke="rgb(204, 204, 204)" stroke-width="1px"></line><line x1="555.8333333333334" y1="0" x2="555.8333333333334" y2="5" style="visibility: inherit;" fill="rgb(0, 0, 0)" stroke="rgb(204, 204, 204)" stroke-width="1px"></line><line x1="611.4166666666666" y1="0" x2="611.4166666666666" y2="5" style="visibility: inherit;" fill="rgb(0, 0, 0)" stroke="rgb(204, 204, 204)" stroke-width="1px"></line><line x1="667" y1="0" x2="667" y2="5" style="visibility: inherit;" fill="rgb(0, 0, 0)" stroke="rgb(204, 204, 204)" stroke-width="1px"></line></g><g transform="translate(0, 8)"><text x="0" y="0" dx="0em" dy="0.95em" style="text-anchor: middle; visibility: hidden; font-family: Roboto, sans-serif; font-size: 12px; font-weight: 200;" fill="rgb(50, 49, 63)" stroke="none" stroke-width="1px">-5</text><text x="55.58333333333333" y="0" dx="0em" dy="0.95em" style="text-anchor: middle; visibility: inherit; font-family: Roboto, sans-serif; font-size: 12px; font-weight: 200;" fill="rgb(50, 49, 63)" stroke="none" stroke-width="1px">0</text><text x="111.16666666666666" y="0" dx="0em" dy="0.95em" style="text-anchor: middle; visibility: inherit; font-family: Roboto, sans-serif; font-size: 12px; font-weight: 200;" fill="rgb(50, 49, 63)" stroke="none" stroke-width="1px">5</text><text x="166.75" y="0" dx="0em" dy="0.95em" style="text-anchor: middle; visibility: inherit; font-family: Roboto, sans-serif; font-size: 12px; font-weight: 200;" fill="rgb(50, 49, 63)" stroke="none" stroke-width="1px">10</text><text x="222.33333333333331" y="0" dx="0em" dy="0.95em" style="text-anchor: middle; visibility: inherit; font-family: Roboto, sans-serif; font-size: 12px; font-weight: 200;" fill="rgb(50, 49, 63)" stroke="none" stroke-width="1px">15</text><text x="277.9166666666667" y="0" dx="0em" dy="0.95em" style="text-anchor: middle; visibility: inherit; font-family: Roboto, sans-serif; font-size: 12px; font-weight: 200;" fill="rgb(50, 49, 63)" stroke="none" stroke-width="1px">20</text><text x="333.5" y="0" dx="0em" dy="0.95em" style="text-anchor: middle; visibility: inherit; font-family: Roboto, sans-serif; font-size: 12px; font-weight: 200;" fill="rgb(50, 49, 63)" stroke="none" stroke-width="1px">25</text><text x="389.08333333333337" y="0" dx="0em" dy="0.95em" style="text-anchor: middle; visibility: inherit; font-family: Roboto, sans-serif; font-size: 12px; font-weight: 200;" fill="rgb(50, 49, 63)" stroke="none" stroke-width="1px">30</text><text x="444.66666666666663" y="0" dx="0em" dy="0.95em" style="text-anchor: middle; visibility: inherit; font-family: Roboto, sans-serif; font-size: 12px; font-weight: 200;" fill="rgb(50, 49, 63)" stroke="none" stroke-width="1px">35</text><text x="500.25" y="0" dx="0em" dy="0.95em" style="text-anchor: middle; visibility: inherit; font-family: Roboto, sans-serif; font-size: 12px; font-weight: 200;" fill="rgb(50, 49, 63)" stroke="none" stroke-width="1px">40</text><text x="555.8333333333334" y="0" dx="0em" dy="0.95em" style="text-anchor: middle; visibility: inherit; font-family: Roboto, sans-serif; font-size: 12px; font-weight: 200;" fill="rgb(50, 49, 63)" stroke="none" stroke-width="1px">45</text><text x="611.4166666666666" y="0" dx="0em" dy="0.95em" style="text-anchor: middle; visibility: inherit; font-family: Roboto, sans-serif; font-size: 12px; font-weight: 200;" fill="rgb(50, 49, 63)" stroke="none" stroke-width="1px">50</text><text x="667" y="0" dx="0em" dy="0.95em" style="text-anchor: middle; visibility: hidden; font-family: Roboto, sans-serif; font-size: 12px; font-weight: 200;" fill="rgb(50, 49, 63)" stroke="none" stroke-width="1px">55</text></g><line x1="0" y1="0" x2="667" y2="0" fill="rgb(0, 0, 0)" stroke="rgb(204, 204, 204)" stroke-width="1px"></line></g></g></g></g></svg>