<svg viewBox="0 0 761.4000244140625 400" xmlns="http://www.w3.org/2000/svg"><g><g><g><g><g><line x1="30.78125" y1="355.42488693988133" x2="25.78125" y2="355.42488693988133" style="visibility: inherit;" fill="rgb(0, 0, 0)" stroke="rgb(204, 204, 204)" stroke-width="1px"></line><line x1="30.78125" y1="308.17488693988105" x2="25.78125" y2="308.17488693988105" style="visibility: inherit;" fill="rgb(0, 0, 0)" stroke="rgb(204, 204, 204)" stroke-width="1px"></line><line x1="30.78125" y1="260.92488693988076" x2="25.78125" y2="260.92488693988076" style="visibility: inherit;" fill="rgb(0, 0, 0)" stroke="rgb(204, 204, 204)" stroke-width="1px"></line><line x1="30.78125" y1="213.6748869398805" x2="25.78125" y2="213.6748869398805" style="visibility: inherit;" fill="rgb(0, 0, 0)" stroke="rgb(204, 204, 204)" stroke-width="1px"></line><line x1="30.78125" y1="166.42488693988022" x2="25.78125" y2="166.42488693988022" style="visibility: inherit;" fill="rgb(0, 0, 0)" stroke="rgb(204, 204, 204)" stroke-width="1px"></line><line x1="30.78125" y1="119.17488693987997" x2="25.78125" y2="119.17488693987997" style="visibility: inherit;" fill="rgb(0, 0, 0)" stroke="rgb(204, 204, 204)" stroke-width="1px"></line><line x1="30.78125" y1="71.92488693987967" x2="25.78125" y2="71.92488693987967" style="visibility: inherit;" fill="rgb(0, 0, 0)" stroke="rgb(204, 204, 204)" stroke-width="1px"></line><line x1="30.78125" y1="24.674886939879375" x2="25.78125" y2="24.674886939879375" style="visibility: inherit;" fill="rgb(0, 0, 0)" stroke="rgb(204, 204, 204)" stroke-width="1px"></line></g><g transform="translate(20.78125, 0)"><text x="0" y="355.42488693988133" dx="0em" dy="0.3em" style="text-anchor: end; visibility: inherit; font-family: Roboto, sans-serif; font-size: 12px; font-weight: 200;" fill="rgb(50, 49, 63)" stroke="none" stroke-width="1px">0</text><text x="0" y="308.17488693988105" dx="0em" dy="0.3em" style="text-anchor: end; visibility: inherit; font-family: Roboto, sans-serif; font-size: 12px; font-weight: 200;" fill="rgb(50, 49, 63)" stroke="none" stroke-width="1px">2</text><text x="0" y="260.92488693988076" dx="0em" dy="0.3em" style="text-anchor: end; visibility: inherit; font-family: Roboto, sans-serif; font-size: 12px; font-weight: 200;" fill="rgb(50, 49, 63)" stroke="none" stroke-width="1px">4</text><text x="0" y="213.6748869398805" dx="0em" dy="0.3em" style="text-anchor: end; visibility: inherit; font-family: Roboto, sans-serif; font-size: 12px; font-weight: 200;" fill="rgb(50, 49, 63)" stroke="none" stroke-width="1px">6</text><text x="0" y="166.42488693988022" dx="0em" dy="0.3em" style="text-anchor: end; visibility: inherit; font-family: Roboto, sans-serif; font-size: 12px; font-weight: 200;" fill="rgb(50, 49, 63)" stroke="none" stroke-width="1px">8</text><text x="0" y="119.17488693987997" dx="0em" dy="0.3em" style="text-anchor: end; visibility: inherit; font-family: Roboto, sans-serif; font-size: 12px; font-weight: 200;" fill="rgb(50, 49, 63)" stroke="none" stroke-width="1px">10</text><text x="0" y="71.92488693987967" dx="0em" dy="0.3em" style="text-anchor: end; visibility: inherit; font-family: Roboto, sans-serif; font-size: 12px; font-weight: 200;" fill="rgb(50, 49, 63)" stroke="none" stroke-width="1px">12</text><text x="0" y="24.674886939879375" dx="0em" dy="0.3em" style="text-anchor: end; visibility: inherit; font-family: Roboto, sans-serif; font-size: 12px; font-weight: 200;" fill="rgb(50, 49, 63)" stroke="none" stroke-width="1px">14</text></g><line x1="30.78125" y1="0" x2="30.78125" y2="378" fill="rgb(0, 0, 0)" stroke="rgb(204, 204, 204)" stroke-width="1px"></line></g></g><g transform="translate(30, 0)" clip-path="url(#clip_0)"><clipPath id="clip_0"><rect width="730" height="378"></rect></clipPath><g><g><g><line x1="13.614410453300644" y1="0" x2="13.614410453300644" y2="378" fill="rgb(0, 0, 0)" stroke="rgb(60, 60, 60)" stroke-width="1px" opacity="0.25"></line><line x1="74.49930628663388" y1="0" x2="74.49930628663388" y2="378" fill="rgb(0, 0, 0)" stroke="rgb(60, 60, 60)" stroke-width="1px" opacity="0.25"></line><line x1="135.3842021199671" y1="0" x2="135.3842021199671" y2="378" fill="rgb(0, 0, 0)" stroke="rgb(60, 60, 60)" stroke-width="1px" opacity="0.25"></line><line x1="196.26909795330033" y1="0" x2="196.26909795330033" y2="378" fill="rgb(0, 0, 0)" stroke="rgb(60, 60, 60)" stroke-width="1px" opacity="0.25"></line><line x1="257.1539937866335" y1="0" x2="257.1539937866335" y2="378" fill="rgb(0, 0, 0)" stroke="rgb(60, 60, 60)" stroke-width="1px" opacity="0.25"></line><line x1="318.03888961996677" y1="0" x2="318.03888961996677" y2="378" fill="rgb(0, 0, 0)" stroke="rgb(60, 60, 60)" stroke-width="1px" opacity="0.25"></line><line x1="378.9237854533" y1="0" x2="378.9237854533" y2="378" fill="rgb(0, 0, 0)" stroke="rgb(60, 60, 60)" stroke-width="1px" opacity="0.25"></line><line x1="439.8086812866332" y1="0" x2="439.8086812866332" y2="378" fill="rgb(0, 0, 0)" stroke="rgb(60, 60, 60)" stroke-width="1px" opacity="0.25"></line><line x1="500.6935771199664" y1="0" x2="500.6935771199664" y2="378" fill="rgb(0, 0, 0)" stroke="rgb(60, 60, 60)" stroke-width="1px" opacity="0.25"></line><line x1="561.5784729532996" y1="0" x2="561.5784729532996" y2="378" fill="rgb(0, 0, 0)" stroke="rgb(60, 60, 60)" stroke-width="1px" opacity="0.25"></line><line x1="622.4633687866328" y1="0" x2="622.4633687866328" y2="378" fill="rgb(0, 0, 0)" stroke="rgb(60, 60, 60)" stroke-width="1px" opacity="0.25"></line><line x1="683.348264619966" y1="0" x2="683.348264619966" y2="378" fill="rgb(0, 0, 0)" stroke="rgb(60, 60, 60)" stroke-width="1px" opacity="0.25"></line></g><g><line x1="0" y1="355.42488693988133" x2="730.61875" y2="355.42488693988133" fill="rgb(0, 0, 0)" stroke="rgb(60, 60, 60)" stroke-width="1px" opacity="0.25"></line><line x1="0" y1="308.17488693988105" x2="730.61875" y2="308.17488693988105" fill="rgb(0, 0, 0)" stroke="rgb(60, 60, 60)" stroke-width="1px" opacity="0.25"></line><line x1="0" y1="260.92488693988076" x2="730.61875" y2="260.92488693988076" fill="rgb(0, 0, 0)" stroke="rgb(60, 60, 60)" stroke-width="1px" opacity="0.25"></line><line x1="0" y1="213.6748869398805" x2="730.61875" y2="213.6748869398805" fill="rgb(0, 0, 0)" stroke="rgb(60, 60, 60)" stroke-width="1px" opacity="0.25"></line><line x1="0" y1="166.42488693988022" x2="730.61875" y2="166.42488693988022" fill="rgb(0, 0, 0)" stroke="rgb(60, 60, 60)" stroke-width="1px" opacity="0.25"></line><line x1="0" y1="119.17488693987997" x2="730.61875" y2="119.17488693987997" fill="rgb(0, 0, 0)" stroke="rgb(60, 60, 60)" stroke-width="1px" opacity="0.25"></line><line x1="0" y1="71.92488693987967" x2="730.61875" y2="71.92488693987967" fill="rgb(0, 0, 0)" stroke="rgb(60, 60, 60)" stroke-width="1px" opacity="0.25"></line><line x1="0" y1="24.674886939879375" x2="730.61875" y2="24.674886939879375" fill="rgb(0, 0, 0)" stroke="rgb(60, 60, 60)" stroke-width="1px" opacity="0.25"></line></g></g></g><g><g><line x1="0" y1="355.42488693988133" x2="730.61875" y2="355.42488693988133" fill="rgb(0, 0, 0)" stroke="rgb(153, 153, 153)" stroke-width="1.5px"></line></g></g><g><g><line x1="13.614410453300644" y1="0" x2="13.614410453300644" y2="378" fill="rgb(0, 0, 0)" stroke="rgb(153, 153, 153)" stroke-width="1.5px"></line></g></g><g><g><g><g><g><path stroke="rgb(255, 112, 67)" stroke-width="2px" d="M13.614410453300644,264.7500514665818L25.791389619967287,259.05879366194955L37.96836878663394,261.9907624701237L50.14534795330059,248.59373354708896L62.322327119967234,245.82822048461182L74.49930628663388,243.04705995118363L86.67628545330052,234.30807697570063L98.85326461996718,228.4132274368975L111.03024378663382,230.76969826018546L123.20722295330046,220.2088382223818L135.3842021199671,221.0059242228243L147.56118128663374,213.9601350406381L159.7381604533004,204.45024657046514L171.91513961996702,174.50641703402698L184.09211878663368,206.39966910874568L196.26909795330033,183.06420928036877L208.44607711996696,199.7490996698113L220.6230562866336,179.46042436158365L232.80003545330024,163.0308840254515L244.97701461996692,150.85821056163002L257.1539937866335,162.40692281520066L269.3309729533002,163.48057138716874L281.50795211996683,156.17747199332408L293.6849312866335,134.49278092181365L305.8619104533001,139.62391221320314L318.03888961996677,132.6921839693753L330.2158687866334,125.98778903281367L342.3928479533001,125.69811367785609L354.5698271199667,125.85053288733637L366.7468062866334,132.49803817069213L378.9237854533,137.36402988230864L391.10076461996664,123.2997360209194L403.27774378663327,110.11480974948071L415.4547229532999,118.47655236518057L427.6317021199665,120.29902648722799L439.8086812866332,93.46603584086552L451.98566045329983,90.20376908576145L464.16263961996646,97.20239054953713L476.3396187866331,90.64971637522831L488.51659795329977,68.08320188319327L500.6935771199664,76.27569496428615L512.870556286633,85.28649782931457L525.0475354532997,82.44715213572631L537.2245146199664,76.46330690180903L549.401493786633,58.117914555426765L561.5784729532996,48.93804240023721L573.7554521199663,44.68145715987309L585.9324312866329,42.38532316481694L598.1094104532996,38.478457210417794L610.2863896199661,20.801816819067913" style="fill: none;" fill="none"></path></g><g><path stroke="rgb(0, 153, 136)" stroke-width="2px" d="M13.614410453300644,343.9687576683442L25.791389619967287,342.2868002856354L37.96836878663394,342.52356403863234L50.14534795330059,342.22668031400246L62.322327119967234,342.826119830666L74.49930628663388,342.89103176986976L86.67628545330052,339.77767931467093L98.85326461996718,338.90282910114325L111.03024378663382,337.3719566965679L123.20722295330046,339.11353908276357L135.3842021199671,337.02107004618443L147.56118128663374,337.838847545741L159.7381604533004,337.13368902897633L171.91513961996702,337.017520075498L184.09211878663368,335.8745534325222L196.26909795330033,336.00617834722794L208.44607711996696,334.41621111130513L220.6230562866336,334.236690459607L232.80003545330024,333.1688223833421L244.97701461996692,333.43000925874503L257.1539937866335,332.35778856074603L269.3309729533002,331.83899716830047L281.50795211996683,329.28888748383315L293.6849312866335,331.6238303611258L305.8619104533001,330.26435634290965L318.03888961996677,330.1938103566149L330.2158687866334,328.58627491986545L342.3928479533001,329.57401166653426L354.5698271199667,329.68881329691203L366.7468062866334,329.0138795206526L378.9237854533,328.15372204577716L391.10076461996664,326.4093162993172L403.27774378663327,328.6139170954207L415.4547229532999,327.61959016120227L427.6317021199665,326.38773202693255L439.8086812866332,324.27405047213824L451.98566045329983,323.52840173041614L464.16263961996646,323.93884086406024L476.3396187866331,324.9774149934033L488.51659795329977,323.65817491507323L500.6935771199664,322.89869804477485L512.870556286633,320.9692375788668L525.0475354532997,324.30052105879577L537.2245146199664,321.7888851145485L549.401493786633,321.23668090796264L561.5784729532996,321.44387753104957L573.7554521199663,321.8099399188736L585.9324312866329,320.71717980301173L598.1094104532996,319.86213394796636L610.2863896199661,319.3365946540811" style="fill: none;" fill="none"></path></g><g><path stroke="rgb(0, 119, 187)" stroke-width="2px" d="M13.614410453300644,345.91358890181584L25.791389619967287,347.4430587792973L37.96836878663394,348.22418117692877L50.14534795330059,348.6226699630003L62.322327119967234,348.9364438595455L74.49930628663388,349.1829978430848L86.67628545330052,349.305850626735L98.85326461996718,349.34453840723444L111.03024378663382,349.45052073320556L123.20722295330046,349.359287472276L135.3842021199671,349.36267128011394L147.56118128663374,349.3753257075529L159.7381604533004,349.28591108491827L171.91513961996702,349.1493653560262L184.09211878663368,349.09144140949655L196.26909795330033,349.0513180101495L208.44607711996696,349.05514609238315L220.6230562866336,348.88737371733595L232.80003545330024,348.9271324033122L244.97701461996692,348.78436542472053L257.1539937866335,348.675713227896L269.3309729533002,348.6103950346093L281.50795211996683,348.5015034506302L293.6849312866335,348.40469810163785L305.8619104533001,348.22944276577044L318.03888961996677,348.1503027806263L330.2158687866334,348.0726955773513L342.3928479533001,347.9071924517135L354.5698271199667,347.8305061849038L366.7468062866334,347.78421434184713L378.9237854533,347.6739350164513L391.10076461996664,347.5553764159064L403.27774378663327,347.5588214786927L415.4547229532999,347.3253443705122L427.6317021199665,347.24954594841404L439.8086812866332,347.2268921787123L451.98566045329983,347.1459948102216L464.16263961996646,347.1449260169844L476.3396187866331,346.93411464786334L488.51659795329977,346.83042691817684L500.6935771199664,346.65667408874435L512.870556286633,346.6241505274753L525.0475354532997,346.3750590400974L537.2245146199664,346.32384990325374L549.401493786633,346.2399369606952L561.5784729532996,346.18272483891053L573.7554521199663,346.1137630323152L585.9324312866329,345.97520856356425L598.1094104532996,345.87245585194034L610.2863896199661,345.8316762501578" style="fill: none;" fill="none"></path></g><g><path stroke="rgb(51, 187, 238)" stroke-width="2px" d="M13.614410453300644,329.3619146475771L25.791389619967287,338.6474945375899L37.96836878663394,341.87457278913064L50.14534795330059,343.51933292841716L62.322327119967234,344.5285596007685L74.49930628663388,345.2288606705348L86.67628545330052,345.7574753852765L98.85326461996718,346.1779427284579L111.03024378663382,346.51804709976716L123.20722295330046,346.8075598122756L135.3842021199671,347.06260077452464L147.56118128663374,347.2826377021353L159.7381604533004,347.4765476340632L171.91513961996702,347.646451258866L184.09211878663368,347.81411027705474L196.26909795330033,347.95500017872257L208.44607711996696,348.08887392452164L220.6230562866336,348.2173727246206L232.80003545330024,348.33451612463404L244.97701461996692,348.44412234967757L257.1539937866335,348.5416747274082L269.3309729533002,348.6343513520639L281.50795211996683,348.72618871351887L293.6849312866335,348.8107972869854L305.8619104533001,348.8879285322707L318.03888961996677,348.9702903868835L330.2158687866334,349.0357501002233L342.3928479533001,349.09353534301925L354.5698271199667,349.16316461732794L366.7468062866334,349.22357889434505L378.9237854533,349.27588217130113L391.10076461996664,349.3280016834121L403.27774378663327,349.39034161886383L415.4547229532999,349.4422844069283L427.6317021199665,349.49319712614823L439.8086812866332,349.5291027350556L451.98566045329983,349.584482136948L464.16263961996646,349.6217740791123L476.3396187866331,349.65861822648156L488.51659795329977,349.70447917266L500.6935771199664,349.7469320202451L512.870556286633,349.7768279554527L525.0475354532997,349.8127870744299L537.2245146199664,349.84784497117806L549.401493786633,349.8703301137518L561.5784729532996,349.90067419579435L573.7554521199663,349.934232754467L585.9324312866329,349.9647060351651L598.1094104532996,349.99036270549703L610.2863896199661,350.01896947046924" style="fill: none;" fill="none"></path></g></g></g></g></g></g><g transform="translate(30, 378)" clip-path="url(#clip_1)"><clipPath id="clip_1"><rect width="730" height="22"></rect></clipPath><g><g><line x1="13.614410453300644" y1="0" x2="13.614410453300644" y2="5" style="visibility: inherit;" fill="rgb(0, 0, 0)" stroke="rgb(204, 204, 204)" stroke-width="1px"></line><line x1="74.49930628663388" y1="0" x2="74.49930628663388" y2="5" style="visibility: inherit;" fill="rgb(0, 0, 0)" stroke="rgb(204, 204, 204)" stroke-width="1px"></line><line x1="135.3842021199671" y1="0" x2="135.3842021199671" y2="5" style="visibility: inherit;" fill="rgb(0, 0, 0)" stroke="rgb(204, 204, 204)" stroke-width="1px"></line><line x1="196.26909795330033" y1="0" x2="196.26909795330033" y2="5" style="visibility: inherit;" fill="rgb(0, 0, 0)" stroke="rgb(204, 204, 204)" stroke-width="1px"></line><line x1="257.1539937866335" y1="0" x2="257.1539937866335" y2="5" style="visibility: inherit;" fill="rgb(0, 0, 0)" stroke="rgb(204, 204, 204)" stroke-width="1px"></line><line x1="318.03888961996677" y1="0" x2="318.03888961996677" y2="5" style="visibility: inherit;" fill="rgb(0, 0, 0)" stroke="rgb(204, 204, 204)" stroke-width="1px"></line><line x1="378.9237854533" y1="0" x2="378.9237854533" y2="5" style="visibility: inherit;" fill="rgb(0, 0, 0)" stroke="rgb(204, 204, 204)" stroke-width="1px"></line><line x1="439.8086812866332" y1="0" x2="439.8086812866332" y2="5" style="visibility: inherit;" fill="rgb(0, 0, 0)" stroke="rgb(204, 204, 204)" stroke-width="1px"></line><line x1="500.6935771199664" y1="0" x2="500.6935771199664" y2="5" style="visibility: inherit;" fill="rgb(0, 0, 0)" stroke="rgb(204, 204, 204)" stroke-width="1px"></line><line x1="561.5784729532996" y1="0" x2="561.5784729532996" y2="5" style="visibility: inherit;" fill="rgb(0, 0, 0)" stroke="rgb(204, 204, 204)" stroke-width="1px"></line><line x1="622.4633687866328" y1="0" x2="622.4633687866328" y2="5" style="visibility: inherit;" fill="rgb(0, 0, 0)" stroke="rgb(204, 204, 204)" stroke-width="1px"></line><line x1="683.348264619966" y1="0" x2="683.348264619966" y2="5" style="visibility: inherit;" fill="rgb(0, 0, 0)" stroke="rgb(204, 204, 204)" stroke-width="1px"></line></g><g transform="translate(0, 8)"><text x="13.614410453300644" y="0" dx="0em" dy="0.95em" style="text-anchor: middle; visibility: inherit; font-family: Roboto, sans-serif; font-size: 12px; font-weight: 200;" fill="rgb(50, 49, 63)" stroke="none" stroke-width="1px">0</text><text x="74.49930628663388" y="0" dx="0em" dy="0.95em" style="text-anchor: middle; visibility: inherit; font-family: Roboto, sans-serif; font-size: 12px; font-weight: 200;" fill="rgb(50, 49, 63)" stroke="none" stroke-width="1px">5</text><text x="135.3842021199671" y="0" dx="0em" dy="0.95em" style="text-anchor: middle; visibility: inherit; font-family: Roboto, sans-serif; font-size: 12px; font-weight: 200;" fill="rgb(50, 49, 63)" stroke="none" stroke-width="1px">10</text><text x="196.26909795330033" y="0" dx="0em" dy="0.95em" style="text-anchor: middle; visibility: inherit; font-family: Roboto, sans-serif; font-size: 12px; font-weight: 200;" fill="rgb(50, 49, 63)" stroke="none" stroke-width="1px">15</text><text x="257.1539937866335" y="0" dx="0em" dy="0.95em" style="text-anchor: middle; visibility: inherit; font-family: Roboto, sans-serif; font-size: 12px; font-weight: 200;" fill="rgb(50, 49, 63)" stroke="none" stroke-width="1px">20</text><text x="318.03888961996677" y="0" dx="0em" dy="0.95em" style="text-anchor: middle; visibility: inherit; font-family: Roboto, sans-serif; font-size: 12px; font-weight: 200;" fill="rgb(50, 49, 63)" stroke="none" stroke-width="1px">25</text><text x="378.9237854533" y="0" dx="0em" dy="0.95em" style="text-anchor: middle; visibility: inherit; font-family: Roboto, sans-serif; font-size: 12px; font-weight: 200;" fill="rgb(50, 49, 63)" stroke="none" stroke-width="1px">30</text><text x="439.8086812866332" y="0" dx="0em" dy="0.95em" style="text-anchor: middle; visibility: inherit; font-family: Roboto, sans-serif; font-size: 12px; font-weight: 200;" fill="rgb(50, 49, 63)" stroke="none" stroke-width="1px">35</text><text x="500.6935771199664" y="0" dx="0em" dy="0.95em" style="text-anchor: middle; visibility: inherit; font-family: Roboto, sans-serif; font-size: 12px; font-weight: 200;" fill="rgb(50, 49, 63)" stroke="none" stroke-width="1px">40</text><text x="561.5784729532996" y="0" dx="0em" dy="0.95em" style="text-anchor: middle; visibility: inherit; font-family: Roboto, sans-serif; font-size: 12px; font-weight: 200;" fill="rgb(50, 49, 63)" stroke="none" stroke-width="1px">45</text><text x="622.4633687866328" y="0" dx="0em" dy="0.95em" style="text-anchor: middle; visibility: inherit; font-family: Roboto, sans-serif; font-size: 12px; font-weight: 200;" fill="rgb(50, 49, 63)" stroke="none" stroke-width="1px">50</text><text x="683.348264619966" y="0" dx="0em" dy="0.95em" style="text-anchor: middle; visibility: inherit; font-family: Roboto, sans-serif; font-size: 12px; font-weight: 200;" fill="rgb(50, 49, 63)" stroke="none" stroke-width="1px">55</text></g><line x1="0" y1="0" x2="730.61875" y2="0" fill="rgb(0, 0, 0)" stroke="rgb(204, 204, 204)" stroke-width="1px"></line></g></g></g></g></svg>