<svg viewBox="0 0 780 400" xmlns="http://www.w3.org/2000/svg"><g><g><g><g><g><line x1="41.171875" y1="365.66826696422453" x2="36.171875" y2="365.66826696422453" style="visibility: inherit;" fill="rgb(0, 0, 0)" stroke="rgb(204, 204, 204)" stroke-width="1px"></line><line x1="41.171875" y1="323.66826696422356" x2="36.171875" y2="323.66826696422356" style="visibility: inherit;" fill="rgb(0, 0, 0)" stroke="rgb(204, 204, 204)" stroke-width="1px"></line><line x1="41.171875" y1="281.66826696422265" x2="36.171875" y2="281.66826696422265" style="visibility: inherit;" fill="rgb(0, 0, 0)" stroke="rgb(204, 204, 204)" stroke-width="1px"></line><line x1="41.171875" y1="239.6682669642217" x2="36.171875" y2="239.6682669642217" style="visibility: inherit;" fill="rgb(0, 0, 0)" stroke="rgb(204, 204, 204)" stroke-width="1px"></line><line x1="41.171875" y1="197.66826696422075" x2="36.171875" y2="197.66826696422075" style="visibility: inherit;" fill="rgb(0, 0, 0)" stroke="rgb(204, 204, 204)" stroke-width="1px"></line><line x1="41.171875" y1="155.6682669642198" x2="36.171875" y2="155.6682669642198" style="visibility: inherit;" fill="rgb(0, 0, 0)" stroke="rgb(204, 204, 204)" stroke-width="1px"></line><line x1="41.171875" y1="113.66826696421887" x2="36.171875" y2="113.66826696421887" style="visibility: inherit;" fill="rgb(0, 0, 0)" stroke="rgb(204, 204, 204)" stroke-width="1px"></line><line x1="41.171875" y1="71.66826696421793" x2="36.171875" y2="71.66826696421793" style="visibility: inherit;" fill="rgb(0, 0, 0)" stroke="rgb(204, 204, 204)" stroke-width="1px"></line><line x1="41.171875" y1="29.668266964216947" x2="36.171875" y2="29.668266964216947" style="visibility: inherit;" fill="rgb(0, 0, 0)" stroke="rgb(204, 204, 204)" stroke-width="1px"></line></g><g transform="translate(31.171875, 0)"><text x="0" y="365.66826696422453" dx="0em" dy="0.3em" style="text-anchor: end; visibility: inherit; font-family: Roboto, sans-serif; font-size: 12px; font-weight: 200;" fill="rgb(50, 49, 63)" stroke="none" stroke-width="1px">0</text><text x="0" y="323.66826696422356" dx="0em" dy="0.3em" style="text-anchor: end; visibility: inherit; font-family: Roboto, sans-serif; font-size: 12px; font-weight: 200;" fill="rgb(50, 49, 63)" stroke="none" stroke-width="1px">0.2</text><text x="0" y="281.66826696422265" dx="0em" dy="0.3em" style="text-anchor: end; visibility: inherit; font-family: Roboto, sans-serif; font-size: 12px; font-weight: 200;" fill="rgb(50, 49, 63)" stroke="none" stroke-width="1px">0.4</text><text x="0" y="239.6682669642217" dx="0em" dy="0.3em" style="text-anchor: end; visibility: inherit; font-family: Roboto, sans-serif; font-size: 12px; font-weight: 200;" fill="rgb(50, 49, 63)" stroke="none" stroke-width="1px">0.6</text><text x="0" y="197.66826696422075" dx="0em" dy="0.3em" style="text-anchor: end; visibility: inherit; font-family: Roboto, sans-serif; font-size: 12px; font-weight: 200;" fill="rgb(50, 49, 63)" stroke="none" stroke-width="1px">0.8</text><text x="0" y="155.6682669642198" dx="0em" dy="0.3em" style="text-anchor: end; visibility: inherit; font-family: Roboto, sans-serif; font-size: 12px; font-weight: 200;" fill="rgb(50, 49, 63)" stroke="none" stroke-width="1px">1</text><text x="0" y="113.66826696421887" dx="0em" dy="0.3em" style="text-anchor: end; visibility: inherit; font-family: Roboto, sans-serif; font-size: 12px; font-weight: 200;" fill="rgb(50, 49, 63)" stroke="none" stroke-width="1px">1.2</text><text x="0" y="71.66826696421793" dx="0em" dy="0.3em" style="text-anchor: end; visibility: inherit; font-family: Roboto, sans-serif; font-size: 12px; font-weight: 200;" fill="rgb(50, 49, 63)" stroke="none" stroke-width="1px">1.4</text><text x="0" y="29.668266964216947" dx="0em" dy="0.3em" style="text-anchor: end; visibility: inherit; font-family: Roboto, sans-serif; font-size: 12px; font-weight: 200;" fill="rgb(50, 49, 63)" stroke="none" stroke-width="1px">1.6</text></g><line x1="41.171875" y1="0" x2="41.171875" y2="378" fill="rgb(0, 0, 0)" stroke="rgb(204, 204, 204)" stroke-width="1px"></line></g></g><g transform="translate(41, 0)" clip-path="url(#clip_0)"><clipPath id="clip_0"><rect width="738" height="378"></rect></clipPath><g><g><g><line x1="16.2684648913317" y1="0" x2="16.2684648913317" y2="378" fill="rgb(0, 0, 0)" stroke="rgb(60, 60, 60)" stroke-width="1px" opacity="0.25"></line><line x1="77.83747530799775" y1="0" x2="77.83747530799775" y2="378" fill="rgb(0, 0, 0)" stroke="rgb(60, 60, 60)" stroke-width="1px" opacity="0.25"></line><line x1="139.4064857246638" y1="0" x2="139.4064857246638" y2="378" fill="rgb(0, 0, 0)" stroke="rgb(60, 60, 60)" stroke-width="1px" opacity="0.25"></line><line x1="200.97549614132987" y1="0" x2="200.97549614132987" y2="378" fill="rgb(0, 0, 0)" stroke="rgb(60, 60, 60)" stroke-width="1px" opacity="0.25"></line><line x1="262.54450655799593" y1="0" x2="262.54450655799593" y2="378" fill="rgb(0, 0, 0)" stroke="rgb(60, 60, 60)" stroke-width="1px" opacity="0.25"></line><line x1="324.11351697466193" y1="0" x2="324.11351697466193" y2="378" fill="rgb(0, 0, 0)" stroke="rgb(60, 60, 60)" stroke-width="1px" opacity="0.25"></line><line x1="385.68252739132805" y1="0" x2="385.68252739132805" y2="378" fill="rgb(0, 0, 0)" stroke="rgb(60, 60, 60)" stroke-width="1px" opacity="0.25"></line><line x1="447.25153780799417" y1="0" x2="447.25153780799417" y2="378" fill="rgb(0, 0, 0)" stroke="rgb(60, 60, 60)" stroke-width="1px" opacity="0.25"></line><line x1="508.8205482246602" y1="0" x2="508.8205482246602" y2="378" fill="rgb(0, 0, 0)" stroke="rgb(60, 60, 60)" stroke-width="1px" opacity="0.25"></line><line x1="570.3895586413262" y1="0" x2="570.3895586413262" y2="378" fill="rgb(0, 0, 0)" stroke="rgb(60, 60, 60)" stroke-width="1px" opacity="0.25"></line><line x1="631.9585690579922" y1="0" x2="631.9585690579922" y2="378" fill="rgb(0, 0, 0)" stroke="rgb(60, 60, 60)" stroke-width="1px" opacity="0.25"></line><line x1="693.5275794746583" y1="0" x2="693.5275794746583" y2="378" fill="rgb(0, 0, 0)" stroke="rgb(60, 60, 60)" stroke-width="1px" opacity="0.25"></line></g><g><line x1="0" y1="365.66826696422453" x2="738.828125" y2="365.66826696422453" fill="rgb(0, 0, 0)" stroke="rgb(60, 60, 60)" stroke-width="1px" opacity="0.25"></line><line x1="0" y1="323.66826696422356" x2="738.828125" y2="323.66826696422356" fill="rgb(0, 0, 0)" stroke="rgb(60, 60, 60)" stroke-width="1px" opacity="0.25"></line><line x1="0" y1="281.66826696422265" x2="738.828125" y2="281.66826696422265" fill="rgb(0, 0, 0)" stroke="rgb(60, 60, 60)" stroke-width="1px" opacity="0.25"></line><line x1="0" y1="239.6682669642217" x2="738.828125" y2="239.6682669642217" fill="rgb(0, 0, 0)" stroke="rgb(60, 60, 60)" stroke-width="1px" opacity="0.25"></line><line x1="0" y1="197.66826696422075" x2="738.828125" y2="197.66826696422075" fill="rgb(0, 0, 0)" stroke="rgb(60, 60, 60)" stroke-width="1px" opacity="0.25"></line><line x1="0" y1="155.6682669642198" x2="738.828125" y2="155.6682669642198" fill="rgb(0, 0, 0)" stroke="rgb(60, 60, 60)" stroke-width="1px" opacity="0.25"></line><line x1="0" y1="113.66826696421887" x2="738.828125" y2="113.66826696421887" fill="rgb(0, 0, 0)" stroke="rgb(60, 60, 60)" stroke-width="1px" opacity="0.25"></line><line x1="0" y1="71.66826696421793" x2="738.828125" y2="71.66826696421793" fill="rgb(0, 0, 0)" stroke="rgb(60, 60, 60)" stroke-width="1px" opacity="0.25"></line><line x1="0" y1="29.668266964216947" x2="738.828125" y2="29.668266964216947" fill="rgb(0, 0, 0)" stroke="rgb(60, 60, 60)" stroke-width="1px" opacity="0.25"></line></g></g></g><g><g><line x1="0" y1="365.66826696422453" x2="738.828125" y2="365.66826696422453" fill="rgb(0, 0, 0)" stroke="rgb(153, 153, 153)" stroke-width="1.5px"></line></g></g><g><g><line x1="16.2684648913317" y1="0" x2="16.2684648913317" y2="378" fill="rgb(0, 0, 0)" stroke="rgb(153, 153, 153)" stroke-width="1.5px"></line></g></g><g><g><g><g><g><path stroke="rgb(0, 153, 136)" stroke-width="2px" d="M40.89606905799812,-19.988431977968606L53.209871141331334,38.594442558547016L65.52367322466455,60.81202383067274L77.83747530799775,66.20378608729517L90.15127739133096,70.07676358248875L102.46507947466418,77.2032534601897L114.77888155799738,79.7119807722778L127.0926836413306,78.52457041766351L139.4064857246638,77.63621563937369L151.72028780799704,78.96709556605525L164.03408989133024,79.03784151103206L176.34789197466344,79.4927584650726L188.66169405799667,79.5329629900665L200.97549614132987,80.00360126521299L213.2892982246631,79.9095987799377L225.6031003079963,80.02427930857844L237.9169023913295,80.07161850955197L250.2307044746627,80.0575494291992L262.54450655799593,80.06000275637813L274.85830864132913,80.04966373469541L287.17211072466233,80.06017799403378L299.48591280799553,80.06145472552485L311.79971489132873,80.06225581195064L324.11351697466193,80.061955404541L336.42731905799513,80.06293172862239L348.7411211413284,80.06290669467161L361.0549232246616,80.06293172862239L373.36872530799485,80.06293172862239L385.68252739132805,80.062981796524L397.99632947466125,80.062981796524L410.3101315579945,80.062981796524L422.6239336413277,80.062981796524L434.93773572466097,80.062981796524L447.25153780799417,80.062981796524L459.56533989132737,80.062981796524L471.87914197466057,80.062981796524L484.19294405799377,80.062981796524L496.50674614132697,80.062981796524L508.8205482246602,80.062981796524L521.1343503079934,80.062981796524L533.4481523913266,80.062981796524L545.7619544746598,80.062981796524L558.075756557993,80.062981796524L570.3895586413262,80.062981796524L582.7033607246594,80.062981796524L595.0171628079927,80.062981796524L607.3309648913258,80.062981796524L619.6447669746591,80.062981796524" style="fill: none;" fill="none"></path></g><g><path stroke="rgb(255, 112, 67)" stroke-width="2px" d="M16.2684648913317,275.80759252336173L28.58226697466491,283.55718995359115L40.89606905799812,298.3389180424472L53.209871141331334,295.3877031328936L65.52367322466455,297.3018678548594L77.83747530799775,302.6775145056507L90.15127739133096,301.7106157067081L102.46507947466418,301.0594889047405L114.77888155799738,305.41275526311614L127.0926836413306,300.97633863713946L139.4064857246638,303.3840915086529L151.72028780799704,303.65273083474847L164.03408989133024,303.19689388301583L176.34789197466344,302.6566925170681L188.66169405799667,303.7770494344494L200.97549614132987,303.6988371136448L213.2892982246631,303.59077180650445L225.6031003079963,303.42189277436944L237.9169023913295,303.47668583419534L250.2307044746627,303.2724275710842L262.54450655799593,303.5177164795658L274.85830864132913,303.5773285749218L287.17211072466233,303.5654687407276L299.48591280799553,303.6792855980656L311.79971489132873,303.6754428866169L324.11351697466193,303.72699404981347L336.42731905799513,303.75598962333413L348.7411211413284,303.7820124151966L361.0549232246616,303.8186120512745L373.36872530799485,303.84133662011834L385.68252739132805,303.8357415321133L397.99632947466125,303.8315045359394L410.3101315579945,303.8412677767536L422.6239336413277,303.8382324102185L434.93773572466097,303.82856930520745L447.25153780799417,303.82376278665276L459.56533989132737,303.83423949506493L471.87914197466057,303.8350280645153L484.19294405799377,303.8341456177494L496.50674614132697,303.8336887481472L508.8205482246602,303.8340392234585L521.1343503079934,303.83477146651956L533.4481523913266,303.83567268874856L545.7619544746598,303.8362234356663L558.075756557993,303.83614207532617L570.3895586413262,303.8363486054203L582.7033607246594,303.83642370727273L595.0171628079927,303.8364049318096L607.3309648913258,303.8363047960064L619.6447669746591,303.83631731298186" style="fill: none;" fill="none"></path></g><g><path stroke="rgb(51, 187, 238)" stroke-width="2px" d="M16.2684648913317,262.7521243217242L28.58226697466491,286.66731412437133L40.89606905799812,305.9725331785939L53.209871141331334,306.5277987244389L65.52367322466455,306.0512899878285L77.83747530799775,306.4349916103146L90.15127739133096,306.53283680703856L102.46507947466418,307.15832258489354L114.77888155799738,307.40412468936665L127.0926836413306,306.9191795113347L139.4064857246638,307.07591081884124L151.72028780799704,307.12441409852727L164.03408989133024,307.16855521228536L176.34789197466344,307.12418253448226L188.66169405799667,307.12898905303695L200.97549614132987,307.1188753369115L213.2892982246631,307.10122014310576L225.6031003079963,307.10851753976567L237.9169023913295,307.107672643926L250.2307044746627,307.10859890010573L262.54450655799593,307.10650856521346L274.85830864132913,307.1060892465375L287.17211072466233,307.10669631984456L299.48591280799553,307.1068277480863L311.79971489132873,307.1070718291066L324.11351697466193,307.10715318944676L336.42731905799513,307.1071281554959L348.7411211413284,307.10717822339757L361.0549232246616,307.10714693095906L373.36872530799485,307.10716570642217L385.68252739132805,307.10716570642217L397.99632947466125,307.10716570642217L410.3101315579945,307.10716570642217L422.6239336413277,307.10716570642217L434.93773572466097,307.10716570642217L447.25153780799417,307.10716570642217L459.56533989132737,307.10716570642217L471.87914197466057,307.10716570642217L484.19294405799377,307.10716570642217L496.50674614132697,307.10716570642217L508.8205482246602,307.10716570642217L521.1343503079934,307.10716570642217L533.4481523913266,307.10716570642217L545.7619544746598,307.10716570642217L558.075756557993,307.10716570642217L570.3895586413262,307.10716570642217L582.7033607246594,307.10716570642217L595.0171628079927,307.10716570642217L607.3309648913258,307.10716570642217L619.6447669746591,307.10716570642217" style="fill: none;" fill="none"></path></g><g><path stroke="rgb(0, 119, 187)" stroke-width="2px" d="M16.2684648913317,283.5135557773368L28.58226697466491,294.1651138189097L40.89606905799812,298.576446426179L53.209871141331334,300.84240074184146L65.52367322466455,302.08086783912387L77.83747530799775,302.91540588166924L90.15127739133096,303.40518887069436L102.46507947466418,303.61108685758325L114.77888155799738,303.75608350064965L127.0926836413306,303.83561010387155L139.4064857246638,303.8889950039646L151.72028780799704,303.9185600998661L164.03408989133024,303.93826807763793L176.34789197466344,303.9497774365208L188.66169405799667,303.95666803148004L200.97549614132987,303.9613869312069L213.2892982246631,303.96377141502114L225.6031003079963,303.965724063184L237.9169023913295,303.9667754891178L250.2307044746627,303.9674764397404L262.54450655799593,303.96782065656396L274.85830864132913,303.96795208480575L287.17211072466233,303.9679958942196L299.48591280799553,303.9680397036335L311.79971489132873,303.968070996072L324.11351697466193,303.9680835130474L336.42731905799513,303.9680897715351L348.7411211413284,303.9680897715351L361.0549232246616,303.9680897715351L373.36872530799485,303.9680897715351L385.68252739132805,303.9680897715351L397.99632947466125,303.9680897715351L410.3101315579945,303.9680897715351L422.6239336413277,303.9680897715351L434.93773572466097,303.9680897715351L447.25153780799417,303.9680897715351L459.56533989132737,303.9680897715351L471.87914197466057,303.9680897715351L484.19294405799377,303.9680897715351L496.50674614132697,303.9680897715351L508.8205482246602,303.9680897715351L521.1343503079934,303.9680897715351L533.4481523913266,303.9680897715351L545.7619544746598,303.9680897715351L558.075756557993,303.9680897715351L570.3895586413262,303.9680897715351L582.7033607246594,303.9680897715351L595.0171628079927,303.9680897715351L607.3309648913258,303.9680897715351L619.6447669746591,303.9680897715351" style="fill: none;" fill="none"></path></g><g><path stroke="rgb(204, 51, 17)" stroke-width="2px" d="M16.2684648913317,281.22544641521137L28.58226697466491,294.75542689588264L40.89606905799812,301.10184009101596L53.209871141331334,304.2396142604611L65.52367322466455,306.84576119210936L77.83747530799775,308.2052737000249L90.15127739133096,309.90946615960826L102.46507947466418,310.4538544538282L114.77888155799738,311.1905785920881L127.0926836413306,311.57197083261246L139.4064857246638,312.04302216794724L151.72028780799704,312.3643892529272L164.03408989133024,312.74626965549226L176.34789197466344,312.72652412679423L188.66169405799667,312.5823786380553L200.97549614132987,312.7026104452872L213.2892982246631,312.71582837131257L225.6031003079963,312.9528936269545L237.9169023913295,312.7923634174132L250.2307044746627,312.95798177745576L262.54450655799593,312.8932627561354L274.85830864132913,312.93222184207673L287.17211072466233,312.86727125671143L299.48591280799553,312.871639681127L311.79971489132873,312.89034630086655L324.11351697466193,312.7593186023497L336.42731905799513,312.8809022429251L348.7411211413284,312.78507227924104L361.0549232246616,312.7504190328383L373.36872530799485,312.7712848308348L385.68252739132805,312.6721190932059L397.99632947466125,312.75372351434464L410.3101315579945,312.7358430149817L422.6239336413277,312.7770050885939L434.93773572466097,312.7274691584372L447.25153780799417,312.70681614902253L459.56533989132737,312.6533123376631L471.87914197466057,312.6504709842467L484.19294405799377,312.68377239730586L496.50674614132697,312.628391039636L508.8205482246602,312.60694946077103L521.1343503079934,312.62507404115433L533.4481523913266,312.617807936933L545.7619544746598,312.6528867604994L558.075756557993,312.64640296724076L570.3895586413262,312.63752217319245L582.7033607246594,312.604477358129L595.0171628079927,312.59249861266846L607.3309648913258,312.59120310571427L619.6447669746591,312.5885933163428" style="fill: none;" fill="none"></path></g></g></g></g></g></g><g transform="translate(41, 378)" clip-path="url(#clip_1)"><clipPath id="clip_1"><rect width="738" height="22"></rect></clipPath><g><g><line x1="16.2684648913317" y1="0" x2="16.2684648913317" y2="5" style="visibility: inherit;" fill="rgb(0, 0, 0)" stroke="rgb(204, 204, 204)" stroke-width="1px"></line><line x1="77.83747530799775" y1="0" x2="77.83747530799775" y2="5" style="visibility: inherit;" fill="rgb(0, 0, 0)" stroke="rgb(204, 204, 204)" stroke-width="1px"></line><line x1="139.4064857246638" y1="0" x2="139.4064857246638" y2="5" style="visibility: inherit;" fill="rgb(0, 0, 0)" stroke="rgb(204, 204, 204)" stroke-width="1px"></line><line x1="200.97549614132987" y1="0" x2="200.97549614132987" y2="5" style="visibility: inherit;" fill="rgb(0, 0, 0)" stroke="rgb(204, 204, 204)" stroke-width="1px"></line><line x1="262.54450655799593" y1="0" x2="262.54450655799593" y2="5" style="visibility: inherit;" fill="rgb(0, 0, 0)" stroke="rgb(204, 204, 204)" stroke-width="1px"></line><line x1="324.11351697466193" y1="0" x2="324.11351697466193" y2="5" style="visibility: inherit;" fill="rgb(0, 0, 0)" stroke="rgb(204, 204, 204)" stroke-width="1px"></line><line x1="385.68252739132805" y1="0" x2="385.68252739132805" y2="5" style="visibility: inherit;" fill="rgb(0, 0, 0)" stroke="rgb(204, 204, 204)" stroke-width="1px"></line><line x1="447.25153780799417" y1="0" x2="447.25153780799417" y2="5" style="visibility: inherit;" fill="rgb(0, 0, 0)" stroke="rgb(204, 204, 204)" stroke-width="1px"></line><line x1="508.8205482246602" y1="0" x2="508.8205482246602" y2="5" style="visibility: inherit;" fill="rgb(0, 0, 0)" stroke="rgb(204, 204, 204)" stroke-width="1px"></line><line x1="570.3895586413262" y1="0" x2="570.3895586413262" y2="5" style="visibility: inherit;" fill="rgb(0, 0, 0)" stroke="rgb(204, 204, 204)" stroke-width="1px"></line><line x1="631.9585690579922" y1="0" x2="631.9585690579922" y2="5" style="visibility: inherit;" fill="rgb(0, 0, 0)" stroke="rgb(204, 204, 204)" stroke-width="1px"></line><line x1="693.5275794746583" y1="0" x2="693.5275794746583" y2="5" style="visibility: inherit;" fill="rgb(0, 0, 0)" stroke="rgb(204, 204, 204)" stroke-width="1px"></line></g><g transform="translate(0, 8)"><text x="16.2684648913317" y="0" dx="0em" dy="0.95em" style="text-anchor: middle; visibility: inherit; font-family: Roboto, sans-serif; font-size: 12px; font-weight: 200;" fill="rgb(50, 49, 63)" stroke="none" stroke-width="1px">0</text><text x="77.83747530799775" y="0" dx="0em" dy="0.95em" style="text-anchor: middle; visibility: inherit; font-family: Roboto, sans-serif; font-size: 12px; font-weight: 200;" fill="rgb(50, 49, 63)" stroke="none" stroke-width="1px">5</text><text x="139.4064857246638" y="0" dx="0em" dy="0.95em" style="text-anchor: middle; visibility: inherit; font-family: Roboto, sans-serif; font-size: 12px; font-weight: 200;" fill="rgb(50, 49, 63)" stroke="none" stroke-width="1px">10</text><text x="200.97549614132987" y="0" dx="0em" dy="0.95em" style="text-anchor: middle; visibility: inherit; font-family: Roboto, sans-serif; font-size: 12px; font-weight: 200;" fill="rgb(50, 49, 63)" stroke="none" stroke-width="1px">15</text><text x="262.54450655799593" y="0" dx="0em" dy="0.95em" style="text-anchor: middle; visibility: inherit; font-family: Roboto, sans-serif; font-size: 12px; font-weight: 200;" fill="rgb(50, 49, 63)" stroke="none" stroke-width="1px">20</text><text x="324.11351697466193" y="0" dx="0em" dy="0.95em" style="text-anchor: middle; visibility: inherit; font-family: Roboto, sans-serif; font-size: 12px; font-weight: 200;" fill="rgb(50, 49, 63)" stroke="none" stroke-width="1px">25</text><text x="385.68252739132805" y="0" dx="0em" dy="0.95em" style="text-anchor: middle; visibility: inherit; font-family: Roboto, sans-serif; font-size: 12px; font-weight: 200;" fill="rgb(50, 49, 63)" stroke="none" stroke-width="1px">30</text><text x="447.25153780799417" y="0" dx="0em" dy="0.95em" style="text-anchor: middle; visibility: inherit; font-family: Roboto, sans-serif; font-size: 12px; font-weight: 200;" fill="rgb(50, 49, 63)" stroke="none" stroke-width="1px">35</text><text x="508.8205482246602" y="0" dx="0em" dy="0.95em" style="text-anchor: middle; visibility: inherit; font-family: Roboto, sans-serif; font-size: 12px; font-weight: 200;" fill="rgb(50, 49, 63)" stroke="none" stroke-width="1px">40</text><text x="570.3895586413262" y="0" dx="0em" dy="0.95em" style="text-anchor: middle; visibility: inherit; font-family: Roboto, sans-serif; font-size: 12px; font-weight: 200;" fill="rgb(50, 49, 63)" stroke="none" stroke-width="1px">45</text><text x="631.9585690579922" y="0" dx="0em" dy="0.95em" style="text-anchor: middle; visibility: inherit; font-family: Roboto, sans-serif; font-size: 12px; font-weight: 200;" fill="rgb(50, 49, 63)" stroke="none" stroke-width="1px">50</text><text x="693.5275794746583" y="0" dx="0em" dy="0.95em" style="text-anchor: middle; visibility: inherit; font-family: Roboto, sans-serif; font-size: 12px; font-weight: 200;" fill="rgb(50, 49, 63)" stroke="none" stroke-width="1px">55</text></g><line x1="0" y1="0" x2="738.828125" y2="0" fill="rgb(0, 0, 0)" stroke="rgb(204, 204, 204)" stroke-width="1px"></line></g></g></g></g></svg>