<svg viewBox="0 0 551.4000244140625 400" xmlns="http://www.w3.org/2000/svg"><g><g><g><g><g><line x1="50" y1="378" x2="45" y2="378" style="visibility: inherit;" fill="rgb(0, 0, 0)" stroke="rgb(204, 204, 204)" stroke-width="1px"></line><line x1="50" y1="336.00000000000017" x2="45" y2="336.00000000000017" style="visibility: inherit;" fill="rgb(0, 0, 0)" stroke="rgb(204, 204, 204)" stroke-width="1px"></line><line x1="50" y1="294.0000000000001" x2="45" y2="294.0000000000001" style="visibility: inherit;" fill="rgb(0, 0, 0)" stroke="rgb(204, 204, 204)" stroke-width="1px"></line><line x1="50" y1="252.00000000000006" x2="45" y2="252.00000000000006" style="visibility: inherit;" fill="rgb(0, 0, 0)" stroke="rgb(204, 204, 204)" stroke-width="1px"></line><line x1="50" y1="210" x2="45" y2="210" style="visibility: inherit;" fill="rgb(0, 0, 0)" stroke="rgb(204, 204, 204)" stroke-width="1px"></line><line x1="50" y1="168" x2="45" y2="168" style="visibility: inherit;" fill="rgb(0, 0, 0)" stroke="rgb(204, 204, 204)" stroke-width="1px"></line><line x1="50" y1="125.99999999999993" x2="45" y2="125.99999999999993" style="visibility: inherit;" fill="rgb(0, 0, 0)" stroke="rgb(204, 204, 204)" stroke-width="1px"></line><line x1="50" y1="84.00000000000013" x2="45" y2="84.00000000000013" style="visibility: inherit;" fill="rgb(0, 0, 0)" stroke="rgb(204, 204, 204)" stroke-width="1px"></line><line x1="50" y1="42.000000000000064" x2="45" y2="42.000000000000064" style="visibility: inherit;" fill="rgb(0, 0, 0)" stroke="rgb(204, 204, 204)" stroke-width="1px"></line><line x1="50" y1="0" x2="45" y2="0" style="visibility: inherit;" fill="rgb(0, 0, 0)" stroke="rgb(204, 204, 204)" stroke-width="1px"></line></g><g transform="translate(40, 0)"><text x="0" y="378" dx="0em" dy="0.3em" style="text-anchor: end; visibility: hidden; font-family: Roboto, sans-serif; font-size: 12px; font-weight: 200;" fill="rgb(50, 49, 63)" stroke="none" stroke-width="1px">0.8</text><text x="0" y="336.00000000000017" dx="0em" dy="0.3em" style="text-anchor: end; visibility: inherit; font-family: Roboto, sans-serif; font-size: 12px; font-weight: 200;" fill="rgb(50, 49, 63)" stroke="none" stroke-width="1px">0.82</text><text x="0" y="294.0000000000001" dx="0em" dy="0.3em" style="text-anchor: end; visibility: inherit; font-family: Roboto, sans-serif; font-size: 12px; font-weight: 200;" fill="rgb(50, 49, 63)" stroke="none" stroke-width="1px">0.84</text><text x="0" y="252.00000000000006" dx="0em" dy="0.3em" style="text-anchor: end; visibility: inherit; font-family: Roboto, sans-serif; font-size: 12px; font-weight: 200;" fill="rgb(50, 49, 63)" stroke="none" stroke-width="1px">0.86</text><text x="0" y="210" dx="0em" dy="0.3em" style="text-anchor: end; visibility: inherit; font-family: Roboto, sans-serif; font-size: 12px; font-weight: 200;" fill="rgb(50, 49, 63)" stroke="none" stroke-width="1px">0.88</text><text x="0" y="168" dx="0em" dy="0.3em" style="text-anchor: end; visibility: inherit; font-family: Roboto, sans-serif; font-size: 12px; font-weight: 200;" fill="rgb(50, 49, 63)" stroke="none" stroke-width="1px">0.9</text><text x="0" y="125.99999999999993" dx="0em" dy="0.3em" style="text-anchor: end; visibility: inherit; font-family: Roboto, sans-serif; font-size: 12px; font-weight: 200;" fill="rgb(50, 49, 63)" stroke="none" stroke-width="1px">0.92</text><text x="0" y="84.00000000000013" dx="0em" dy="0.3em" style="text-anchor: end; visibility: inherit; font-family: Roboto, sans-serif; font-size: 12px; font-weight: 200;" fill="rgb(50, 49, 63)" stroke="none" stroke-width="1px">0.94</text><text x="0" y="42.000000000000064" dx="0em" dy="0.3em" style="text-anchor: end; visibility: inherit; font-family: Roboto, sans-serif; font-size: 12px; font-weight: 200;" fill="rgb(50, 49, 63)" stroke="none" stroke-width="1px">0.96</text><text x="0" y="0" dx="0em" dy="0.3em" style="text-anchor: end; visibility: hidden; font-family: Roboto, sans-serif; font-size: 12px; font-weight: 200;" fill="rgb(50, 49, 63)" stroke="none" stroke-width="1px">0.98</text></g><line x1="50" y1="0" x2="50" y2="378" fill="rgb(0, 0, 0)" stroke="rgb(204, 204, 204)" stroke-width="1px"></line></g></g><g transform="translate(50, 0)" clip-path="url(#clip_0)"><clipPath id="clip_0"><rect width="501" height="378"></rect></clipPath><g><g><g><line x1="0" y1="0" x2="0" y2="378" fill="rgb(0, 0, 0)" stroke="rgb(60, 60, 60)" stroke-width="1px" opacity="0.25"></line><line x1="41.78333333333333" y1="0" x2="41.78333333333333" y2="378" fill="rgb(0, 0, 0)" stroke="rgb(60, 60, 60)" stroke-width="1px" opacity="0.25"></line><line x1="83.56666666666666" y1="0" x2="83.56666666666666" y2="378" fill="rgb(0, 0, 0)" stroke="rgb(60, 60, 60)" stroke-width="1px" opacity="0.25"></line><line x1="125.35" y1="0" x2="125.35" y2="378" fill="rgb(0, 0, 0)" stroke="rgb(60, 60, 60)" stroke-width="1px" opacity="0.25"></line><line x1="167.13333333333333" y1="0" x2="167.13333333333333" y2="378" fill="rgb(0, 0, 0)" stroke="rgb(60, 60, 60)" stroke-width="1px" opacity="0.25"></line><line x1="208.91666666666666" y1="0" x2="208.91666666666666" y2="378" fill="rgb(0, 0, 0)" stroke="rgb(60, 60, 60)" stroke-width="1px" opacity="0.25"></line><line x1="250.7" y1="0" x2="250.7" y2="378" fill="rgb(0, 0, 0)" stroke="rgb(60, 60, 60)" stroke-width="1px" opacity="0.25"></line><line x1="292.48333333333335" y1="0" x2="292.48333333333335" y2="378" fill="rgb(0, 0, 0)" stroke="rgb(60, 60, 60)" stroke-width="1px" opacity="0.25"></line><line x1="334.26666666666665" y1="0" x2="334.26666666666665" y2="378" fill="rgb(0, 0, 0)" stroke="rgb(60, 60, 60)" stroke-width="1px" opacity="0.25"></line><line x1="376.04999999999995" y1="0" x2="376.04999999999995" y2="378" fill="rgb(0, 0, 0)" stroke="rgb(60, 60, 60)" stroke-width="1px" opacity="0.25"></line><line x1="417.8333333333333" y1="0" x2="417.8333333333333" y2="378" fill="rgb(0, 0, 0)" stroke="rgb(60, 60, 60)" stroke-width="1px" opacity="0.25"></line><line x1="459.6166666666666" y1="0" x2="459.6166666666666" y2="378" fill="rgb(0, 0, 0)" stroke="rgb(60, 60, 60)" stroke-width="1px" opacity="0.25"></line><line x1="501.4" y1="0" x2="501.4" y2="378" fill="rgb(0, 0, 0)" stroke="rgb(60, 60, 60)" stroke-width="1px" opacity="0.25"></line></g><g><line x1="0" y1="378" x2="501.4" y2="378" fill="rgb(0, 0, 0)" stroke="rgb(60, 60, 60)" stroke-width="1px" opacity="0.25"></line><line x1="0" y1="336.00000000000017" x2="501.4" y2="336.00000000000017" fill="rgb(0, 0, 0)" stroke="rgb(60, 60, 60)" stroke-width="1px" opacity="0.25"></line><line x1="0" y1="294.0000000000001" x2="501.4" y2="294.0000000000001" fill="rgb(0, 0, 0)" stroke="rgb(60, 60, 60)" stroke-width="1px" opacity="0.25"></line><line x1="0" y1="252.00000000000006" x2="501.4" y2="252.00000000000006" fill="rgb(0, 0, 0)" stroke="rgb(60, 60, 60)" stroke-width="1px" opacity="0.25"></line><line x1="0" y1="210" x2="501.4" y2="210" fill="rgb(0, 0, 0)" stroke="rgb(60, 60, 60)" stroke-width="1px" opacity="0.25"></line><line x1="0" y1="168" x2="501.4" y2="168" fill="rgb(0, 0, 0)" stroke="rgb(60, 60, 60)" stroke-width="1px" opacity="0.25"></line><line x1="0" y1="125.99999999999993" x2="501.4" y2="125.99999999999993" fill="rgb(0, 0, 0)" stroke="rgb(60, 60, 60)" stroke-width="1px" opacity="0.25"></line><line x1="0" y1="84.00000000000013" x2="501.4" y2="84.00000000000013" fill="rgb(0, 0, 0)" stroke="rgb(60, 60, 60)" stroke-width="1px" opacity="0.25"></line><line x1="0" y1="42.000000000000064" x2="501.4" y2="42.000000000000064" fill="rgb(0, 0, 0)" stroke="rgb(60, 60, 60)" stroke-width="1px" opacity="0.25"></line><line x1="0" y1="0" x2="501.4" y2="0" fill="rgb(0, 0, 0)" stroke="rgb(60, 60, 60)" stroke-width="1px" opacity="0.25"></line></g></g></g><g><g><line x1="0" y1="2058.000000000001" x2="501.4" y2="2058.000000000001" fill="rgb(0, 0, 0)" stroke="rgb(153, 153, 153)" stroke-width="1.5px"></line></g></g><g><g><line x1="41.78333333333333" y1="0" x2="41.78333333333333" y2="378" fill="rgb(0, 0, 0)" stroke="rgb(153, 153, 153)" stroke-width="1.5px"></line></g></g><g><g><g><g><g><path stroke="rgb(0, 153, 136)" stroke-width="2px" d="M41.78333333333333,391.9927017688752L50.14,359.19735002517706L58.49666666666666,342.2529952526093L66.85333333333332,338.97342252731335L75.21,260.26442813873297L83.56666666666666,266.27695727348333L91.92333333333332,264.6371083259583L100.28,269.0099136829377L108.63666666666667,246.0531549453736L116.99333333333333,229.65541648864752L125.35,234.57471299171453L133.70666666666665,220.3633146286011L142.06333333333333,219.27020716667178L150.42,222.54965472221375L158.77666666666664,214.35091066360476L167.13333333333333,225.2826111316681L175.48999999999998,219.27020716667178L183.84666666666664,218.72359085083013L192.20333333333335,214.8974018096924L200.56,206.69853258132937L208.91666666666666,212.71106171607977L217.27333333333334,218.72359085083013L225.63,217.0838670730591L233.98666666666665,216.53725075721744L242.34333333333333,212.16444540023807L250.7,213.25767803192144L259.0566666666667,214.8974018096924L267.4133333333333,212.71106171607977L275.77,214.8974018096924L284.12666666666667,213.8042943477631L292.48333333333335,216.53725075721744L300.84,218.17697453498846L309.19666666666666,212.71106171607977L317.5533333333333,211.07133793830874L325.90999999999997,216.53725075721744L334.26666666666665,211.07133793830874L342.62333333333333,215.44401812553411L350.97999999999996,216.53725075721744L359.33666666666664,213.25767803192144L367.69333333333327,209.97810530662542L376.04999999999995,214.8974018096924L384.4066666666667,215.44401812553411L392.7633333333333,211.61795425415042L401.12,213.8042943477631L409.47666666666663,212.16444540023807L417.8333333333333,214.35091066360476L426.19,212.71106171607977L434.5466666666667,214.35091066360476L442.9033333333333,214.8974018096924L451.26,216.53725075721744" style="fill: none;" fill="none"></path></g><g><path stroke="rgb(51, 187, 238)" stroke-width="2px" d="M41.78333333333333,352.6382045745851L50.14,316.5632801055909L58.49666666666666,311.64398360252386L66.85333333333332,308.9110271930695L75.21,223.09627103805545L83.56666666666666,241.13373327255258L91.92333333333332,222.00316357612613L100.28,225.2826111316681L108.63666666666667,236.76105308532718L116.99333333333333,218.72359085083013L125.35,199.5928959846497L133.70666666666665,201.2327449321747L142.06333333333333,205.05880880355838L150.42,202.8724687099457L158.77666666666664,201.2327449321747L167.13333333333333,199.5928959846497L175.48999999999998,196.85993957519534L183.84666666666664,201.2327449321747L192.20333333333335,207.79176521301275L200.56,196.85993957519534L208.91666666666666,191.9406430721283L217.27333333333334,197.406555891037L225.63,199.04627966880804L233.98666666666665,201.7792360782624L242.34333333333333,197.9531722068787L250.7,197.9531722068787L259.0566666666667,199.04627966880804L267.4133333333333,200.13951230049136L275.77,195.22021579742434L284.12666666666667,197.406555891037L292.48333333333335,197.9531722068787L300.84,202.32585239410403L309.19666666666666,199.5928959846497L317.5533333333333,197.9531722068787L325.90999999999997,199.5928959846497L334.26666666666665,203.41908502578738L342.62333333333333,201.2327449321747L350.97999999999996,201.7792360782624L359.33666666666664,201.7792360782624L367.69333333333327,201.2327449321747L376.04999999999995,201.7792360782624L384.4066666666667,201.7792360782624L392.7633333333333,201.7792360782624L401.12,202.32585239410403L409.47666666666663,201.2327449321747L417.8333333333333,201.7792360782624L426.19,201.7792360782624L434.5466666666667,201.7792360782624L442.9033333333333,201.7792360782624L451.26,201.7792360782624" style="fill: none;" fill="none"></path></g><g><path stroke="rgb(204, 51, 17)" stroke-width="2px" d="M41.78333333333333,331.3211696147919L50.14,300.7121579647065L58.49666666666666,279.3951230049134L66.85333333333332,290.87356495857244L75.21,264.6371083259583L83.56666666666666,269.0099136829377L91.92333333333332,268.463297367096L100.28,229.10880017280584L108.63666666666667,242.77358222007757L116.99333333333333,237.85428571701055L125.35,216.53725075721744L133.70666666666665,229.65541648864752L142.06333333333333,225.2826111316681L150.42,237.30766940116888L158.77666666666664,222.54965472221375L167.13333333333333,223.09627103805545L175.48999999999998,220.3633146286011L183.84666666666664,209.43148899078372L192.20333333333335,215.44401812553411L200.56,213.25767803192144L208.91666666666666,220.3633146286011L217.27333333333334,212.71106171607977L225.63,210.5247216224671L233.98666666666665,215.44401812553411L242.34333333333333,212.71106171607977L250.7,215.44401812553411L259.0566666666667,213.25767803192144L267.4133333333333,213.25767803192144L275.77,227.46907639503482L284.12666666666667,207.24514889717108L292.48333333333335,205.05880880355838L300.84,207.79176521301275L309.19666666666666,209.43148899078372L317.5533333333333,214.35091066360476L325.90999999999997,206.69853258132937L334.26666666666665,216.53725075721744L342.62333333333333,202.8724687099457L350.97999999999996,205.60542511940005L359.33666666666664,207.79176521301275L367.69333333333327,209.97810530662542L376.04999999999995,208.88499784469607L384.4066666666667,204.51219248771673L392.7633333333333,210.5247216224671L401.12,207.79176521301275L409.47666666666663,206.69853258132937L417.8333333333333,208.3383815288544L426.19,211.07133793830874L434.5466666666667,208.3383815288544L442.9033333333333,206.15204143524173L451.26,207.79176521301275" style="fill: none;" fill="none"></path></g><g><path stroke="rgb(0, 119, 187)" stroke-width="2px" d="M41.78333333333333,314.92343115806585L50.14,278.30189037323004L58.49666666666666,258.6247043609619L66.85333333333332,241.13373327255258L75.21,228.56218385696414L83.56666666666666,220.9099309444428L91.92333333333332,220.9099309444428L100.28,214.35091066360476L108.63666666666667,214.8974018096924L116.99333333333333,214.8974018096924L125.35,213.8042943477631L133.70666666666665,205.60542511940005L142.06333333333333,209.97810530662542L150.42,208.3383815288544L158.77666666666664,205.60542511940005L167.13333333333333,207.24514889717108L175.48999999999998,203.41908502578738L183.84666666666664,201.7792360782624L192.20333333333335,205.05880880355838L200.56,201.7792360782624L208.91666666666666,202.8724687099457L217.27333333333334,202.8724687099457L225.63,200.13951230049136L233.98666666666665,199.04627966880804L242.34333333333333,200.13951230049136L250.7,200.13951230049136L259.0566666666667,201.2327449321747L267.4133333333333,199.04627966880804L275.77,196.85993957519534L284.12666666666667,199.04627966880804L292.48333333333335,199.5928959846497L300.84,198.49978852272037L309.19666666666666,197.9531722068787L317.5533333333333,199.04627966880804L325.90999999999997,198.49978852272037L334.26666666666665,198.49978852272037L342.62333333333333,199.5928959846497L350.97999999999996,199.5928959846497L359.33666666666664,200.13951230049136L367.69333333333327,200.13951230049136L376.04999999999995,200.13951230049136L384.4066666666667,199.5928959846497L392.7633333333333,199.04627966880804L401.12,199.04627966880804L409.47666666666663,199.04627966880804L417.8333333333333,199.04627966880804L426.19,199.04627966880804L434.5466666666667,199.04627966880804L442.9033333333333,199.04627966880804L451.26,199.04627966880804" style="fill: none;" fill="none"></path></g><g><path stroke="rgb(255, 112, 67)" stroke-width="2px" d="M41.78333333333333,343.8927190303803L50.14,294.15301251411444L58.49666666666666,285.40765213966375L66.85333333333332,272.28948640823364L75.21,217.0838670730591L83.56666666666666,207.24514889717108L91.92333333333332,220.9099309444428L100.28,206.69853258132937L108.63666666666667,215.9906344413758L116.99333333333333,214.8974018096924L125.35,205.60542511940005L133.70666666666665,210.5247216224671L142.06333333333333,206.69853258132937L150.42,207.79176521301275L158.77666666666664,208.88499784469607L167.13333333333333,207.79176521301275L175.48999999999998,207.79176521301275L183.84666666666664,208.88499784469607L192.20333333333335,208.88499784469607L200.56,207.79176521301275L208.91666666666666,207.24514889717108L217.27333333333334,206.69853258132937L225.63,206.69853258132937L233.98666666666665,207.24514889717108L242.34333333333333,207.24514889717108L250.7,207.24514889717108L259.0566666666667,207.24514889717108L267.4133333333333,206.69853258132937L275.77,207.24514889717108L284.12666666666667,207.24514889717108L292.48333333333335,207.24514889717108L300.84,207.24514889717108L309.19666666666666,207.24514889717108L317.5533333333333,207.24514889717108L325.90999999999997,207.24514889717108L334.26666666666665,207.24514889717108L342.62333333333333,207.24514889717108L350.97999999999996,207.24514889717108L359.33666666666664,207.24514889717108L367.69333333333327,207.24514889717108L376.04999999999995,207.24514889717108L384.4066666666667,207.24514889717108L392.7633333333333,207.24514889717108L401.12,207.24514889717108L409.47666666666663,207.24514889717108L417.8333333333333,207.24514889717108L426.19,207.24514889717108L434.5466666666667,207.24514889717108L442.9033333333333,207.24514889717108L451.26,207.24514889717108" style="fill: none;" fill="none"></path></g></g></g></g></g></g><g transform="translate(50, 378)" clip-path="url(#clip_1)"><clipPath id="clip_1"><rect width="501" height="22"></rect></clipPath><g><g><line x1="0" y1="0" x2="0" y2="5" style="visibility: inherit;" fill="rgb(0, 0, 0)" stroke="rgb(204, 204, 204)" stroke-width="1px"></line><line x1="41.78333333333333" y1="0" x2="41.78333333333333" y2="5" style="visibility: inherit;" fill="rgb(0, 0, 0)" stroke="rgb(204, 204, 204)" stroke-width="1px"></line><line x1="83.56666666666666" y1="0" x2="83.56666666666666" y2="5" style="visibility: inherit;" fill="rgb(0, 0, 0)" stroke="rgb(204, 204, 204)" stroke-width="1px"></line><line x1="125.35" y1="0" x2="125.35" y2="5" style="visibility: inherit;" fill="rgb(0, 0, 0)" stroke="rgb(204, 204, 204)" stroke-width="1px"></line><line x1="167.13333333333333" y1="0" x2="167.13333333333333" y2="5" style="visibility: inherit;" fill="rgb(0, 0, 0)" stroke="rgb(204, 204, 204)" stroke-width="1px"></line><line x1="208.91666666666666" y1="0" x2="208.91666666666666" y2="5" style="visibility: inherit;" fill="rgb(0, 0, 0)" stroke="rgb(204, 204, 204)" stroke-width="1px"></line><line x1="250.7" y1="0" x2="250.7" y2="5" style="visibility: inherit;" fill="rgb(0, 0, 0)" stroke="rgb(204, 204, 204)" stroke-width="1px"></line><line x1="292.48333333333335" y1="0" x2="292.48333333333335" y2="5" style="visibility: inherit;" fill="rgb(0, 0, 0)" stroke="rgb(204, 204, 204)" stroke-width="1px"></line><line x1="334.26666666666665" y1="0" x2="334.26666666666665" y2="5" style="visibility: inherit;" fill="rgb(0, 0, 0)" stroke="rgb(204, 204, 204)" stroke-width="1px"></line><line x1="376.04999999999995" y1="0" x2="376.04999999999995" y2="5" style="visibility: inherit;" fill="rgb(0, 0, 0)" stroke="rgb(204, 204, 204)" stroke-width="1px"></line><line x1="417.8333333333333" y1="0" x2="417.8333333333333" y2="5" style="visibility: inherit;" fill="rgb(0, 0, 0)" stroke="rgb(204, 204, 204)" stroke-width="1px"></line><line x1="459.6166666666666" y1="0" x2="459.6166666666666" y2="5" style="visibility: inherit;" fill="rgb(0, 0, 0)" stroke="rgb(204, 204, 204)" stroke-width="1px"></line><line x1="501.4" y1="0" x2="501.4" y2="5" style="visibility: inherit;" fill="rgb(0, 0, 0)" stroke="rgb(204, 204, 204)" stroke-width="1px"></line></g><g transform="translate(0, 8)"><text x="0" y="0" dx="0em" dy="0.95em" style="text-anchor: middle; visibility: hidden; font-family: Roboto, sans-serif; font-size: 12px; font-weight: 200;" fill="rgb(50, 49, 63)" stroke="none" stroke-width="1px">-5</text><text x="41.78333333333333" y="0" dx="0em" dy="0.95em" style="text-anchor: middle; visibility: inherit; font-family: Roboto, sans-serif; font-size: 12px; font-weight: 200;" fill="rgb(50, 49, 63)" stroke="none" stroke-width="1px">0</text><text x="83.56666666666666" y="0" dx="0em" dy="0.95em" style="text-anchor: middle; visibility: inherit; font-family: Roboto, sans-serif; font-size: 12px; font-weight: 200;" fill="rgb(50, 49, 63)" stroke="none" stroke-width="1px">5</text><text x="125.35" y="0" dx="0em" dy="0.95em" style="text-anchor: middle; visibility: inherit; font-family: Roboto, sans-serif; font-size: 12px; font-weight: 200;" fill="rgb(50, 49, 63)" stroke="none" stroke-width="1px">10</text><text x="167.13333333333333" y="0" dx="0em" dy="0.95em" style="text-anchor: middle; visibility: inherit; font-family: Roboto, sans-serif; font-size: 12px; font-weight: 200;" fill="rgb(50, 49, 63)" stroke="none" stroke-width="1px">15</text><text x="208.91666666666666" y="0" dx="0em" dy="0.95em" style="text-anchor: middle; visibility: inherit; font-family: Roboto, sans-serif; font-size: 12px; font-weight: 200;" fill="rgb(50, 49, 63)" stroke="none" stroke-width="1px">20</text><text x="250.7" y="0" dx="0em" dy="0.95em" style="text-anchor: middle; visibility: inherit; font-family: Roboto, sans-serif; font-size: 12px; font-weight: 200;" fill="rgb(50, 49, 63)" stroke="none" stroke-width="1px">25</text><text x="292.48333333333335" y="0" dx="0em" dy="0.95em" style="text-anchor: middle; visibility: inherit; font-family: Roboto, sans-serif; font-size: 12px; font-weight: 200;" fill="rgb(50, 49, 63)" stroke="none" stroke-width="1px">30</text><text x="334.26666666666665" y="0" dx="0em" dy="0.95em" style="text-anchor: middle; visibility: inherit; font-family: Roboto, sans-serif; font-size: 12px; font-weight: 200;" fill="rgb(50, 49, 63)" stroke="none" stroke-width="1px">35</text><text x="376.04999999999995" y="0" dx="0em" dy="0.95em" style="text-anchor: middle; visibility: inherit; font-family: Roboto, sans-serif; font-size: 12px; font-weight: 200;" fill="rgb(50, 49, 63)" stroke="none" stroke-width="1px">40</text><text x="417.8333333333333" y="0" dx="0em" dy="0.95em" style="text-anchor: middle; visibility: inherit; font-family: Roboto, sans-serif; font-size: 12px; font-weight: 200;" fill="rgb(50, 49, 63)" stroke="none" stroke-width="1px">45</text><text x="459.6166666666666" y="0" dx="0em" dy="0.95em" style="text-anchor: middle; visibility: inherit; font-family: Roboto, sans-serif; font-size: 12px; font-weight: 200;" fill="rgb(50, 49, 63)" stroke="none" stroke-width="1px">50</text><text x="501.4" y="0" dx="0em" dy="0.95em" style="text-anchor: middle; visibility: hidden; font-family: Roboto, sans-serif; font-size: 12px; font-weight: 200;" fill="rgb(50, 49, 63)" stroke="none" stroke-width="1px">55</text></g><line x1="0" y1="0" x2="501.4" y2="0" fill="rgb(0, 0, 0)" stroke="rgb(204, 204, 204)" stroke-width="1px"></line></g></g></g></g></svg>